<svg width="1855" height="1143" viewBox="0 0 1855 1143" fill="none" xmlns="http://www.w3.org/2000/svg">
<path d="M1522.06 187.909H341.699V1095.46H1522.06V187.909Z" stroke="white" stroke-width="2" stroke-miterlimit="50" stroke-linejoin="round"/>
<path d="M388.115 1049.03H295.282V1141.88H388.115V1049.03Z" stroke="white" stroke-width="2" stroke-miterlimit="50" stroke-linejoin="round"/>
<path d="M804.2 1049.03H711.367V1141.88H804.2V1049.03Z" stroke="white" stroke-width="2" stroke-miterlimit="50" stroke-linejoin="round"/>
<path d="M388.115 141.483H295.282V234.336H388.115V141.483Z" stroke="white" stroke-width="2" stroke-miterlimit="50" stroke-linejoin="round"/>
<path d="M1568.48 141.483H1475.65V234.336H1568.48V141.483Z" stroke="white" stroke-width="2" stroke-miterlimit="50" stroke-linejoin="round"/>
<path d="M1568.48 1049.03H1475.65V1141.88H1568.48V1049.03Z" stroke="white" stroke-width="2" stroke-miterlimit="50" stroke-linejoin="round"/>
<path d="M1568.48 385.008H1475.65V477.861H1568.48V385.008Z" stroke="white" stroke-width="2" stroke-miterlimit="50" stroke-linejoin="round"/>
<path d="M1730.24 538.739V310.671H1522.06" stroke="white" stroke-width="2" stroke-miterlimit="50" stroke-linejoin="round"/>
<path d="M120.833 509.823V750.798H337.311" stroke="white" stroke-width="2" stroke-miterlimit="50" stroke-linejoin="round"/>
<path d="M1854.53 824.494C1854.53 833.743 1847.02 841.238 1837.79 841.238H1622.69C1613.45 841.238 1605.95 833.743 1605.95 824.494V554.873C1605.95 545.623 1613.45 538.128 1622.69 538.128H1837.79C1847.02 538.128 1854.53 545.623 1854.53 554.873V824.494Z" fill="white"/>
<path d="M248.566 483.901C248.566 493.15 241.073 500.646 231.831 500.646H16.7411C7.49966 500.646 0 493.15 0 483.901V214.28C0 205.031 7.49368 197.536 16.7411 197.536H231.831C241.073 197.536 248.566 205.031 248.566 214.28V483.901Z" fill="white"/>
<path d="M1184.98 373.04H664.543V887.563H1184.98V373.04Z" fill="white"/>
<g opacity="0.2">
<path d="M1143.43 399.519H706.088V759.012H1143.43V399.519Z" fill="#B1B1B1"/>
</g>
<path d="M1184.98 798.679H664.543V887.569H1184.98V798.679Z" fill="#4E4E4E"/>
<path d="M1035.03 594.876C1035.03 659.172 982.911 711.322 918.563 711.322C854.298 711.322 802.111 659.172 802.111 594.876C802.111 530.519 854.298 478.387 918.563 478.387C982.911 478.381 1035.03 530.519 1035.03 594.876Z" fill="#587991"/>
<path d="M873.175 643.361C873.175 653.03 879.915 656.795 888.127 651.743L966.308 604.011C974.562 598.97 974.562 590.763 966.308 585.71L888.127 537.954C879.915 532.902 873.175 536.739 873.175 546.384V643.361Z" fill="white"/>
<path d="M1143.43 834.934H713.827V855.385H1143.43V834.934Z" fill="white"/>
<path d="M1013.39 834.934H713.827V855.385H1013.39V834.934Z" fill="#587991"/>
<path opacity="0.1" d="M263.141 339.802V427.387V1006.31H671.145V427.387V339.802H263.141Z" fill="#1D1D1B"/>
<path d="M706.722 390.713H298.227V970.34H706.722V390.713Z" fill="white"/>
<path d="M646.384 693.943H350.252V749.379H646.384V693.943Z" fill="#DCDBDD"/>
<path d="M646.384 773.751H350.252V829.175H646.384V773.751Z" fill="#DCDBDD"/>
<path d="M594.545 855.81H402.091V900.314H594.545V855.81Z" fill="#4E4E4E"/>
<path d="M706.722 303.026H298.227V390.707H706.722V303.026Z" fill="#4E4E4E"/>
<path d="M354.513 360.061C362.258 360.061 368.537 353.816 368.537 346.112C368.537 338.409 362.258 332.163 354.513 332.163C346.768 332.163 340.49 338.409 340.49 346.112C340.49 353.816 346.768 360.061 354.513 360.061Z" fill="white"/>
<path d="M415.181 360.061C422.923 360.061 429.199 353.816 429.199 346.112C429.199 338.409 422.923 332.163 415.181 332.163C407.439 332.163 401.163 338.409 401.163 346.112C401.163 353.816 407.439 360.061 415.181 360.061Z" fill="white"/>
<path d="M475.861 360.061C483.606 360.061 489.884 353.816 489.884 346.112C489.884 338.409 483.606 332.163 475.861 332.163C468.116 332.163 461.837 338.409 461.837 346.112C461.837 353.816 468.116 360.061 475.861 360.061Z" fill="white"/>
<path d="M1013.39 866.807C1025.34 866.807 1035.03 857.118 1035.03 845.165C1035.03 833.213 1025.34 823.524 1013.39 823.524C1001.44 823.524 991.752 833.213 991.752 845.165C991.752 857.118 1001.44 866.807 1013.39 866.807Z" fill="#587991"/>
<path opacity="0.1" d="M1389.95 268.651H1003.94V486.978H1389.95V268.651Z" fill="#1D1D1B"/>
<path d="M1424.75 234.336H1038.74V452.663H1424.75V234.336Z" fill="white"/>
<path d="M1114.47 377.818C1135.22 377.818 1152.03 360.996 1152.03 340.245C1152.03 319.495 1135.22 302.673 1114.47 302.673C1093.72 302.673 1076.91 319.495 1076.91 340.245C1076.91 360.996 1093.72 377.818 1114.47 377.818Z" fill="#4E4E4E"/>
<path d="M1360.2 377.818C1380.95 377.818 1397.77 360.996 1397.77 340.245C1397.77 319.495 1380.95 302.673 1360.2 302.673C1339.46 302.673 1322.64 319.495 1322.64 340.245C1322.64 360.996 1339.46 377.818 1360.2 377.818Z" fill="#4E4E4E"/>
<path d="M1239.69 393.742C1269.23 393.742 1293.17 369.791 1293.17 340.245C1293.17 310.7 1269.23 286.749 1239.69 286.749C1210.15 286.749 1186.2 310.7 1186.2 340.245C1186.2 369.791 1210.15 393.742 1239.69 393.742Z" fill="#587991"/>
<path d="M1219.86 363.569C1219.86 368.209 1223.11 370.035 1227.07 367.604L1264.67 344.64C1268.63 342.233 1268.63 338.264 1264.67 335.839L1227.07 312.863C1223.11 310.444 1219.86 312.258 1219.86 316.915V363.569Z" fill="white"/>
<path d="M1383.36 337.414L1366.85 323.483C1364.61 321.585 1362.76 322.429 1362.76 325.381V336.995L1346.74 323.477C1344.5 321.579 1342.66 322.423 1342.66 325.375V356.355C1342.66 359.307 1344.5 360.163 1346.74 358.259L1362.76 344.729V356.349C1362.76 359.301 1364.61 360.157 1366.85 358.253L1383.36 344.31C1385.61 342.419 1385.61 339.323 1383.36 337.414Z" fill="white"/>
<path d="M1090.79 344.328L1107.3 358.271C1109.56 360.169 1111.38 359.319 1111.38 356.367V344.747L1127.41 358.277C1129.64 360.175 1131.49 359.325 1131.49 356.373V325.393C1131.49 322.441 1129.64 321.591 1127.41 323.495L1111.38 337.013V325.399C1111.38 322.447 1109.56 321.597 1107.3 323.501L1090.79 337.432C1088.54 339.323 1088.54 342.419 1090.79 344.328Z" fill="white"/>
<path d="M1026.77 329.176V351.309C1027.4 347.705 1027.8 344.017 1027.8 340.239C1027.8 336.456 1027.41 332.78 1026.77 329.176Z" fill="#587991"/>
<path d="M567.581 485.589C550.917 468.928 527.898 458.613 502.478 458.613V550.706L567.581 485.589Z" fill="#587991"/>
<path d="M502.472 458.613C451.614 458.613 410.405 499.844 410.405 550.706C410.405 601.557 451.62 642.787 502.472 642.787C523.552 642.787 542.903 635.633 558.429 623.713L502.472 550.706V458.613Z" fill="#4E4E4E"/>
<path d="M594.545 550.712C594.545 525.281 584.238 502.25 567.581 485.595L502.478 550.712L558.435 623.719C580.341 606.885 594.545 580.478 594.545 550.712Z" fill="#DCDBDD"/>
<path d="M116.565 423.915C116.451 423.915 116.338 423.915 116.23 423.909C114.111 423.771 112.291 422.364 111.621 420.353L95.287 371.334L43.9745 354.967C41.9574 354.32 40.5329 352.524 40.3713 350.411C40.2037 348.297 41.3349 346.298 43.2323 345.358L180.614 276.643C182.608 275.643 185.008 276.027 186.6 277.595C188.186 279.152 188.599 281.552 187.629 283.564L121.246 420.969C120.372 422.777 118.546 423.915 116.565 423.915Z" fill="#4E4E4E"/>
<path d="M1733.03 769.901C1732.86 769.901 1732.67 769.901 1732.49 769.901C1731.92 769.901 1731.35 769.817 1730.79 769.644C1677.53 752.923 1653.33 693.164 1652.33 690.626C1652.06 689.962 1651.92 689.255 1651.92 688.519V651.545C1651.92 648.402 1654.45 645.864 1657.58 645.852C1657.92 645.852 1692.79 644.984 1728.48 609.549C1729.56 608.483 1730.99 607.903 1732.5 607.903H1733.04C1734.55 607.903 1735.98 608.489 1737.06 609.549C1772.74 644.99 1807.62 645.852 1807.98 645.852C1811.09 645.888 1813.61 648.438 1813.61 651.545V688.519C1813.61 689.255 1813.48 689.956 1813.21 690.626C1812.21 693.164 1788 752.923 1734.75 769.644C1734.18 769.817 1733.61 769.901 1733.03 769.901Z" fill="#4E4E4E"/>
<path d="M1785.9 1016.37C1794.76 1016.37 1801.95 1009.19 1801.95 1000.32C1801.95 991.457 1794.76 984.271 1785.9 984.271C1777.04 984.271 1769.86 991.457 1769.86 1000.32C1769.86 1009.19 1777.04 1016.37 1785.9 1016.37Z" stroke="#4E4E4E" stroke-width="2" stroke-miterlimit="10" stroke-linecap="round"/>
<path d="M1011.95 976.956C1020.81 976.956 1027.99 969.77 1027.99 960.905C1027.99 952.041 1020.81 944.855 1011.95 944.855C1003.08 944.855 995.9 952.041 995.9 960.905C995.9 969.77 1003.08 976.956 1011.95 976.956Z" stroke="#4E4E4E" stroke-width="2" stroke-miterlimit="10" stroke-linecap="round"/>
<path d="M1775.57 157.533C1784.43 157.533 1791.62 150.347 1791.62 141.483C1791.62 132.618 1784.43 125.432 1775.57 125.432C1766.71 125.432 1759.52 132.618 1759.52 141.483C1759.52 150.347 1766.71 157.533 1775.57 157.533Z" stroke="#4E4E4E" stroke-width="2" stroke-miterlimit="10" stroke-linecap="round"/>
<path d="M1618.62 33.1004C1627.48 33.1004 1634.66 25.9145 1634.66 17.0502C1634.66 8.18592 1627.48 1 1618.62 1C1609.75 1 1602.57 8.18592 1602.57 17.0502C1602.57 25.9145 1609.75 33.1004 1618.62 33.1004Z" stroke="#4E4E4E" stroke-width="2" stroke-miterlimit="10" stroke-linecap="round"/>
<path d="M786.286 293.717C795.148 293.717 802.333 286.531 802.333 277.667C802.333 268.803 795.148 261.617 786.286 261.617C777.423 261.617 770.239 268.803 770.239 277.667C770.239 286.531 777.423 293.717 786.286 293.717Z" stroke="#4E4E4E" stroke-width="2" stroke-miterlimit="10" stroke-linecap="round"/>
<path d="M207.692 1055.6C216.555 1055.6 223.739 1048.42 223.739 1039.55C223.739 1030.69 216.555 1023.5 207.692 1023.5C198.83 1023.5 191.646 1030.69 191.646 1039.55C191.646 1048.42 198.83 1055.6 207.692 1055.6Z" stroke="#4E4E4E" stroke-width="2" stroke-miterlimit="10" stroke-linecap="round"/>
<path d="M38.5877 1137.18C47.4501 1137.18 54.6344 1130 54.6344 1121.13C54.6344 1112.27 47.4501 1105.08 38.5877 1105.08C29.7253 1105.08 22.5409 1112.27 22.5409 1121.13C22.5409 1130 29.7253 1137.18 38.5877 1137.18Z" stroke="#4E4E4E" stroke-width="2" stroke-miterlimit="10" stroke-linecap="round"/>
<path d="M71.1002 99.9533C79.9626 99.9533 87.1469 92.7674 87.1469 83.9031C87.1469 75.0388 79.9626 67.8529 71.1002 67.8529C62.2378 67.8529 55.0534 75.0388 55.0534 83.9031C55.0534 92.7674 62.2378 99.9533 71.1002 99.9533Z" stroke="#4E4E4E" stroke-width="2" stroke-miterlimit="10" stroke-linecap="round"/>
<path d="M1673.81 970.981C1689.14 970.981 1701.56 958.558 1701.56 943.233C1701.56 927.908 1689.14 915.484 1673.81 915.484C1658.49 915.484 1646.07 927.908 1646.07 943.233C1646.07 958.558 1658.49 970.981 1673.81 970.981Z" stroke="#4E4E4E" stroke-width="2" stroke-miterlimit="10" stroke-linecap="round"/>
<path d="M908.13 1016.41C923.452 1016.41 935.872 1003.98 935.872 988.659C935.872 973.334 923.452 960.911 908.13 960.911C892.808 960.911 880.388 973.334 880.388 988.659C880.388 1003.98 892.808 1016.41 908.13 1016.41Z" stroke="#4E4E4E" stroke-width="2" stroke-miterlimit="10" stroke-linecap="round"/>
<path d="M201.695 72.5404C217.017 72.5404 229.437 60.1172 229.437 44.7923C229.437 29.4675 217.017 17.0442 201.695 17.0442C186.373 17.0442 173.953 29.4675 173.953 44.7923C173.953 60.1172 186.373 72.5404 201.695 72.5404Z" stroke="#4E4E4E" stroke-width="2" stroke-miterlimit="10" stroke-linecap="round"/>
<path d="M124.286 970.981C139.608 970.981 152.028 958.558 152.028 943.233C152.028 927.908 139.608 915.484 124.286 915.484C108.965 915.484 96.5439 927.908 96.5439 943.233C96.5439 958.558 108.965 970.981 124.286 970.981Z" stroke="#4E4E4E" stroke-width="2" stroke-miterlimit="10" stroke-linecap="round"/>
<path d="M1679.48 225.284C1694.8 225.284 1707.22 212.861 1707.22 197.536C1707.22 182.211 1694.8 169.788 1679.48 169.788C1664.16 169.788 1651.74 182.211 1651.74 197.536C1651.74 212.861 1664.16 225.284 1679.48 225.284Z" stroke="#4E4E4E" stroke-width="2" stroke-miterlimit="10" stroke-linecap="round"/>
<path d="M1386.58 555.693H1203.97C1182.24 556.86 1169.56 571.013 1167.76 589.476V1014.55C1169.98 1035.89 1187.49 1049.29 1206.85 1049.29H1383.85C1405.94 1049.29 1422.33 1031.45 1422.33 1009.94V594.097C1422.33 573.419 1408.93 556.944 1386.58 555.693Z" fill="#4E4E4E"/>
<path d="M1402.99 608.322H1186.02V975.237H1402.99V608.322Z" fill="white"/>
<path d="M1265.66 585.004C1268.2 585.004 1270.25 582.948 1270.25 580.412C1270.25 577.876 1268.2 575.82 1265.66 575.82C1263.12 575.82 1261.07 577.876 1261.07 580.412C1261.07 582.948 1263.12 585.004 1265.66 585.004Z" fill="white"/>
<path d="M1327.94 579.705C1327.94 577.389 1326.06 575.497 1323.73 575.497H1287.55C1285.23 575.497 1283.35 577.389 1283.35 579.705V580.55C1283.35 582.878 1285.23 584.758 1287.55 584.758H1323.73C1326.06 584.758 1327.94 582.878 1327.94 580.55V579.705Z" fill="white"/>
<path d="M1294.5 1033.56C1306.9 1033.56 1316.95 1023.51 1316.95 1011.11C1316.95 998.711 1306.9 988.659 1294.5 988.659C1282.11 988.659 1272.06 998.711 1272.06 1011.11C1272.06 1023.51 1282.11 1033.56 1294.5 1033.56Z" fill="white"/>
<path d="M1257.74 681.32H1241.24V678.644H1257.74V681.32ZM1252.48 671.638H1241.14V668.865H1252.48V671.638ZM1246.45 663.951L1246.84 674.509C1246.89 675.53 1246.79 676.475 1246.56 677.343C1246.33 678.202 1245.89 678.863 1245.23 679.325L1242.21 678.644C1242.7 678.644 1243.07 678.401 1243.33 677.914C1243.59 677.428 1243.77 676.86 1243.86 676.212C1243.95 675.563 1243.98 674.995 1243.97 674.509L1243.63 663.951C1243.56 662.183 1243.88 660.715 1244.59 659.548C1245.3 658.38 1246.23 657.508 1247.38 656.933C1248.54 656.357 1249.76 656.069 1251.02 656.069C1252.18 656.069 1253.23 656.28 1254.18 656.702C1255.13 657.115 1255.93 657.675 1256.58 658.38C1257.23 659.086 1257.68 659.88 1257.94 660.764C1258.2 661.64 1258.21 662.54 1257.98 663.464L1255.16 662.686C1255.27 661.843 1255.14 661.129 1254.77 660.545C1254.4 659.953 1253.89 659.507 1253.23 659.207C1252.59 658.899 1251.9 658.745 1251.17 658.745C1250.39 658.745 1249.64 658.932 1248.92 659.305C1248.2 659.669 1247.6 660.237 1247.14 661.007C1246.68 661.77 1246.45 662.751 1246.45 663.951ZM1279.34 681.32H1262.85V678.644H1279.34V681.32ZM1274.09 671.638H1262.75V668.865H1274.09V671.638ZM1268.06 663.951L1268.45 674.509C1268.49 675.53 1268.4 676.475 1268.17 677.343C1267.94 678.202 1267.5 678.863 1266.84 679.325L1263.82 678.644C1264.31 678.644 1264.68 678.401 1264.94 677.914C1265.2 677.428 1265.38 676.86 1265.47 676.212C1265.55 675.563 1265.59 674.995 1265.57 674.509L1265.23 663.951C1265.17 662.183 1265.49 660.715 1266.19 659.548C1266.91 658.38 1267.84 657.508 1268.99 656.933C1270.15 656.357 1271.36 656.069 1272.63 656.069C1273.79 656.069 1274.84 656.28 1275.79 656.702C1276.74 657.115 1277.54 657.675 1278.19 658.38C1278.84 659.086 1279.29 659.88 1279.55 660.764C1279.81 661.64 1279.82 662.54 1279.59 663.464L1276.76 662.686C1276.88 661.843 1276.75 661.129 1276.38 660.545C1276.01 659.953 1275.5 659.507 1274.84 659.207C1274.19 658.899 1273.51 658.745 1272.78 658.745C1272 658.745 1271.25 658.932 1270.52 659.305C1269.8 659.669 1269.21 660.237 1268.75 661.007C1268.29 661.77 1268.06 662.751 1268.06 663.951ZM1300.95 681.32H1284.46V678.644H1300.95V681.32ZM1295.7 671.638H1284.36V668.865H1295.7V671.638ZM1289.66 663.951L1290.05 674.509C1290.1 675.53 1290.01 676.475 1289.77 677.343C1289.55 678.202 1289.1 678.863 1288.45 679.325L1285.43 678.644C1285.92 678.644 1286.29 678.401 1286.55 677.914C1286.81 677.428 1286.98 676.86 1287.07 676.212C1287.16 675.563 1287.2 674.995 1287.18 674.509L1286.84 663.951C1286.78 662.183 1287.1 660.715 1287.8 659.548C1288.52 658.38 1289.45 657.508 1290.6 656.933C1291.76 656.357 1292.97 656.069 1294.24 656.069C1295.4 656.069 1296.45 656.28 1297.4 656.702C1298.35 657.115 1299.15 657.675 1299.8 658.38C1300.44 659.086 1300.9 659.88 1301.16 660.764C1301.42 661.64 1301.43 662.54 1301.19 663.464L1298.37 662.686C1298.49 661.843 1298.36 661.129 1297.98 660.545C1297.62 659.953 1297.11 659.507 1296.45 659.207C1295.8 658.899 1295.11 658.745 1294.38 658.745C1293.6 658.745 1292.85 658.932 1292.13 659.305C1291.41 659.669 1290.82 660.237 1290.36 661.007C1289.9 661.77 1289.66 662.751 1289.66 663.951ZM1322.56 681.32H1306.07V678.644H1322.56V681.32ZM1317.31 671.638H1305.97V668.865H1317.31V671.638ZM1311.27 663.951L1311.66 674.509C1311.71 675.53 1311.62 676.475 1311.38 677.343C1311.15 678.202 1310.71 678.863 1310.06 679.325L1307.04 678.644C1307.53 678.644 1307.9 678.401 1308.16 677.914C1308.42 677.428 1308.59 676.86 1308.68 676.212C1308.77 675.563 1308.81 674.995 1308.79 674.509L1308.45 663.951C1308.39 662.183 1308.71 660.715 1309.41 659.548C1310.12 658.38 1311.06 657.508 1312.21 656.933C1313.37 656.357 1314.58 656.069 1315.85 656.069C1317.01 656.069 1318.06 656.28 1319.01 656.702C1319.96 657.115 1320.76 657.675 1321.4 658.38C1322.05 659.086 1322.51 659.88 1322.77 660.764C1323.03 661.64 1323.04 662.54 1322.8 663.464L1319.98 662.686C1320.09 661.843 1319.96 661.129 1319.59 660.545C1319.23 659.953 1318.72 659.507 1318.06 659.207C1317.41 658.899 1316.72 658.745 1315.99 658.745C1315.21 658.745 1314.46 658.932 1313.74 659.305C1313.02 659.669 1312.43 660.237 1311.97 661.007C1311.5 661.77 1311.27 662.751 1311.27 663.951ZM1344.17 681.32H1327.67V678.644H1344.17V681.32ZM1338.91 671.638H1327.58V668.865H1338.91V671.638ZM1332.88 663.951L1333.27 674.509C1333.32 675.53 1333.23 676.475 1332.99 677.343C1332.76 678.202 1332.32 678.863 1331.66 679.325L1328.65 678.644C1329.13 678.644 1329.51 678.401 1329.77 677.914C1330.03 677.428 1330.2 676.86 1330.29 676.212C1330.38 675.563 1330.42 674.995 1330.4 674.509L1330.06 663.951C1329.99 662.183 1330.31 660.715 1331.02 659.548C1331.73 658.38 1332.67 657.508 1333.82 656.933C1334.98 656.357 1336.19 656.069 1337.45 656.069C1338.61 656.069 1339.67 656.28 1340.62 656.702C1341.57 657.115 1342.36 657.675 1343.01 658.38C1343.66 659.086 1344.12 659.88 1344.37 660.764C1344.63 661.64 1344.65 662.54 1344.41 663.464L1341.59 662.686C1341.7 661.843 1341.57 661.129 1341.2 660.545C1340.84 659.953 1340.32 659.507 1339.67 659.207C1339.02 658.899 1338.33 658.745 1337.6 658.745C1336.82 658.745 1336.07 658.932 1335.35 659.305C1334.63 659.669 1334.04 660.237 1333.57 661.007C1333.11 661.77 1332.88 662.751 1332.88 663.951Z" fill="#4E4E4E"/>
</svg>
