<svg width="825" height="232" viewBox="0 0 825 232" fill="none" xmlns="http://www.w3.org/2000/svg">
<path d="M91.584 51.28V99.376C91.584 105.328 89.76 110.032 86.112 113.488C82.528 116.944 77.792 118.672 71.904 118.672C66.016 118.672 61.248 116.944 57.6 113.488C54.016 110.032 52.224 105.328 52.224 99.376H63.264C63.328 102.32 64.064 104.656 65.472 106.384C66.944 108.112 69.088 108.976 71.904 108.976C74.72 108.976 76.864 108.112 78.336 106.384C79.808 104.592 80.544 102.256 80.544 99.376V51.28H91.584ZM102.859 91.312C102.859 86 103.947 81.296 106.123 77.2C108.363 73.104 111.371 69.936 115.147 67.696C118.987 65.392 123.212 64.24 127.82 64.24C131.98 64.24 135.596 65.072 138.668 66.736C141.804 68.336 144.3 70.352 146.156 72.784V65.104H157.196V118H146.156V110.128C144.3 112.624 141.772 114.704 138.571 116.368C135.372 118.032 131.724 118.864 127.628 118.864C123.083 118.864 118.923 117.712 115.147 115.408C111.371 113.04 108.363 109.776 106.123 105.616C103.947 101.392 102.859 96.624 102.859 91.312ZM146.156 91.504C146.156 87.856 145.388 84.688 143.852 82C142.38 79.312 140.428 77.264 137.996 75.856C135.564 74.448 132.939 73.744 130.123 73.744C127.307 73.744 124.683 74.448 122.251 75.856C119.819 77.2 117.835 79.216 116.299 81.904C114.827 84.528 114.092 87.664 114.092 91.312C114.092 94.96 114.827 98.16 116.299 100.912C117.835 103.664 119.819 105.776 122.251 107.248C124.748 108.656 127.372 109.36 130.123 109.36C132.939 109.36 135.564 108.656 137.996 107.248C140.428 105.84 142.38 103.792 143.852 101.104C145.388 98.352 146.156 95.152 146.156 91.504ZM232.722 64.24C236.882 64.24 240.594 65.104 243.858 66.832C247.186 68.56 249.778 71.12 251.634 74.512C253.554 77.904 254.514 82 254.514 86.8V118H243.666V88.432C243.666 83.696 242.482 80.08 240.114 77.584C237.746 75.024 234.514 73.744 230.418 73.744C226.322 73.744 223.058 75.024 220.626 77.584C218.258 80.08 217.074 83.696 217.074 88.432V118H206.226V88.432C206.226 83.696 205.042 80.08 202.674 77.584C200.306 75.024 197.074 73.744 192.978 73.744C188.882 73.744 185.618 75.024 183.186 77.584C180.818 80.08 179.634 83.696 179.634 88.432V118H168.69V65.104H179.634V71.152C181.426 68.976 183.698 67.28 186.45 66.064C189.202 64.848 192.146 64.24 195.282 64.24C199.506 64.24 203.282 65.136 206.61 66.928C209.938 68.72 212.498 71.312 214.29 74.704C215.89 71.504 218.386 68.976 221.778 67.12C225.17 65.2 228.818 64.24 232.722 64.24ZM314.04 90.256C314.04 92.24 313.912 94.032 313.656 95.632H273.24C273.56 99.856 275.128 103.248 277.944 105.808C280.76 108.368 284.216 109.648 288.312 109.648C294.2 109.648 298.36 107.184 300.792 102.256H312.6C311 107.12 308.088 111.12 303.864 114.256C299.704 117.328 294.52 118.864 288.312 118.864C283.256 118.864 278.712 117.744 274.68 115.504C270.712 113.2 267.576 110 265.272 105.904C263.032 101.744 261.912 96.944 261.912 91.504C261.912 86.064 263 81.296 265.176 77.2C267.416 73.04 270.52 69.84 274.488 67.6C278.52 65.36 283.128 64.24 288.312 64.24C293.304 64.24 297.752 65.328 301.656 67.504C305.56 69.68 308.6 72.752 310.776 76.72C312.952 80.624 314.04 85.136 314.04 90.256ZM302.616 86.8C302.552 82.768 301.112 79.536 298.296 77.104C295.48 74.672 291.992 73.456 287.832 73.456C284.056 73.456 280.824 74.672 278.136 77.104C275.448 79.472 273.848 82.704 273.336 86.8H302.616ZM341.13 118.864C336.97 118.864 333.226 118.128 329.898 116.656C326.634 115.12 324.042 113.072 322.122 110.512C320.202 107.888 319.178 104.976 319.05 101.776H330.378C330.57 104.016 331.626 105.904 333.546 107.44C335.53 108.912 337.994 109.648 340.938 109.648C344.01 109.648 346.378 109.072 348.042 107.92C349.77 106.704 350.634 105.168 350.634 103.312C350.634 101.328 349.674 99.856 347.754 98.896C345.898 97.936 342.922 96.88 338.826 95.728C334.858 94.64 331.626 93.584 329.13 92.56C326.634 91.536 324.458 89.968 322.602 87.856C320.81 85.744 319.914 82.96 319.914 79.504C319.914 76.688 320.746 74.128 322.41 71.824C324.074 69.456 326.442 67.6 329.514 66.256C332.65 64.912 336.234 64.24 340.266 64.24C346.282 64.24 351.114 65.776 354.762 68.848C358.474 71.856 360.458 75.984 360.714 81.232H349.77C349.578 78.864 348.618 76.976 346.89 75.568C345.162 74.16 342.826 73.456 339.882 73.456C337.002 73.456 334.794 74 333.258 75.088C331.722 76.176 330.954 77.616 330.954 79.408C330.954 80.816 331.466 82 332.49 82.96C333.514 83.92 334.762 84.688 336.234 85.264C337.706 85.776 339.882 86.448 342.762 87.28C346.602 88.304 349.738 89.36 352.17 90.448C354.666 91.472 356.81 93.008 358.602 95.056C360.394 97.104 361.322 99.824 361.386 103.216C361.386 106.224 360.554 108.912 358.89 111.28C357.226 113.648 354.858 115.504 351.786 116.848C348.778 118.192 345.226 118.864 341.13 118.864ZM414.373 118.672C409.893 118.672 405.861 117.904 402.277 116.368C398.693 114.768 395.877 112.528 393.829 109.648C391.781 106.768 390.757 103.408 390.757 99.568H402.469C402.725 102.448 403.845 104.816 405.829 106.672C407.877 108.528 410.725 109.456 414.373 109.456C418.149 109.456 421.093 108.56 423.205 106.768C425.317 104.912 426.373 102.544 426.373 99.664C426.373 97.424 425.701 95.6 424.357 94.192C423.077 92.784 421.445 91.696 419.461 90.928C417.541 90.16 414.853 89.328 411.397 88.432C407.045 87.28 403.493 86.128 400.741 84.976C398.053 83.76 395.749 81.904 393.829 79.408C391.909 76.912 390.949 73.584 390.949 69.424C390.949 65.584 391.909 62.224 393.829 59.344C395.749 56.464 398.437 54.256 401.893 52.72C405.349 51.184 409.349 50.416 413.893 50.416C420.357 50.416 425.637 52.048 429.733 55.312C433.893 58.512 436.197 62.928 436.645 68.56H424.549C424.357 66.128 423.205 64.048 421.093 62.32C418.981 60.592 416.197 59.728 412.741 59.728C409.605 59.728 407.045 60.528 405.061 62.128C403.077 63.728 402.085 66.032 402.085 69.04C402.085 71.088 402.693 72.784 403.909 74.128C405.189 75.408 406.789 76.432 408.709 77.2C410.629 77.968 413.253 78.8 416.581 79.696C420.997 80.912 424.581 82.128 427.333 83.344C430.149 84.56 432.517 86.448 434.437 89.008C436.421 91.504 437.413 94.864 437.413 99.088C437.413 102.48 436.485 105.68 434.629 108.688C432.837 111.696 430.181 114.128 426.661 115.984C423.205 117.776 419.109 118.672 414.373 118.672ZM474.806 64.24C478.838 64.24 482.422 65.104 485.558 66.832C488.758 68.56 491.254 71.12 493.046 74.512C494.902 77.904 495.83 82 495.83 86.8V118H484.982V88.432C484.982 83.696 483.798 80.08 481.43 77.584C479.062 75.024 475.83 73.744 471.734 73.744C467.638 73.744 464.374 75.024 461.942 77.584C459.574 80.08 458.39 83.696 458.39 88.432V118H447.446V46.96H458.39V71.248C460.246 69.008 462.582 67.28 465.398 66.064C468.278 64.848 471.414 64.24 474.806 64.24ZM503.262 91.312C503.262 86 504.35 81.296 506.526 77.2C508.766 73.104 511.774 69.936 515.55 67.696C519.39 65.392 523.614 64.24 528.222 64.24C532.382 64.24 535.998 65.072 539.07 66.736C542.206 68.336 544.702 70.352 546.558 72.784V65.104H557.598V118H546.558V110.128C544.702 112.624 542.174 114.704 538.974 116.368C535.774 118.032 532.126 118.864 528.03 118.864C523.486 118.864 519.326 117.712 515.55 115.408C511.774 113.04 508.766 109.776 506.526 105.616C504.35 101.392 503.262 96.624 503.262 91.312ZM546.558 91.504C546.558 87.856 545.79 84.688 544.254 82C542.782 79.312 540.83 77.264 538.398 75.856C535.966 74.448 533.342 73.744 530.526 73.744C527.71 73.744 525.086 74.448 522.654 75.856C520.222 77.2 518.238 79.216 516.702 81.904C515.23 84.528 514.494 87.664 514.494 91.312C514.494 94.96 515.23 98.16 516.702 100.912C518.238 103.664 520.222 105.776 522.654 107.248C525.15 108.656 527.774 109.36 530.526 109.36C533.342 109.36 535.966 108.656 538.398 107.248C540.83 105.84 542.782 103.792 544.254 101.104C545.79 98.352 546.558 95.152 546.558 91.504ZM580.037 72.88C581.893 70.448 584.421 68.4 587.621 66.736C590.821 65.072 594.437 64.24 598.469 64.24C603.077 64.24 607.269 65.392 611.045 67.696C614.885 69.936 617.893 73.104 620.069 77.2C622.245 81.296 623.333 86 623.333 91.312C623.333 96.624 622.245 101.392 620.069 105.616C617.893 109.776 614.885 113.04 611.045 115.408C607.269 117.712 603.077 118.864 598.469 118.864C594.437 118.864 590.853 118.064 587.717 116.464C584.581 114.8 582.021 112.752 580.037 110.32V143.152H569.093V65.104H580.037V72.88ZM612.197 91.312C612.197 87.664 611.429 84.528 609.893 81.904C608.421 79.216 606.437 77.2 603.941 75.856C601.509 74.448 598.885 73.744 596.069 73.744C593.317 73.744 590.693 74.448 588.197 75.856C585.765 77.264 583.781 79.312 582.245 82C580.773 84.688 580.037 87.856 580.037 91.504C580.037 95.152 580.773 98.352 582.245 101.104C583.781 103.792 585.765 105.84 588.197 107.248C590.693 108.656 593.317 109.36 596.069 109.36C598.885 109.36 601.509 108.656 603.941 107.248C606.437 105.776 608.421 103.664 609.893 100.912C611.429 98.16 612.197 94.96 612.197 91.312ZM644.043 74.032V103.312C644.043 105.296 644.491 106.736 645.387 107.632C646.347 108.464 647.947 108.88 650.187 108.88H656.907V118H648.267C643.339 118 639.563 116.848 636.939 114.544C634.315 112.24 633.003 108.496 633.003 103.312V74.032H626.763V65.104H633.003V51.952H644.043V65.104H656.907V74.032H644.043ZM712.594 90.256C712.594 92.24 712.466 94.032 712.21 95.632H671.794C672.114 99.856 673.682 103.248 676.498 105.808C679.314 108.368 682.77 109.648 686.866 109.648C692.754 109.648 696.914 107.184 699.346 102.256H711.154C709.554 107.12 706.642 111.12 702.418 114.256C698.258 117.328 693.074 118.864 686.866 118.864C681.81 118.864 677.266 117.744 673.234 115.504C669.266 113.2 666.13 110 663.826 105.904C661.586 101.744 660.466 96.944 660.466 91.504C660.466 86.064 661.554 81.296 663.73 77.2C665.97 73.04 669.074 69.84 673.042 67.6C677.074 65.36 681.682 64.24 686.866 64.24C691.858 64.24 696.306 65.328 700.21 67.504C704.114 69.68 707.154 72.752 709.33 76.72C711.506 80.624 712.594 85.136 712.594 90.256ZM701.17 86.8C701.106 82.768 699.666 79.536 696.85 77.104C694.034 74.672 690.546 73.456 686.386 73.456C682.61 73.456 679.378 74.672 676.69 77.104C674.002 79.472 672.402 82.704 671.89 86.8H701.17ZM731.428 72.784C733.028 70.096 735.14 68.016 737.764 66.544C740.452 65.008 743.62 64.24 747.268 64.24V75.568H744.484C740.196 75.568 736.932 76.656 734.692 78.832C732.516 81.008 731.428 84.784 731.428 90.16V118H720.484V65.104H731.428V72.784Z" fill="#CF9056"/>
<path d="M64.4531 169.531C64.4531 168.746 64.2715 168.084 63.9082 167.545C63.5566 167.006 63.0996 166.549 62.5371 166.174C61.9746 165.811 61.3535 165.506 60.6738 165.26C60.0059 165.014 59.3613 164.791 58.7402 164.592C57.8379 164.299 56.918 163.947 55.9805 163.537C55.0547 163.115 54.2109 162.611 53.4492 162.025C52.6758 161.428 52.043 160.725 51.5508 159.916C51.0703 159.096 50.8301 158.135 50.8301 157.033C50.8301 155.932 51.0703 154.947 51.5508 154.08C52.043 153.213 52.6816 152.48 53.4668 151.883C54.252 151.285 55.1426 150.834 56.1387 150.529C57.1348 150.213 58.1367 150.055 59.1445 150.055C60.2578 150.055 61.3301 150.242 62.3613 150.617C63.3926 150.98 64.3066 151.496 65.1035 152.164C65.9004 152.832 66.5391 153.641 67.0195 154.59C67.5 155.539 67.752 156.6 67.7754 157.771H64.4355C64.3418 157.033 64.1602 156.365 63.8906 155.768C63.6211 155.158 63.2637 154.637 62.8184 154.203C62.373 153.77 61.8398 153.436 61.2188 153.201C60.6094 152.955 59.918 152.832 59.1445 152.832C58.5234 152.832 57.9141 152.92 57.3164 153.096C56.7305 153.271 56.209 153.535 55.752 153.887C55.2832 154.238 54.9082 154.672 54.627 155.188C54.3574 155.703 54.2227 156.301 54.2227 156.98C54.2344 157.719 54.4219 158.346 54.7852 158.861C55.1484 159.365 55.6113 159.793 56.1738 160.145C56.7246 160.496 57.3223 160.789 57.9668 161.023C58.623 161.258 59.2383 161.463 59.8125 161.639C60.7617 161.932 61.7109 162.289 62.6602 162.711C63.6094 163.121 64.4766 163.648 65.2617 164.293C66.0352 164.891 66.6562 165.623 67.125 166.49C67.6055 167.357 67.8457 168.359 67.8457 169.496C67.8457 170.645 67.5879 171.646 67.0723 172.502C66.5684 173.357 65.9121 174.066 65.1035 174.629C64.2949 175.203 63.3809 175.637 62.3613 175.93C61.3418 176.211 60.3223 176.352 59.3027 176.352C58.084 176.352 56.8828 176.146 55.6992 175.736C54.5273 175.326 53.5078 174.734 52.6406 173.961C51.8672 173.293 51.252 172.514 50.7949 171.623C50.3496 170.721 50.1094 169.719 50.0742 168.617H53.3965C53.502 169.414 53.7188 170.123 54.0469 170.744C54.375 171.354 54.7969 171.869 55.3125 172.291C55.8281 172.725 56.4199 173.053 57.0879 173.275C57.7676 173.486 58.5059 173.592 59.3027 173.592C59.9355 173.592 60.5566 173.516 61.166 173.363C61.7871 173.199 62.3379 172.947 62.8184 172.607C63.2988 172.279 63.6914 171.863 63.9961 171.359C64.3008 170.844 64.4531 170.234 64.4531 169.531ZM70.3256 166.314C70.3256 164.943 70.5248 163.672 70.9233 162.5C71.3217 161.316 71.8959 160.291 72.6459 159.424C73.3842 158.557 74.2866 157.877 75.353 157.385C76.4194 156.881 77.6205 156.629 78.9565 156.629C80.3041 156.629 81.5112 156.881 82.5776 157.385C83.6557 157.877 84.5698 158.557 85.3198 159.424C86.058 160.291 86.6264 161.316 87.0248 162.5C87.4233 163.672 87.6225 164.943 87.6225 166.314V166.701C87.6225 168.072 87.4233 169.344 87.0248 170.516C86.6264 171.688 86.058 172.707 85.3198 173.574C84.5698 174.441 83.6616 175.121 82.5952 175.613C81.5287 176.105 80.3276 176.352 78.9916 176.352C77.644 176.352 76.4311 176.105 75.353 175.613C74.2866 175.121 73.3842 174.441 72.6459 173.574C71.8959 172.707 71.3217 171.688 70.9233 170.516C70.5248 169.344 70.3256 168.072 70.3256 166.701V166.314ZM73.5776 166.701C73.5776 167.639 73.6889 168.535 73.9116 169.391C74.1342 170.234 74.4741 170.979 74.9311 171.623C75.3764 172.268 75.9389 172.777 76.6186 173.152C77.2983 173.527 78.0893 173.715 78.9916 173.715C79.8823 173.715 80.6616 173.527 81.3295 173.152C82.0092 172.777 82.5776 172.268 83.0346 171.623C83.4799 170.979 83.8139 170.234 84.0366 169.391C84.2592 168.535 84.3705 167.639 84.3705 166.701V166.314C84.3705 165.389 84.2534 164.504 84.019 163.66C83.7963 162.805 83.4623 162.055 83.017 161.41C82.56 160.766 81.9916 160.256 81.312 159.881C80.644 159.494 79.8588 159.301 78.9565 159.301C78.0541 159.301 77.269 159.494 76.601 159.881C75.933 160.256 75.3764 160.766 74.9311 161.41C74.4741 162.055 74.1342 162.805 73.9116 163.66C73.6889 164.504 73.5776 165.389 73.5776 166.314V166.701ZM96.2723 176V159.494H91.0341V156.98H96.2723V155.645C96.2723 154.426 96.4481 153.359 96.7997 152.445C97.163 151.52 97.6727 150.746 98.329 150.125C98.9735 149.504 99.7528 149.035 100.667 148.719C101.581 148.402 102.6 148.244 103.725 148.244C104.194 148.244 104.657 148.273 105.114 148.332C105.571 148.379 106.022 148.443 106.468 148.525C106.761 148.584 107.054 148.648 107.347 148.719C107.64 148.777 107.938 148.848 108.243 148.93L107.856 151.619C107.376 151.455 106.813 151.314 106.169 151.197C105.536 151.068 104.856 151.004 104.13 151.004C103.391 151.004 102.735 151.098 102.161 151.285C101.599 151.461 101.13 151.73 100.755 152.094C100.356 152.469 100.052 152.955 99.8407 153.553C99.6415 154.15 99.5419 154.848 99.5419 155.645V156.98H106.872V159.494H99.5419V176H96.2723ZM119.301 152.375V156.98H126.543V159.494H119.301V169.83C119.301 170.568 119.395 171.178 119.582 171.658C119.77 172.139 120.028 172.52 120.356 172.801C120.684 173.094 121.059 173.299 121.481 173.416C121.914 173.533 122.371 173.592 122.852 173.592C123.203 173.592 123.567 173.574 123.942 173.539C124.317 173.492 124.686 173.439 125.049 173.381C125.401 173.322 125.729 173.264 126.034 173.205C126.35 173.135 126.608 173.076 126.807 173.029L127.264 175.332C126.994 175.496 126.666 175.643 126.28 175.771C125.893 175.889 125.471 175.988 125.014 176.07C124.557 176.164 124.071 176.234 123.555 176.281C123.051 176.328 122.547 176.352 122.043 176.352C121.2 176.352 120.409 176.234 119.67 176C118.944 175.754 118.311 175.367 117.772 174.84C117.233 174.324 116.805 173.656 116.489 172.836C116.184 172.004 116.032 171.002 116.032 169.83V159.494H111.039V156.98H116.032V152.375H119.301ZM133.611 176L129.568 156.98H132.451L134.666 169.109L135.052 171.834L135.527 169.109L138.568 156.98H140.66L143.683 169.109L144.193 172.098L144.668 169.109L146.777 156.98H149.66L145.617 176H143.051L140.08 164.346L139.588 161.393L139.113 164.346L136.177 176H133.611ZM164.462 176C164.333 175.754 164.228 175.449 164.146 175.086C164.075 174.711 164.023 174.324 163.988 173.926C163.659 174.254 163.29 174.564 162.88 174.857C162.482 175.15 162.042 175.408 161.562 175.631C161.07 175.854 160.548 176.029 159.997 176.158C159.446 176.287 158.861 176.352 158.239 176.352C157.232 176.352 156.318 176.205 155.497 175.912C154.689 175.619 154.003 175.221 153.441 174.717C152.866 174.225 152.421 173.639 152.105 172.959C151.8 172.268 151.648 171.523 151.648 170.727C151.648 169.684 151.853 168.77 152.263 167.984C152.685 167.199 153.277 166.543 154.038 166.016C154.8 165.5 155.714 165.113 156.78 164.855C157.859 164.598 159.06 164.469 160.384 164.469H163.935V162.975C163.935 162.4 163.829 161.885 163.618 161.428C163.407 160.971 163.109 160.578 162.722 160.25C162.335 159.934 161.861 159.688 161.298 159.512C160.747 159.336 160.126 159.248 159.435 159.248C158.79 159.248 158.21 159.33 157.695 159.494C157.191 159.658 156.763 159.875 156.411 160.145C156.06 160.414 155.784 160.736 155.585 161.111C155.398 161.475 155.304 161.855 155.304 162.254H152.034C152.046 161.562 152.222 160.883 152.562 160.215C152.913 159.547 153.417 158.943 154.073 158.404C154.718 157.877 155.503 157.449 156.429 157.121C157.366 156.793 158.427 156.629 159.611 156.629C160.689 156.629 161.691 156.764 162.616 157.033C163.542 157.291 164.345 157.684 165.025 158.211C165.693 158.75 166.22 159.418 166.607 160.215C166.993 161.012 167.187 161.943 167.187 163.01V171.852C167.187 172.484 167.245 173.158 167.363 173.873C167.48 174.576 167.644 175.191 167.855 175.719V176H164.462ZM158.714 173.521C159.347 173.521 159.939 173.439 160.489 173.275C161.04 173.111 161.544 172.895 162.001 172.625C162.446 172.355 162.833 172.051 163.161 171.711C163.489 171.359 163.747 170.996 163.935 170.621V166.771H160.911C159.786 166.771 158.802 166.871 157.958 167.07C157.126 167.258 156.464 167.551 155.972 167.949C155.62 168.23 155.351 168.564 155.163 168.951C154.988 169.338 154.9 169.777 154.9 170.27C154.9 170.738 154.976 171.172 155.128 171.57C155.292 171.969 155.532 172.309 155.849 172.59C156.165 172.883 156.564 173.111 157.044 173.275C157.525 173.439 158.081 173.521 158.714 173.521ZM184.608 156.629C185.206 156.629 185.827 156.67 186.471 156.752C187.128 156.834 187.62 156.945 187.948 157.086L187.508 160.268C186.876 160.127 186.272 160.027 185.698 159.969C185.135 159.898 184.544 159.863 183.923 159.863C183.126 159.863 182.405 159.963 181.76 160.162C181.116 160.35 180.553 160.631 180.073 161.006C179.639 161.334 179.258 161.738 178.93 162.219C178.614 162.688 178.35 163.215 178.139 163.801V176H174.87V156.98H177.964L178.104 159.529L178.122 160.004C178.895 158.961 179.821 158.141 180.899 157.543C181.989 156.934 183.225 156.629 184.608 156.629ZM200.729 176.352C199.393 176.352 198.162 176.123 197.037 175.666C195.924 175.209 194.969 174.57 194.172 173.75C193.375 172.93 192.754 171.957 192.309 170.832C191.863 169.707 191.641 168.482 191.641 167.158V166.42C191.641 164.885 191.887 163.514 192.379 162.307C192.871 161.088 193.527 160.057 194.348 159.213C195.156 158.381 196.076 157.742 197.107 157.297C198.15 156.852 199.217 156.629 200.307 156.629C201.678 156.629 202.873 156.869 203.893 157.35C204.924 157.818 205.779 158.469 206.459 159.301C207.139 160.145 207.643 161.135 207.971 162.271C208.311 163.408 208.481 164.639 208.481 165.963V167.422H194.893V167.545C194.975 168.471 195.156 169.285 195.438 169.988C195.731 170.691 196.129 171.312 196.633 171.852C197.149 172.426 197.77 172.877 198.496 173.205C199.223 173.533 200.025 173.697 200.904 173.697C202.065 173.697 203.096 173.463 203.998 172.994C204.9 172.525 205.65 171.904 206.248 171.131L208.234 172.678C207.602 173.639 206.652 174.494 205.387 175.244C204.133 175.982 202.58 176.352 200.729 176.352ZM200.307 159.301C199.65 159.301 199.029 159.424 198.443 159.67C197.857 159.904 197.33 160.25 196.861 160.707C196.393 161.176 195.994 161.75 195.666 162.43C195.35 163.098 195.127 163.871 194.998 164.75H205.229V164.592C205.229 164.006 205.117 163.379 204.895 162.711C204.672 162.031 204.361 161.445 203.963 160.953C203.565 160.461 203.061 160.062 202.451 159.758C201.854 159.453 201.139 159.301 200.307 159.301ZM232.354 176V150.406H238.278C239.274 150.418 240.212 150.523 241.091 150.723C241.981 150.91 242.802 151.18 243.552 151.531C244.595 152.012 245.515 152.645 246.311 153.43C247.12 154.203 247.765 155.1 248.245 156.119C248.679 156.986 249.007 157.936 249.229 158.967C249.464 159.998 249.587 161.1 249.599 162.271V164.152C249.599 165.277 249.487 166.344 249.265 167.352C249.054 168.359 248.743 169.285 248.333 170.129C247.911 171.008 247.378 171.805 246.733 172.52C246.089 173.234 245.368 173.844 244.571 174.348C243.727 174.875 242.772 175.279 241.706 175.561C240.651 175.842 239.509 175.988 238.278 176H232.354ZM235.659 153.078V173.346H238.278C239.216 173.334 240.065 173.217 240.827 172.994C241.601 172.771 242.286 172.455 242.884 172.045C243.517 171.623 244.061 171.107 244.519 170.498C244.987 169.877 245.356 169.186 245.626 168.424C245.86 167.803 246.036 167.135 246.153 166.42C246.27 165.693 246.335 164.938 246.347 164.152V162.236C246.335 161.439 246.265 160.678 246.136 159.951C246.019 159.213 245.837 158.527 245.591 157.895C245.274 157.074 244.847 156.336 244.308 155.68C243.78 155.012 243.13 154.473 242.356 154.062C241.806 153.758 241.19 153.523 240.511 153.359C239.831 153.184 239.087 153.09 238.278 153.078H235.659ZM261.272 176.352C259.936 176.352 258.705 176.123 257.58 175.666C256.467 175.209 255.512 174.57 254.715 173.75C253.918 172.93 253.297 171.957 252.852 170.832C252.407 169.707 252.184 168.482 252.184 167.158V166.42C252.184 164.885 252.43 163.514 252.922 162.307C253.414 161.088 254.071 160.057 254.891 159.213C255.7 158.381 256.62 157.742 257.651 157.297C258.694 156.852 259.76 156.629 260.85 156.629C262.221 156.629 263.416 156.869 264.436 157.35C265.467 157.818 266.323 158.469 267.002 159.301C267.682 160.145 268.186 161.135 268.514 162.271C268.854 163.408 269.024 164.639 269.024 165.963V167.422H255.436V167.545C255.518 168.471 255.7 169.285 255.981 169.988C256.274 170.691 256.672 171.312 257.176 171.852C257.692 172.426 258.313 172.877 259.039 173.205C259.766 173.533 260.569 173.697 261.448 173.697C262.608 173.697 263.639 173.463 264.541 172.994C265.444 172.525 266.194 171.904 266.791 171.131L268.778 172.678C268.145 173.639 267.196 174.494 265.93 175.244C264.676 175.982 263.123 176.352 261.272 176.352ZM260.85 159.301C260.194 159.301 259.573 159.424 258.987 159.67C258.401 159.904 257.873 160.25 257.405 160.707C256.936 161.176 256.538 161.75 256.209 162.43C255.893 163.098 255.67 163.871 255.541 164.75H265.772V164.592C265.772 164.006 265.661 163.379 265.438 162.711C265.215 162.031 264.905 161.445 264.506 160.953C264.108 160.461 263.604 160.062 262.995 159.758C262.397 159.453 261.682 159.301 260.85 159.301ZM279.537 176L271.715 156.98H275.055L280.504 171.324L280.803 172.502L281.119 171.324L286.445 156.98H289.767L282.015 176H279.537ZM301.634 176.352C300.298 176.352 299.068 176.123 297.943 175.666C296.829 175.209 295.874 174.57 295.077 173.75C294.281 172.93 293.659 171.957 293.214 170.832C292.769 169.707 292.546 168.482 292.546 167.158V166.42C292.546 164.885 292.792 163.514 293.284 162.307C293.777 161.088 294.433 160.057 295.253 159.213C296.062 158.381 296.982 157.742 298.013 157.297C299.056 156.852 300.122 156.629 301.212 156.629C302.583 156.629 303.779 156.869 304.798 157.35C305.829 157.818 306.685 158.469 307.365 159.301C308.044 160.145 308.548 161.135 308.876 162.271C309.216 163.408 309.386 164.639 309.386 165.963V167.422H295.798V167.545C295.88 168.471 296.062 169.285 296.343 169.988C296.636 170.691 297.034 171.312 297.538 171.852C298.054 172.426 298.675 172.877 299.402 173.205C300.128 173.533 300.931 173.697 301.81 173.697C302.97 173.697 304.001 173.463 304.904 172.994C305.806 172.525 306.556 171.904 307.154 171.131L309.14 172.678C308.507 173.639 307.558 174.494 306.292 175.244C305.038 175.982 303.486 176.352 301.634 176.352ZM301.212 159.301C300.556 159.301 299.935 159.424 299.349 159.67C298.763 159.904 298.236 160.25 297.767 160.707C297.298 161.176 296.9 161.75 296.572 162.43C296.255 163.098 296.033 163.871 295.904 164.75H306.134V164.592C306.134 164.006 306.023 163.379 305.8 162.711C305.577 162.031 305.267 161.445 304.868 160.953C304.47 160.461 303.966 160.062 303.357 159.758C302.759 159.453 302.044 159.301 301.212 159.301ZM313.923 149H323.643V173.188H329.848V176H313.923V173.188H320.391V151.83H313.923V149ZM332.68 166.314C332.68 164.943 332.879 163.672 333.277 162.5C333.676 161.316 334.25 160.291 335 159.424C335.738 158.557 336.641 157.877 337.707 157.385C338.774 156.881 339.975 156.629 341.311 156.629C342.658 156.629 343.865 156.881 344.932 157.385C346.01 157.877 346.924 158.557 347.674 159.424C348.412 160.291 348.981 161.316 349.379 162.5C349.777 163.672 349.977 164.943 349.977 166.314V166.701C349.977 168.072 349.777 169.344 349.379 170.516C348.981 171.688 348.412 172.707 347.674 173.574C346.924 174.441 346.016 175.121 344.949 175.613C343.883 176.105 342.682 176.352 341.346 176.352C339.998 176.352 338.785 176.105 337.707 175.613C336.641 175.121 335.738 174.441 335 173.574C334.25 172.707 333.676 171.688 333.277 170.516C332.879 169.344 332.68 168.072 332.68 166.701V166.314ZM335.932 166.701C335.932 167.639 336.043 168.535 336.266 169.391C336.488 170.234 336.828 170.979 337.285 171.623C337.731 172.268 338.293 172.777 338.973 173.152C339.652 173.527 340.444 173.715 341.346 173.715C342.236 173.715 343.016 173.527 343.684 173.152C344.363 172.777 344.932 172.268 345.389 171.623C345.834 170.979 346.168 170.234 346.391 169.391C346.613 168.535 346.725 167.639 346.725 166.701V166.314C346.725 165.389 346.608 164.504 346.373 163.66C346.151 162.805 345.817 162.055 345.371 161.41C344.914 160.766 344.346 160.256 343.666 159.881C342.998 159.494 342.213 159.301 341.311 159.301C340.408 159.301 339.623 159.494 338.955 159.881C338.287 160.256 337.731 160.766 337.285 161.41C336.828 162.055 336.488 162.805 336.266 163.66C336.043 164.504 335.932 165.389 335.932 166.314V166.701ZM353.757 183.312V156.98H356.728L356.886 159.055C357.144 158.727 357.425 158.434 357.73 158.176C358.035 157.906 358.363 157.678 358.714 157.49C359.207 157.209 359.752 156.998 360.349 156.857C360.959 156.705 361.609 156.629 362.3 156.629C363.519 156.629 364.597 156.869 365.535 157.35C366.472 157.83 367.257 158.498 367.89 159.354C368.523 160.209 369.004 161.234 369.332 162.43C369.66 163.613 369.824 164.914 369.824 166.332V166.701C369.824 168.061 369.66 169.332 369.332 170.516C369.004 171.688 368.523 172.707 367.89 173.574C367.257 174.441 366.472 175.121 365.535 175.613C364.609 176.105 363.548 176.352 362.353 176.352C361.627 176.352 360.947 176.275 360.314 176.123C359.693 175.971 359.13 175.754 358.627 175.473C358.322 175.297 358.035 175.104 357.765 174.893C357.496 174.67 357.244 174.43 357.009 174.172V183.312H353.757ZM366.572 166.332C366.572 165.406 366.466 164.527 366.255 163.695C366.056 162.852 365.746 162.107 365.324 161.463C364.89 160.83 364.345 160.326 363.689 159.951C363.033 159.576 362.248 159.389 361.334 159.389C360.83 159.389 360.361 159.447 359.927 159.564C359.505 159.682 359.125 159.852 358.785 160.074C358.41 160.297 358.076 160.572 357.783 160.9C357.49 161.229 357.232 161.592 357.009 161.99V171.148C357.209 171.5 357.437 171.828 357.695 172.133C357.953 172.438 358.246 172.695 358.574 172.906C358.949 173.152 359.365 173.346 359.822 173.486C360.291 173.627 360.806 173.697 361.369 173.697C362.271 173.697 363.05 173.51 363.707 173.135C364.363 172.748 364.902 172.232 365.324 171.588C365.746 170.943 366.056 170.199 366.255 169.355C366.466 168.512 366.572 167.627 366.572 166.701V166.332ZM382.358 176.352C381.022 176.352 379.792 176.123 378.667 175.666C377.554 175.209 376.599 174.57 375.802 173.75C375.005 172.93 374.384 171.957 373.939 170.832C373.493 169.707 373.271 168.482 373.271 167.158V166.42C373.271 164.885 373.517 163.514 374.009 162.307C374.501 161.088 375.157 160.057 375.978 159.213C376.786 158.381 377.706 157.742 378.737 157.297C379.78 156.852 380.847 156.629 381.937 156.629C383.308 156.629 384.503 156.869 385.522 157.35C386.554 157.818 387.409 158.469 388.089 159.301C388.769 160.145 389.272 161.135 389.601 162.271C389.94 163.408 390.11 164.639 390.11 165.963V167.422H376.522V167.545C376.605 168.471 376.786 169.285 377.067 169.988C377.36 170.691 377.759 171.312 378.263 171.852C378.778 172.426 379.399 172.877 380.126 173.205C380.853 173.533 381.655 173.697 382.534 173.697C383.694 173.697 384.726 173.463 385.628 172.994C386.53 172.525 387.28 171.904 387.878 171.131L389.864 172.678C389.231 173.639 388.282 174.494 387.017 175.244C385.763 175.982 384.21 176.352 382.358 176.352ZM381.937 159.301C381.28 159.301 380.659 159.424 380.073 159.67C379.487 159.904 378.96 160.25 378.491 160.707C378.022 161.176 377.624 161.75 377.296 162.43C376.98 163.098 376.757 163.871 376.628 164.75H386.858V164.592C386.858 164.006 386.747 163.379 386.524 162.711C386.302 162.031 385.991 161.445 385.593 160.953C385.194 160.461 384.69 160.062 384.081 159.758C383.483 159.453 382.769 159.301 381.937 159.301ZM406.6 156.629C407.198 156.629 407.819 156.67 408.463 156.752C409.12 156.834 409.612 156.945 409.94 157.086L409.5 160.268C408.868 160.127 408.264 160.027 407.69 159.969C407.127 159.898 406.536 159.863 405.915 159.863C405.118 159.863 404.397 159.963 403.752 160.162C403.108 160.35 402.545 160.631 402.065 161.006C401.631 161.334 401.25 161.738 400.922 162.219C400.606 162.688 400.342 163.215 400.131 163.801V176H396.862V156.98H399.956L400.096 159.529L400.114 160.004C400.887 158.961 401.813 158.141 402.891 157.543C403.981 156.934 405.217 156.629 406.6 156.629Z" fill="white" fill-opacity="0.7"/>
</svg>
