<svg width="696" height="128" viewBox="0 0 696 128" fill="none" xmlns="http://www.w3.org/2000/svg">
<g clip-path="url(#clip0_1_2)">
<path d="M39.36 4.32V52.416C39.36 58.368 37.536 63.072 33.888 66.528C30.304 69.984 25.568 71.712 19.68 71.712C13.792 71.712 9.024 69.984 5.376 66.528C1.792 63.072 0 58.368 0 52.416H11.04C11.104 55.36 11.84 57.696 13.248 59.424C14.72 61.152 16.864 62.016 19.68 62.016C22.496 62.016 24.64 61.152 26.112 59.424C27.584 57.632 28.32 55.296 28.32 52.416V4.32H39.36Z" fill="#DC985A"/>
<path d="M50.6355 44.352C50.6355 39.04 51.7235 34.336 53.8995 30.24C56.1395 26.144 59.1475 22.976 62.9235 20.736C66.7635 18.432 70.9875 17.28 75.5955 17.28C79.7555 17.28 83.3715 18.112 86.4435 19.776C89.5795 21.376 92.0755 23.392 93.9315 25.824V18.144H104.972V71.04H93.9315V63.168C92.0755 65.664 89.5475 67.744 86.3475 69.408C83.1475 71.072 79.4995 71.904 75.4035 71.904C70.8595 71.904 66.6995 70.752 62.9235 68.448C59.1475 66.08 56.1395 62.816 53.8995 58.656C51.7235 54.432 50.6355 49.664 50.6355 44.352ZM93.9315 44.544C93.9315 40.896 93.1635 37.728 91.6275 35.04C90.1555 32.352 88.2035 30.304 85.7715 28.896C83.3395 27.488 80.7155 26.784 77.8995 26.784C75.0835 26.784 72.4595 27.488 70.0275 28.896C67.5955 30.24 65.6115 32.256 64.0755 34.944C62.6035 37.568 61.8675 40.704 61.8675 44.352C61.8675 48 62.6035 51.2 64.0755 53.952C65.6115 56.704 67.5955 58.816 70.0275 60.288C72.5235 61.696 75.1475 62.4 77.8995 62.4C80.7155 62.4 83.3395 61.696 85.7715 60.288C88.2035 58.88 90.1555 56.832 91.6275 54.144C93.1635 51.392 93.9315 48.192 93.9315 44.544Z" fill="#DC985A"/>
<path d="M180.498 17.28C184.658 17.28 188.37 18.144 191.634 19.872C194.962 21.6 197.554 24.16 199.41 27.552C201.33 30.944 202.29 35.04 202.29 39.84V71.04H191.442V41.472C191.442 36.736 190.258 33.12 187.89 30.624C185.522 28.064 182.29 26.784 178.194 26.784C174.098 26.784 170.834 28.064 168.402 30.624C166.034 33.12 164.85 36.736 164.85 41.472V71.04H154.002V41.472C154.002 36.736 152.818 33.12 150.45 30.624C148.082 28.064 144.85 26.784 140.754 26.784C136.658 26.784 133.394 28.064 130.962 30.624C128.594 33.12 127.41 36.736 127.41 41.472V71.04H116.466V18.144H127.41V24.192C129.202 22.016 131.474 20.32 134.226 19.104C136.978 17.888 139.922 17.28 143.058 17.28C147.282 17.28 151.058 18.176 154.386 19.968C157.714 21.76 160.274 24.352 162.066 27.744C163.666 24.544 166.162 22.016 169.554 20.16C172.946 18.24 176.594 17.28 180.498 17.28Z" fill="#DC985A"/>
<path d="M261.816 43.296C261.816 45.28 261.688 47.072 261.432 48.672H221.016C221.336 52.896 222.904 56.288 225.72 58.848C228.536 61.408 231.992 62.688 236.088 62.688C241.976 62.688 246.136 60.224 248.568 55.296H260.376C258.776 60.16 255.864 64.16 251.64 67.296C247.48 70.368 242.296 71.904 236.088 71.904C231.032 71.904 226.488 70.784 222.456 68.544C218.488 66.24 215.352 63.04 213.048 58.944C210.808 54.784 209.688 49.984 209.688 44.544C209.688 39.104 210.776 34.336 212.952 30.24C215.192 26.08 218.296 22.88 222.264 20.64C226.296 18.4 230.904 17.28 236.088 17.28C241.08 17.28 245.528 18.368 249.432 20.544C253.336 22.72 256.376 25.792 258.552 29.76C260.728 33.664 261.816 38.176 261.816 43.296ZM250.392 39.84C250.328 35.808 248.888 32.576 246.072 30.144C243.256 27.712 239.768 26.496 235.608 26.496C231.832 26.496 228.6 27.712 225.912 30.144C223.224 32.512 221.624 35.744 221.112 39.84H250.392Z" fill="#DC985A"/>
<path d="M288.906 71.904C284.746 71.904 281.002 71.168 277.674 69.696C274.41 68.16 271.818 66.112 269.898 63.552C267.978 60.928 266.954 58.016 266.826 54.816H278.154C278.346 57.056 279.402 58.944 281.322 60.48C283.306 61.952 285.77 62.688 288.714 62.688C291.786 62.688 294.154 62.112 295.818 60.96C297.546 59.744 298.41 58.208 298.41 56.352C298.41 54.368 297.45 52.896 295.53 51.936C293.674 50.976 290.698 49.92 286.602 48.768C282.634 47.68 279.402 46.624 276.906 45.6C274.41 44.576 272.234 43.008 270.378 40.896C268.586 38.784 267.69 36 267.69 32.544C267.69 29.728 268.522 27.168 270.186 24.864C271.85 22.496 274.218 20.64 277.29 19.296C280.426 17.952 284.01 17.28 288.042 17.28C294.058 17.28 298.89 18.816 302.538 21.888C306.25 24.896 308.234 29.024 308.49 34.272H297.546C297.354 31.904 296.394 30.016 294.666 28.608C292.938 27.2 290.602 26.496 287.658 26.496C284.778 26.496 282.57 27.04 281.034 28.128C279.498 29.216 278.73 30.656 278.73 32.448C278.73 33.856 279.242 35.04 280.266 36C281.29 36.96 282.538 37.728 284.01 38.304C285.482 38.816 287.658 39.488 290.538 40.32C294.378 41.344 297.514 42.4 299.946 43.488C302.442 44.512 304.586 46.048 306.378 48.096C308.17 50.144 309.098 52.864 309.162 56.256C309.162 59.264 308.33 61.952 306.666 64.32C305.002 66.688 302.634 68.544 299.562 69.888C296.554 71.232 293.002 71.904 288.906 71.904Z" fill="#DC985A"/>
<path d="M362.149 71.712C357.669 71.712 353.637 70.944 350.053 69.408C346.469 67.808 343.653 65.568 341.605 62.688C339.557 59.808 338.533 56.448 338.533 52.608H350.245C350.501 55.488 351.621 57.856 353.605 59.712C355.653 61.568 358.501 62.496 362.149 62.496C365.925 62.496 368.869 61.6 370.981 59.808C373.093 57.952 374.149 55.584 374.149 52.704C374.149 50.464 373.477 48.64 372.133 47.232C370.853 45.824 369.221 44.736 367.237 43.968C365.317 43.2 362.629 42.368 359.173 41.472C354.821 40.32 351.269 39.168 348.517 38.016C345.829 36.8 343.525 34.944 341.605 32.448C339.685 29.952 338.725 26.624 338.725 22.464C338.725 18.624 339.685 15.264 341.605 12.384C343.525 9.504 346.213 7.296 349.669 5.76C353.125 4.224 357.125 3.456 361.669 3.456C368.133 3.456 373.413 5.088 377.509 8.352C381.669 11.552 383.973 15.968 384.421 21.6H372.325C372.133 19.168 370.981 17.088 368.869 15.36C366.757 13.632 363.973 12.768 360.517 12.768C357.381 12.768 354.821 13.568 352.837 15.168C350.853 16.768 349.861 19.072 349.861 22.08C349.861 24.128 350.469 25.824 351.685 27.168C352.965 28.448 354.565 29.472 356.485 30.24C358.405 31.008 361.029 31.84 364.357 32.736C368.773 33.952 372.357 35.168 375.109 36.384C377.925 37.6 380.293 39.488 382.213 42.048C384.197 44.544 385.189 47.904 385.189 52.128C385.189 55.52 384.261 58.72 382.405 61.728C380.613 64.736 377.957 67.168 374.437 69.024C370.981 70.816 366.885 71.712 362.149 71.712Z" fill="#DC985A"/>
<path d="M422.582 17.28C426.614 17.28 430.198 18.144 433.334 19.872C436.534 21.6 439.03 24.16 440.822 27.552C442.678 30.944 443.606 35.04 443.606 39.84V71.04H432.758V41.472C432.758 36.736 431.574 33.12 429.206 30.624C426.838 28.064 423.606 26.784 419.51 26.784C415.414 26.784 412.15 28.064 409.718 30.624C407.35 33.12 406.166 36.736 406.166 41.472V71.04H395.222V0H406.166V24.288C408.022 22.048 410.358 20.32 413.174 19.104C416.054 17.888 419.19 17.28 422.582 17.28Z" fill="#DC985A"/>
<path d="M451.038 44.352C451.038 39.04 452.126 34.336 454.302 30.24C456.542 26.144 459.55 22.976 463.326 20.736C467.166 18.432 471.39 17.28 475.998 17.28C480.158 17.28 483.774 18.112 486.846 19.776C489.982 21.376 492.478 23.392 494.334 25.824V18.144H505.374V71.04H494.334V63.168C492.478 65.664 489.95 67.744 486.75 69.408C483.55 71.072 479.902 71.904 475.806 71.904C471.262 71.904 467.102 70.752 463.326 68.448C459.55 66.08 456.542 62.816 454.302 58.656C452.126 54.432 451.038 49.664 451.038 44.352ZM494.334 44.544C494.334 40.896 493.566 37.728 492.03 35.04C490.558 32.352 488.606 30.304 486.174 28.896C483.742 27.488 481.118 26.784 478.302 26.784C475.486 26.784 472.862 27.488 470.43 28.896C467.998 30.24 466.014 32.256 464.478 34.944C463.006 37.568 462.27 40.704 462.27 44.352C462.27 48 463.006 51.2 464.478 53.952C466.014 56.704 467.998 58.816 470.43 60.288C472.926 61.696 475.55 62.4 478.302 62.4C481.118 62.4 483.742 61.696 486.174 60.288C488.606 58.88 490.558 56.832 492.03 54.144C493.566 51.392 494.334 48.192 494.334 44.544Z" fill="#DC985A"/>
<path d="M527.812 25.92C529.668 23.488 532.197 21.44 535.397 19.776C538.597 18.112 542.213 17.28 546.245 17.28C550.853 17.28 555.044 18.432 558.82 20.736C562.66 22.976 565.669 26.144 567.845 30.24C570.021 34.336 571.109 39.04 571.109 44.352C571.109 49.664 570.021 54.432 567.845 58.656C565.669 62.816 562.66 66.08 558.82 68.448C555.044 70.752 550.853 71.904 546.245 71.904C542.213 71.904 538.628 71.104 535.492 69.504C532.356 67.84 529.797 65.792 527.812 63.36V96.192V116.5H522.5H516.869V96.192V18.144H527.812V25.92ZM559.973 44.352C559.973 40.704 559.205 37.568 557.669 34.944C556.197 32.256 554.212 30.24 551.716 28.896C549.284 27.488 546.661 26.784 543.845 26.784C541.093 26.784 538.469 27.488 535.973 28.896C533.541 30.304 531.557 32.352 530.021 35.04C528.549 37.728 527.812 40.896 527.812 44.544C527.812 48.192 528.549 51.392 530.021 54.144C531.557 56.832 533.541 58.88 535.973 60.288C538.469 61.696 541.093 62.4 543.845 62.4C546.661 62.4 549.284 61.696 551.716 60.288C554.212 58.816 556.197 56.704 557.669 53.952C559.205 51.2 559.973 48 559.973 44.352Z" fill="#DC985A"/>
<path d="M591.819 27.072V56.352C591.819 58.336 592.267 59.776 593.163 60.672C594.123 61.504 595.723 61.92 597.963 61.92H604.683V71.04H596.043C591.115 71.04 587.339 69.888 584.715 67.584C582.091 65.28 580.779 61.536 580.779 56.352V27.072H574.539V18.144H580.779V4.992H591.819V18.144H604.683V27.072H591.819Z" fill="#DC985A"/>
<path d="M660.37 43.296C660.37 45.28 660.242 47.072 659.986 48.672H619.57C619.89 52.896 621.458 56.288 624.274 58.848C627.09 61.408 630.546 62.688 634.642 62.688C640.53 62.688 644.69 60.224 647.122 55.296H658.93C657.33 60.16 654.418 64.16 650.194 67.296C646.034 70.368 640.85 71.904 634.642 71.904C629.586 71.904 625.042 70.784 621.01 68.544C617.042 66.24 613.906 63.04 611.602 58.944C609.362 54.784 608.242 49.984 608.242 44.544C608.242 39.104 609.33 34.336 611.506 30.24C613.746 26.08 616.85 22.88 620.818 20.64C624.85 18.4 629.458 17.28 634.642 17.28C639.634 17.28 644.082 18.368 647.986 20.544C651.89 22.72 654.93 25.792 657.106 29.76C659.282 33.664 660.37 38.176 660.37 43.296ZM648.946 39.84C648.882 35.808 647.442 32.576 644.626 30.144C641.81 27.712 638.322 26.496 634.162 26.496C630.386 26.496 627.154 27.712 624.466 30.144C621.778 32.512 620.178 35.744 619.666 39.84H648.946Z" fill="#DC985A"/>
<path d="M679.204 25.824C680.804 23.136 682.916 21.056 685.54 19.584C688.228 18.048 691.396 17.28 695.044 17.28V28.608H692.26C687.972 28.608 684.708 29.696 682.468 31.872C680.292 34.048 679.204 37.824 679.204 43.2V71.04H668.26V18.144H679.204V25.824Z" fill="#DC985A"/>
<path d="M75.1703 109.312C75.1703 108.44 74.9685 107.704 74.5648 107.105C74.1742 106.507 73.6664 105.999 73.0414 105.582C72.4164 105.178 71.7263 104.84 70.9711 104.566C70.2289 104.293 69.5128 104.046 68.8227 103.824C67.8201 103.499 66.7979 103.108 65.7563 102.652C64.7276 102.184 63.7901 101.624 62.9438 100.973C62.0844 100.309 61.3813 99.5273 60.8344 98.6289C60.3005 97.7174 60.0336 96.6497 60.0336 95.4258C60.0336 94.2018 60.3005 93.1081 60.8344 92.1445C61.3813 91.181 62.0909 90.3672 62.9633 89.7031C63.8357 89.0391 64.8253 88.5378 65.932 88.1992C67.0388 87.8477 68.1521 87.6719 69.2719 87.6719C70.5089 87.6719 71.7003 87.8802 72.8461 88.2969C73.9919 88.7005 75.0076 89.2734 75.893 90.0156C76.7784 90.7578 77.488 91.6562 78.0219 92.7109C78.5557 93.7656 78.8357 94.944 78.8617 96.2461H75.1508C75.0466 95.4258 74.8448 94.6836 74.5453 94.0195C74.2458 93.3424 73.8487 92.763 73.3539 92.2812C72.8591 91.7995 72.2667 91.4284 71.5766 91.168C70.8995 90.8945 70.1313 90.7578 69.2719 90.7578C68.5818 90.7578 67.9047 90.8555 67.2406 91.0508C66.5896 91.2461 66.0102 91.5391 65.5023 91.9297C64.9815 92.3203 64.5648 92.8021 64.2523 93.375C63.9529 93.9479 63.8031 94.612 63.8031 95.3672C63.8162 96.1875 64.0245 96.8841 64.4281 97.457C64.8318 98.0169 65.3461 98.4922 65.9711 98.8828C66.5831 99.2734 67.2471 99.599 67.9633 99.8594C68.6925 100.12 69.376 100.348 70.0141 100.543C71.0688 100.868 72.1234 101.266 73.1781 101.734C74.2328 102.19 75.1964 102.776 76.0688 103.492C76.9281 104.156 77.6182 104.97 78.1391 105.934C78.6729 106.897 78.9398 108.01 78.9398 109.273C78.9398 110.549 78.6534 111.663 78.0805 112.613C77.5206 113.564 76.7914 114.352 75.893 114.977C74.9945 115.615 73.9789 116.096 72.8461 116.422C71.7133 116.734 70.5805 116.891 69.4477 116.891C68.0935 116.891 66.7589 116.663 65.4438 116.207C64.1417 115.751 63.0089 115.094 62.0453 114.234C61.1859 113.492 60.5023 112.626 59.9945 111.637C59.4997 110.634 59.2328 109.521 59.1938 108.297H62.8852C63.0023 109.182 63.2432 109.97 63.6078 110.66C63.9724 111.337 64.4412 111.91 65.0141 112.379C65.587 112.861 66.2445 113.225 66.9867 113.473C67.7419 113.707 68.5622 113.824 69.4477 113.824C70.1508 113.824 70.8409 113.74 71.518 113.57C72.2081 113.388 72.8201 113.108 73.3539 112.73C73.8878 112.366 74.324 111.904 74.6625 111.344C75.001 110.771 75.1703 110.094 75.1703 109.312ZM81.6953 105.738C81.6953 104.215 81.9167 102.802 82.3594 101.5C82.8021 100.185 83.4401 99.0456 84.2734 98.082C85.0938 97.1185 86.0964 96.3633 87.2813 95.8164C88.4662 95.2565 89.8008 94.9766 91.2852 94.9766C92.7826 94.9766 94.1237 95.2565 95.3086 95.8164C96.5065 96.3633 97.5221 97.1185 98.3555 98.082C99.1758 99.0456 99.8073 100.185 100.25 101.5C100.693 102.802 100.914 104.215 100.914 105.738V106.168C100.914 107.691 100.693 109.104 100.25 110.406C99.8073 111.708 99.1758 112.841 98.3555 113.805C97.5221 114.768 96.513 115.523 95.3281 116.07C94.1432 116.617 92.8086 116.891 91.3242 116.891C89.8268 116.891 88.4792 116.617 87.2813 116.07C86.0964 115.523 85.0938 114.768 84.2734 113.805C83.4401 112.841 82.8021 111.708 82.3594 110.406C81.9167 109.104 81.6953 107.691 81.6953 106.168V105.738ZM85.3086 106.168C85.3086 107.21 85.4323 108.206 85.6797 109.156C85.9271 110.094 86.3047 110.921 86.8125 111.637C87.3073 112.353 87.9323 112.919 88.6875 113.336C89.4427 113.753 90.3216 113.961 91.3242 113.961C92.3138 113.961 93.1797 113.753 93.9219 113.336C94.6771 112.919 95.3086 112.353 95.8164 111.637C96.3112 110.921 96.6823 110.094 96.9297 109.156C97.1771 108.206 97.3008 107.21 97.3008 106.168V105.738C97.3008 104.71 97.1706 103.727 96.9102 102.789C96.6628 101.839 96.2917 101.005 95.7969 100.289C95.2891 99.5729 94.6576 99.0065 93.9024 98.5898C93.1602 98.1602 92.2878 97.9453 91.2852 97.9453C90.2826 97.9453 89.4102 98.1602 88.668 98.5898C87.9258 99.0065 87.3073 99.5729 86.8125 100.289C86.3047 101.005 85.9271 101.839 85.6797 102.789C85.4323 103.727 85.3086 104.71 85.3086 105.738V106.168ZM110.525 116.5V98.1602H104.705V95.3672H110.525V93.8828C110.525 92.5286 110.72 91.3438 111.111 90.3281C111.515 89.2995 112.081 88.4401 112.81 87.75C113.526 87.0599 114.392 86.5391 115.408 86.1875C116.423 85.8359 117.556 85.6602 118.806 85.6602C119.327 85.6602 119.841 85.6927 120.349 85.7578C120.857 85.8099 121.358 85.8815 121.853 85.9727C122.179 86.0378 122.504 86.1094 122.83 86.1875C123.155 86.2526 123.487 86.3307 123.826 86.4219L123.396 89.4102C122.862 89.2279 122.237 89.0716 121.521 88.9414C120.818 88.7982 120.063 88.7266 119.255 88.7266C118.435 88.7266 117.706 88.8307 117.068 89.0391C116.443 89.2344 115.922 89.5339 115.505 89.9375C115.063 90.3542 114.724 90.8945 114.49 91.5586C114.268 92.2227 114.158 92.9974 114.158 93.8828V95.3672H122.302V98.1602H114.158V116.5H110.525ZM136.113 90.25V95.3672H144.159V98.1602H136.113V109.645C136.113 110.465 136.217 111.142 136.425 111.676C136.633 112.21 136.92 112.633 137.284 112.945C137.649 113.271 138.066 113.499 138.534 113.629C139.016 113.759 139.524 113.824 140.058 113.824C140.448 113.824 140.852 113.805 141.269 113.766C141.685 113.714 142.096 113.655 142.499 113.59C142.89 113.525 143.254 113.46 143.593 113.395C143.945 113.316 144.231 113.251 144.452 113.199L144.96 115.758C144.661 115.94 144.296 116.103 143.866 116.246C143.437 116.376 142.968 116.487 142.46 116.578C141.952 116.682 141.412 116.76 140.839 116.812C140.279 116.865 139.719 116.891 139.159 116.891C138.222 116.891 137.343 116.76 136.523 116.5C135.715 116.227 135.012 115.797 134.413 115.211C133.814 114.638 133.339 113.896 132.988 112.984C132.649 112.06 132.48 110.947 132.48 109.645V98.1602H126.933V95.3672H132.48V90.25H136.113ZM152.013 116.5L147.52 95.3672H150.723L153.184 108.844L153.614 111.871L154.141 108.844L157.52 95.3672H159.845L163.204 108.844L163.77 112.164L164.298 108.844L166.641 95.3672H169.845L165.352 116.5H162.501L159.2 103.551L158.653 100.27L158.126 103.551L154.864 116.5H152.013ZM186.291 116.5C186.148 116.227 186.031 115.888 185.94 115.484C185.862 115.068 185.803 114.638 185.764 114.195C185.399 114.56 184.989 114.905 184.534 115.23C184.091 115.556 183.603 115.842 183.069 116.09C182.522 116.337 181.942 116.533 181.33 116.676C180.718 116.819 180.067 116.891 179.377 116.891C178.258 116.891 177.242 116.728 176.33 116.402C175.432 116.077 174.67 115.634 174.045 115.074C173.407 114.527 172.913 113.876 172.561 113.121C172.222 112.353 172.053 111.526 172.053 110.641C172.053 109.482 172.281 108.466 172.737 107.594C173.205 106.721 173.863 105.992 174.709 105.406C175.556 104.833 176.571 104.404 177.756 104.117C178.954 103.831 180.289 103.688 181.76 103.688H185.705V102.027C185.705 101.389 185.588 100.816 185.354 100.309C185.12 99.8008 184.788 99.3646 184.358 99C183.928 98.6484 183.401 98.375 182.776 98.1797C182.164 97.9844 181.474 97.8867 180.705 97.8867C179.989 97.8867 179.345 97.9779 178.772 98.1602C178.212 98.3424 177.737 98.5833 177.346 98.8828C176.955 99.1823 176.649 99.5404 176.428 99.957C176.22 100.361 176.116 100.784 176.116 101.227H172.483C172.496 100.458 172.691 99.7031 173.069 98.9609C173.459 98.2188 174.019 97.5482 174.748 96.9492C175.465 96.3633 176.337 95.888 177.366 95.5234C178.407 95.1589 179.586 94.9766 180.901 94.9766C182.099 94.9766 183.212 95.1263 184.241 95.4258C185.269 95.7122 186.161 96.1484 186.916 96.7344C187.659 97.3333 188.245 98.0755 188.674 98.9609C189.104 99.8464 189.319 100.882 189.319 102.066V111.891C189.319 112.594 189.384 113.342 189.514 114.137C189.644 114.918 189.827 115.602 190.061 116.188V116.5H186.291ZM179.905 113.746C180.608 113.746 181.265 113.655 181.877 113.473C182.489 113.29 183.049 113.049 183.557 112.75C184.052 112.451 184.482 112.112 184.846 111.734C185.211 111.344 185.497 110.94 185.705 110.523V106.246H182.346C181.096 106.246 180.002 106.357 179.065 106.578C178.14 106.786 177.405 107.112 176.858 107.555C176.467 107.867 176.168 108.238 175.959 108.668C175.764 109.098 175.666 109.586 175.666 110.133C175.666 110.654 175.751 111.135 175.92 111.578C176.103 112.021 176.37 112.398 176.721 112.711C177.073 113.036 177.515 113.29 178.049 113.473C178.583 113.655 179.202 113.746 179.905 113.746ZM208.676 94.9766C209.34 94.9766 210.03 95.0221 210.746 95.1133C211.475 95.2044 212.022 95.3281 212.387 95.4844L211.898 99.0195C211.195 98.8633 210.525 98.7526 209.887 98.6875C209.262 98.6094 208.604 98.5703 207.914 98.5703C207.029 98.5703 206.228 98.681 205.512 98.9023C204.796 99.1107 204.171 99.4232 203.637 99.8398C203.155 100.204 202.732 100.654 202.367 101.188C202.016 101.708 201.723 102.294 201.488 102.945V116.5H197.855V95.3672H201.293L201.449 98.1992L201.469 98.7266C202.328 97.5677 203.357 96.6562 204.555 95.9922C205.766 95.3151 207.139 94.9766 208.676 94.9766ZM226.588 116.891C225.103 116.891 223.736 116.637 222.486 116.129C221.249 115.621 220.188 114.911 219.302 114C218.417 113.089 217.727 112.008 217.232 110.758C216.737 109.508 216.49 108.147 216.49 106.676V105.855C216.49 104.15 216.763 102.626 217.31 101.285C217.857 99.931 218.586 98.7852 219.498 97.8477C220.396 96.9232 221.418 96.2135 222.564 95.7188C223.723 95.224 224.908 94.9766 226.119 94.9766C227.642 94.9766 228.97 95.2435 230.103 95.7773C231.249 96.2982 232.199 97.0208 232.955 97.9453C233.71 98.8828 234.27 99.9831 234.634 101.246C235.012 102.509 235.201 103.876 235.201 105.348V106.969H220.103V107.105C220.194 108.134 220.396 109.039 220.709 109.82C221.034 110.602 221.477 111.292 222.037 111.891C222.61 112.529 223.3 113.03 224.107 113.395C224.914 113.759 225.806 113.941 226.783 113.941C228.072 113.941 229.218 113.681 230.22 113.16C231.223 112.639 232.056 111.949 232.72 111.09L234.927 112.809C234.224 113.876 233.17 114.827 231.763 115.66C230.37 116.48 228.645 116.891 226.588 116.891ZM226.119 97.9453C225.39 97.9453 224.699 98.082 224.048 98.3555C223.397 98.6159 222.811 99 222.291 99.5078C221.77 100.029 221.327 100.667 220.963 101.422C220.611 102.164 220.364 103.023 220.22 104H231.588V103.824C231.588 103.173 231.464 102.477 231.216 101.734C230.969 100.979 230.624 100.328 230.181 99.7812C229.739 99.2344 229.179 98.7917 228.502 98.4531C227.838 98.1146 227.043 97.9453 226.119 97.9453ZM261.727 116.5V88.0625H268.309C269.416 88.0755 270.458 88.1927 271.434 88.4141C272.424 88.6224 273.335 88.9219 274.169 89.3125C275.328 89.8464 276.35 90.5495 277.235 91.4219C278.134 92.2812 278.85 93.2773 279.384 94.4102C279.865 95.3737 280.23 96.4284 280.477 97.5742C280.738 98.7201 280.874 99.944 280.888 101.246V103.336C280.888 104.586 280.764 105.771 280.516 106.891C280.282 108.01 279.937 109.039 279.481 109.977C279.013 110.953 278.42 111.839 277.704 112.633C276.988 113.427 276.187 114.104 275.302 114.664C274.364 115.25 273.303 115.699 272.118 116.012C270.946 116.324 269.677 116.487 268.309 116.5H261.727ZM265.399 91.0312V113.551H268.309C269.351 113.538 270.295 113.408 271.141 113.16C272.001 112.913 272.763 112.561 273.427 112.105C274.13 111.637 274.735 111.064 275.243 110.387C275.764 109.697 276.174 108.928 276.473 108.082C276.734 107.392 276.929 106.65 277.059 105.855C277.19 105.048 277.261 104.208 277.274 103.336V101.207C277.261 100.322 277.183 99.4753 277.04 98.668C276.91 97.8477 276.708 97.0859 276.434 96.3828C276.083 95.4714 275.608 94.651 275.009 93.9219C274.423 93.1797 273.7 92.5807 272.841 92.125C272.229 91.7865 271.545 91.526 270.79 91.3438C270.035 91.1484 269.208 91.0443 268.309 91.0312H265.399ZM293.858 116.891C292.373 116.891 291.006 116.637 289.756 116.129C288.519 115.621 287.458 114.911 286.573 114C285.687 113.089 284.997 112.008 284.502 110.758C284.008 109.508 283.76 108.147 283.76 106.676V105.855C283.76 104.15 284.034 102.626 284.58 101.285C285.127 99.931 285.857 98.7852 286.768 97.8477C287.666 96.9232 288.689 96.2135 289.834 95.7188C290.993 95.224 292.178 94.9766 293.389 94.9766C294.913 94.9766 296.241 95.2435 297.373 95.7773C298.519 96.2982 299.47 97.0208 300.225 97.9453C300.98 98.8828 301.54 99.9831 301.905 101.246C302.282 102.509 302.471 103.876 302.471 105.348V106.969H287.373V107.105C287.465 108.134 287.666 109.039 287.979 109.82C288.304 110.602 288.747 111.292 289.307 111.891C289.88 112.529 290.57 113.03 291.377 113.395C292.185 113.759 293.077 113.941 294.053 113.941C295.342 113.941 296.488 113.681 297.491 113.16C298.493 112.639 299.327 111.949 299.991 111.09L302.198 112.809C301.495 113.876 300.44 114.827 299.034 115.66C297.64 116.48 295.915 116.891 293.858 116.891ZM293.389 97.9453C292.66 97.9453 291.97 98.082 291.319 98.3555C290.668 98.6159 290.082 99 289.561 99.5078C289.04 100.029 288.597 100.667 288.233 101.422C287.881 102.164 287.634 103.023 287.491 104H298.858V103.824C298.858 103.173 298.734 102.477 298.487 101.734C298.239 100.979 297.894 100.328 297.452 99.7812C297.009 99.2344 296.449 98.7917 295.772 98.4531C295.108 98.1146 294.314 97.9453 293.389 97.9453ZM314.152 116.5L305.461 95.3672H309.172L315.227 111.305L315.559 112.613L315.91 111.305L321.828 95.3672H325.52L316.906 116.5H314.152ZM338.705 116.891C337.22 116.891 335.853 116.637 334.603 116.129C333.366 115.621 332.305 114.911 331.42 114C330.534 113.089 329.844 112.008 329.349 110.758C328.854 109.508 328.607 108.147 328.607 106.676V105.855C328.607 104.15 328.88 102.626 329.427 101.285C329.974 99.931 330.703 98.7852 331.615 97.8477C332.513 96.9232 333.535 96.2135 334.681 95.7188C335.84 95.224 337.025 94.9766 338.236 94.9766C339.759 94.9766 341.087 95.2435 342.22 95.7773C343.366 96.2982 344.317 97.0208 345.072 97.9453C345.827 98.8828 346.387 99.9831 346.752 101.246C347.129 102.509 347.318 103.876 347.318 105.348V106.969H332.22V107.105C332.311 108.134 332.513 109.039 332.826 109.82C333.151 110.602 333.594 111.292 334.154 111.891C334.727 112.529 335.417 113.03 336.224 113.395C337.032 113.759 337.923 113.941 338.9 113.941C340.189 113.941 341.335 113.681 342.337 113.16C343.34 112.639 344.173 111.949 344.837 111.09L347.045 112.809C346.341 113.876 345.287 114.827 343.88 115.66C342.487 116.48 340.762 116.891 338.705 116.891ZM338.236 97.9453C337.507 97.9453 336.817 98.082 336.166 98.3555C335.515 98.6159 334.929 99 334.408 99.5078C333.887 100.029 333.444 100.667 333.08 101.422C332.728 102.164 332.481 103.023 332.337 104H343.705V103.824C343.705 103.173 343.581 102.477 343.334 101.734C343.086 100.979 342.741 100.328 342.298 99.7812C341.856 99.2344 341.296 98.7917 340.619 98.4531C339.955 98.1146 339.16 97.9453 338.236 97.9453ZM352.359 86.5H363.159V113.375H370.054V116.5H352.359V113.375H359.546V89.6445H352.359V86.5ZM373.2 105.738C373.2 104.215 373.421 102.802 373.864 101.5C374.307 100.185 374.945 99.0456 375.778 98.082C376.598 97.1185 377.601 96.3633 378.786 95.8164C379.971 95.2565 381.305 94.9766 382.79 94.9766C384.287 94.9766 385.628 95.2565 386.813 95.8164C388.011 96.3633 389.027 97.1185 389.86 98.082C390.68 99.0456 391.312 100.185 391.755 101.5C392.197 102.802 392.419 104.215 392.419 105.738V106.168C392.419 107.691 392.197 109.104 391.755 110.406C391.312 111.708 390.68 112.841 389.86 113.805C389.027 114.768 388.018 115.523 386.833 116.07C385.648 116.617 384.313 116.891 382.829 116.891C381.332 116.891 379.984 116.617 378.786 116.07C377.601 115.523 376.598 114.768 375.778 113.805C374.945 112.841 374.307 111.708 373.864 110.406C373.421 109.104 373.2 107.691 373.2 106.168V105.738ZM376.813 106.168C376.813 107.21 376.937 108.206 377.184 109.156C377.432 110.094 377.809 110.921 378.317 111.637C378.812 112.353 379.437 112.919 380.192 113.336C380.947 113.753 381.826 113.961 382.829 113.961C383.819 113.961 384.684 113.753 385.427 113.336C386.182 112.919 386.813 112.353 387.321 111.637C387.816 110.921 388.187 110.094 388.434 109.156C388.682 108.206 388.805 107.21 388.805 106.168V105.738C388.805 104.71 388.675 103.727 388.415 102.789C388.167 101.839 387.796 101.005 387.302 100.289C386.794 99.5729 386.162 99.0065 385.407 98.5898C384.665 98.1602 383.792 97.9453 382.79 97.9453C381.787 97.9453 380.915 98.1602 380.173 98.5898C379.43 99.0065 378.812 99.5729 378.317 100.289C377.809 101.005 377.432 101.839 377.184 102.789C376.937 103.727 376.813 104.71 376.813 105.738V106.168ZM396.62 124.625V95.3672H399.92L400.096 97.6719C400.383 97.3073 400.695 96.9818 401.034 96.6953C401.372 96.3958 401.737 96.1419 402.127 95.9336C402.674 95.6211 403.28 95.3867 403.944 95.2305C404.621 95.0612 405.343 94.9766 406.112 94.9766C407.466 94.9766 408.664 95.2435 409.705 95.7773C410.747 96.3112 411.62 97.0534 412.323 98.0039C413.026 98.9544 413.56 100.094 413.924 101.422C414.289 102.737 414.471 104.182 414.471 105.758V106.168C414.471 107.678 414.289 109.091 413.924 110.406C413.56 111.708 413.026 112.841 412.323 113.805C411.62 114.768 410.747 115.523 409.705 116.07C408.677 116.617 407.498 116.891 406.17 116.891C405.363 116.891 404.608 116.806 403.905 116.637C403.215 116.467 402.59 116.227 402.03 115.914C401.691 115.719 401.372 115.504 401.073 115.27C400.773 115.022 400.493 114.755 400.233 114.469V124.625H396.62ZM410.858 105.758C410.858 104.729 410.741 103.753 410.506 102.828C410.285 101.891 409.94 101.064 409.471 100.348C408.989 99.6445 408.384 99.0846 407.655 98.668C406.926 98.2513 406.053 98.043 405.038 98.043C404.478 98.043 403.957 98.1081 403.475 98.2383C403.006 98.3685 402.583 98.5573 402.205 98.8047C401.789 99.0521 401.418 99.3581 401.092 99.7227C400.767 100.087 400.48 100.491 400.233 100.934V111.109C400.454 111.5 400.708 111.865 400.995 112.203C401.281 112.542 401.607 112.828 401.971 113.062C402.388 113.336 402.85 113.551 403.358 113.707C403.879 113.863 404.452 113.941 405.077 113.941C406.079 113.941 406.945 113.733 407.674 113.316C408.403 112.887 409.002 112.314 409.471 111.598C409.94 110.882 410.285 110.055 410.506 109.117C410.741 108.18 410.858 107.197 410.858 106.168V105.758ZM428.398 116.891C426.914 116.891 425.547 116.637 424.297 116.129C423.06 115.621 421.999 114.911 421.113 114C420.228 113.089 419.538 112.008 419.043 110.758C418.548 109.508 418.301 108.147 418.301 106.676V105.855C418.301 104.15 418.574 102.626 419.121 101.285C419.668 99.931 420.397 98.7852 421.309 97.8477C422.207 96.9232 423.229 96.2135 424.375 95.7188C425.534 95.224 426.719 94.9766 427.93 94.9766C429.453 94.9766 430.781 95.2435 431.914 95.7773C433.06 96.2982 434.01 97.0208 434.766 97.9453C435.521 98.8828 436.081 99.9831 436.445 101.246C436.823 102.509 437.012 103.876 437.012 105.348V106.969H421.914V107.105C422.005 108.134 422.207 109.039 422.52 109.82C422.845 110.602 423.288 111.292 423.848 111.891C424.421 112.529 425.111 113.03 425.918 113.395C426.725 113.759 427.617 113.941 428.594 113.941C429.883 113.941 431.029 113.681 432.031 113.16C433.034 112.639 433.867 111.949 434.531 111.09L436.738 112.809C436.035 113.876 434.98 114.827 433.574 115.66C432.181 116.48 430.456 116.891 428.398 116.891ZM427.93 97.9453C427.201 97.9453 426.51 98.082 425.859 98.3555C425.208 98.6159 424.622 99 424.102 99.5078C423.581 100.029 423.138 100.667 422.773 101.422C422.422 102.164 422.174 103.023 422.031 104H433.398V103.824C433.398 103.173 433.275 102.477 433.027 101.734C432.78 100.979 432.435 100.328 431.992 99.7812C431.549 99.2344 430.99 98.7917 430.312 98.4531C429.648 98.1146 428.854 97.9453 427.93 97.9453ZM455.334 94.9766C455.998 94.9766 456.688 95.0221 457.404 95.1133C458.133 95.2044 458.68 95.3281 459.045 95.4844L458.556 99.0195C457.853 98.8633 457.183 98.7526 456.545 98.6875C455.92 98.6094 455.262 98.5703 454.572 98.5703C453.686 98.5703 452.886 98.681 452.17 98.9023C451.453 99.1107 450.828 99.4232 450.295 99.8398C449.813 100.204 449.39 100.654 449.025 101.188C448.673 101.708 448.38 102.294 448.146 102.945V116.5H444.513V95.3672H447.951L448.107 98.1992L448.127 98.7266C448.986 97.5677 450.015 96.6562 451.212 95.9922C452.423 95.3151 453.797 94.9766 455.334 94.9766Z" fill="white" fill-opacity="0.7"/>
</g>
<defs>
<clipPath id="clip0_1_2">
<rect width="695.044" height="127.5" fill="white"/>
</clipPath>
</defs>
</svg>
