<svg width="696" height="126" viewBox="0 0 696 126" fill="none" xmlns="http://www.w3.org/2000/svg">
<g clip-path="url(#clip0_1_2)">
<path d="M39.36 4.32V52.416C39.36 58.368 37.536 63.072 33.888 66.528C30.304 69.984 25.568 71.712 19.68 71.712C13.792 71.712 9.024 69.984 5.376 66.528C1.792 63.072 0 58.368 0 52.416H11.04C11.104 55.36 11.84 57.696 13.248 59.424C14.72 61.152 16.864 62.016 19.68 62.016C22.496 62.016 24.64 61.152 26.112 59.424C27.584 57.632 28.32 55.296 28.32 52.416V4.32H39.36Z" fill="#DC985A"/>
<path d="M50.6355 44.352C50.6355 39.04 51.7235 34.336 53.8995 30.24C56.1395 26.144 59.1475 22.976 62.9235 20.736C66.7635 18.432 70.9875 17.28 75.5955 17.28C79.7555 17.28 83.3715 18.112 86.4435 19.776C89.5795 21.376 92.0755 23.392 93.9315 25.824V18.144H104.972V71.04H93.9315V63.168C92.0755 65.664 89.5475 67.744 86.3475 69.408C83.1475 71.072 79.4995 71.904 75.4035 71.904C70.8595 71.904 66.6995 70.752 62.9235 68.448C59.1475 66.08 56.1395 62.816 53.8995 58.656C51.7235 54.432 50.6355 49.664 50.6355 44.352ZM93.9315 44.544C93.9315 40.896 93.1635 37.728 91.6275 35.04C90.1555 32.352 88.2035 30.304 85.7715 28.896C83.3395 27.488 80.7155 26.784 77.8995 26.784C75.0835 26.784 72.4595 27.488 70.0275 28.896C67.5955 30.24 65.6115 32.256 64.0755 34.944C62.6035 37.568 61.8675 40.704 61.8675 44.352C61.8675 48 62.6035 51.2 64.0755 53.952C65.6115 56.704 67.5955 58.816 70.0275 60.288C72.5235 61.696 75.1475 62.4 77.8995 62.4C80.7155 62.4 83.3395 61.696 85.7715 60.288C88.2035 58.88 90.1555 56.832 91.6275 54.144C93.1635 51.392 93.9315 48.192 93.9315 44.544Z" fill="#DC985A"/>
<path d="M180.498 17.28C184.658 17.28 188.37 18.144 191.634 19.872C194.962 21.6 197.554 24.16 199.41 27.552C201.33 30.944 202.29 35.04 202.29 39.84V71.04H191.442V41.472C191.442 36.736 190.258 33.12 187.89 30.624C185.522 28.064 182.29 26.784 178.194 26.784C174.098 26.784 170.834 28.064 168.402 30.624C166.034 33.12 164.85 36.736 164.85 41.472V71.04H154.002V41.472C154.002 36.736 152.818 33.12 150.45 30.624C148.082 28.064 144.85 26.784 140.754 26.784C136.658 26.784 133.394 28.064 130.962 30.624C128.594 33.12 127.41 36.736 127.41 41.472V71.04H116.466V18.144H127.41V24.192C129.202 22.016 131.474 20.32 134.226 19.104C136.978 17.888 139.922 17.28 143.058 17.28C147.282 17.28 151.058 18.176 154.386 19.968C157.714 21.76 160.274 24.352 162.066 27.744C163.666 24.544 166.162 22.016 169.554 20.16C172.946 18.24 176.594 17.28 180.498 17.28Z" fill="#DC985A"/>
<path d="M261.816 43.296C261.816 45.28 261.688 47.072 261.432 48.672H221.016C221.336 52.896 222.904 56.288 225.72 58.848C228.536 61.408 231.992 62.688 236.088 62.688C241.976 62.688 246.136 60.224 248.568 55.296H260.376C258.776 60.16 255.864 64.16 251.64 67.296C247.48 70.368 242.296 71.904 236.088 71.904C231.032 71.904 226.488 70.784 222.456 68.544C218.488 66.24 215.352 63.04 213.048 58.944C210.808 54.784 209.688 49.984 209.688 44.544C209.688 39.104 210.776 34.336 212.952 30.24C215.192 26.08 218.296 22.88 222.264 20.64C226.296 18.4 230.904 17.28 236.088 17.28C241.08 17.28 245.528 18.368 249.432 20.544C253.336 22.72 256.376 25.792 258.552 29.76C260.728 33.664 261.816 38.176 261.816 43.296ZM250.392 39.84C250.328 35.808 248.888 32.576 246.072 30.144C243.256 27.712 239.768 26.496 235.608 26.496C231.832 26.496 228.6 27.712 225.912 30.144C223.224 32.512 221.624 35.744 221.112 39.84H250.392Z" fill="#DC985A"/>
<path d="M288.906 71.904C284.746 71.904 281.002 71.168 277.674 69.696C274.41 68.16 271.818 66.112 269.898 63.552C267.978 60.928 266.954 58.016 266.826 54.816H278.154C278.346 57.056 279.402 58.944 281.322 60.48C283.306 61.952 285.77 62.688 288.714 62.688C291.786 62.688 294.154 62.112 295.818 60.96C297.546 59.744 298.41 58.208 298.41 56.352C298.41 54.368 297.45 52.896 295.53 51.936C293.674 50.976 290.698 49.92 286.602 48.768C282.634 47.68 279.402 46.624 276.906 45.6C274.41 44.576 272.234 43.008 270.378 40.896C268.586 38.784 267.69 36 267.69 32.544C267.69 29.728 268.522 27.168 270.186 24.864C271.85 22.496 274.218 20.64 277.29 19.296C280.426 17.952 284.01 17.28 288.042 17.28C294.058 17.28 298.89 18.816 302.538 21.888C306.25 24.896 308.234 29.024 308.49 34.272H297.546C297.354 31.904 296.394 30.016 294.666 28.608C292.938 27.2 290.602 26.496 287.658 26.496C284.778 26.496 282.57 27.04 281.034 28.128C279.498 29.216 278.73 30.656 278.73 32.448C278.73 33.856 279.242 35.04 280.266 36C281.29 36.96 282.538 37.728 284.01 38.304C285.482 38.816 287.658 39.488 290.538 40.32C294.378 41.344 297.514 42.4 299.946 43.488C302.442 44.512 304.586 46.048 306.378 48.096C308.17 50.144 309.098 52.864 309.162 56.256C309.162 59.264 308.33 61.952 306.666 64.32C305.002 66.688 302.634 68.544 299.562 69.888C296.554 71.232 293.002 71.904 288.906 71.904Z" fill="#DC985A"/>
<path d="M362.149 71.712C357.669 71.712 353.637 70.944 350.053 69.408C346.469 67.808 343.653 65.568 341.605 62.688C339.557 59.808 338.533 56.448 338.533 52.608H350.245C350.501 55.488 351.621 57.856 353.605 59.712C355.653 61.568 358.501 62.496 362.149 62.496C365.925 62.496 368.869 61.6 370.981 59.808C373.093 57.952 374.149 55.584 374.149 52.704C374.149 50.464 373.477 48.64 372.133 47.232C370.853 45.824 369.221 44.736 367.237 43.968C365.317 43.2 362.629 42.368 359.173 41.472C354.821 40.32 351.269 39.168 348.517 38.016C345.829 36.8 343.525 34.944 341.605 32.448C339.685 29.952 338.725 26.624 338.725 22.464C338.725 18.624 339.685 15.264 341.605 12.384C343.525 9.504 346.213 7.296 349.669 5.76C353.125 4.224 357.125 3.456 361.669 3.456C368.133 3.456 373.413 5.088 377.509 8.352C381.669 11.552 383.973 15.968 384.421 21.6H372.325C372.133 19.168 370.981 17.088 368.869 15.36C366.757 13.632 363.973 12.768 360.517 12.768C357.381 12.768 354.821 13.568 352.837 15.168C350.853 16.768 349.861 19.072 349.861 22.08C349.861 24.128 350.469 25.824 351.685 27.168C352.965 28.448 354.565 29.472 356.485 30.24C358.405 31.008 361.029 31.84 364.357 32.736C368.773 33.952 372.357 35.168 375.109 36.384C377.925 37.6 380.293 39.488 382.213 42.048C384.197 44.544 385.189 47.904 385.189 52.128C385.189 55.52 384.261 58.72 382.405 61.728C380.613 64.736 377.957 67.168 374.437 69.024C370.981 70.816 366.885 71.712 362.149 71.712Z" fill="#DC985A"/>
<path d="M422.582 17.28C426.614 17.28 430.198 18.144 433.334 19.872C436.534 21.6 439.03 24.16 440.822 27.552C442.678 30.944 443.606 35.04 443.606 39.84V71.04H432.758V41.472C432.758 36.736 431.574 33.12 429.206 30.624C426.838 28.064 423.606 26.784 419.51 26.784C415.414 26.784 412.15 28.064 409.718 30.624C407.35 33.12 406.166 36.736 406.166 41.472V71.04H395.222V0H406.166V24.288C408.022 22.048 410.358 20.32 413.174 19.104C416.054 17.888 419.19 17.28 422.582 17.28Z" fill="#DC985A"/>
<path d="M451.038 44.352C451.038 39.04 452.126 34.336 454.302 30.24C456.542 26.144 459.55 22.976 463.326 20.736C467.166 18.432 471.39 17.28 475.998 17.28C480.158 17.28 483.774 18.112 486.846 19.776C489.982 21.376 492.478 23.392 494.334 25.824V18.144H505.374V71.04H494.334V63.168C492.478 65.664 489.95 67.744 486.75 69.408C483.55 71.072 479.902 71.904 475.806 71.904C471.262 71.904 467.102 70.752 463.326 68.448C459.55 66.08 456.542 62.816 454.302 58.656C452.126 54.432 451.038 49.664 451.038 44.352ZM494.334 44.544C494.334 40.896 493.566 37.728 492.03 35.04C490.558 32.352 488.606 30.304 486.174 28.896C483.742 27.488 481.118 26.784 478.302 26.784C475.486 26.784 472.862 27.488 470.43 28.896C467.998 30.24 466.014 32.256 464.478 34.944C463.006 37.568 462.27 40.704 462.27 44.352C462.27 48 463.006 51.2 464.478 53.952C466.014 56.704 467.998 58.816 470.43 60.288C472.926 61.696 475.55 62.4 478.302 62.4C481.118 62.4 483.742 61.696 486.174 60.288C488.606 58.88 490.558 56.832 492.03 54.144C493.566 51.392 494.334 48.192 494.334 44.544Z" fill="#DC985A"/>
<path d="M527.812 25.92C529.668 23.488 532.197 21.44 535.397 19.776C538.597 18.112 542.213 17.28 546.245 17.28C550.853 17.28 555.044 18.432 558.82 20.736C562.66 22.976 565.669 26.144 567.845 30.24C570.021 34.336 571.109 39.04 571.109 44.352C571.109 49.664 570.021 54.432 567.845 58.656C565.669 62.816 562.66 66.08 558.82 68.448C555.044 70.752 550.853 71.904 546.245 71.904C542.213 71.904 538.628 71.104 535.492 69.504C532.356 67.84 529.797 65.792 527.812 63.36V96.192V122L522.5 126L516.869 122V96.192V18.144H527.812V25.92ZM559.973 44.352C559.973 40.704 559.205 37.568 557.669 34.944C556.197 32.256 554.212 30.24 551.716 28.896C549.284 27.488 546.661 26.784 543.845 26.784C541.093 26.784 538.469 27.488 535.973 28.896C533.541 30.304 531.557 32.352 530.021 35.04C528.549 37.728 527.812 40.896 527.812 44.544C527.812 48.192 528.549 51.392 530.021 54.144C531.557 56.832 533.541 58.88 535.973 60.288C538.469 61.696 541.093 62.4 543.845 62.4C546.661 62.4 549.284 61.696 551.716 60.288C554.212 58.816 556.197 56.704 557.669 53.952C559.205 51.2 559.973 48 559.973 44.352Z" fill="#DC985A"/>
<path d="M591.819 27.072V56.352C591.819 58.336 592.267 59.776 593.163 60.672C594.123 61.504 595.723 61.92 597.963 61.92H604.683V71.04H596.043C591.115 71.04 587.339 69.888 584.715 67.584C582.091 65.28 580.779 61.536 580.779 56.352V27.072H574.539V18.144H580.779V4.992H591.819V18.144H604.683V27.072H591.819Z" fill="#DC985A"/>
<path d="M660.37 43.296C660.37 45.28 660.242 47.072 659.986 48.672H619.57C619.89 52.896 621.458 56.288 624.274 58.848C627.09 61.408 630.546 62.688 634.642 62.688C640.53 62.688 644.69 60.224 647.122 55.296H658.93C657.33 60.16 654.418 64.16 650.194 67.296C646.034 70.368 640.85 71.904 634.642 71.904C629.586 71.904 625.042 70.784 621.01 68.544C617.042 66.24 613.906 63.04 611.602 58.944C609.362 54.784 608.242 49.984 608.242 44.544C608.242 39.104 609.33 34.336 611.506 30.24C613.746 26.08 616.85 22.88 620.818 20.64C624.85 18.4 629.458 17.28 634.642 17.28C639.634 17.28 644.082 18.368 647.986 20.544C651.89 22.72 654.93 25.792 657.106 29.76C659.282 33.664 660.37 38.176 660.37 43.296ZM648.946 39.84C648.882 35.808 647.442 32.576 644.626 30.144C641.81 27.712 638.322 26.496 634.162 26.496C630.386 26.496 627.154 27.712 624.466 30.144C621.778 32.512 620.178 35.744 619.666 39.84H648.946Z" fill="#DC985A"/>
<path d="M679.204 25.824C680.804 23.136 682.916 21.056 685.54 19.584C688.228 18.048 691.396 17.28 695.044 17.28V28.608H692.26C687.972 28.608 684.708 29.696 682.468 31.872C680.292 34.048 679.204 37.824 679.204 43.2V71.04H668.26V18.144H679.204V25.824Z" fill="#DC985A"/>
<path d="M88.5363 111.25C88.5363 110.552 88.3748 109.964 88.0519 109.484C87.7394 109.005 87.3331 108.599 86.8331 108.266C86.3331 107.943 85.781 107.672 85.1769 107.453C84.5831 107.234 84.0102 107.036 83.4581 106.859C82.656 106.599 81.8383 106.286 81.005 105.922C80.1821 105.547 79.4321 105.099 78.755 104.578C78.0675 104.047 77.505 103.422 77.0675 102.703C76.6404 101.974 76.4269 101.12 76.4269 100.141C76.4269 99.1615 76.6404 98.2865 77.0675 97.5156C77.505 96.7448 78.0727 96.0938 78.7706 95.5625C79.4685 95.0312 80.2602 94.6302 81.1456 94.3594C82.031 94.0781 82.9217 93.9375 83.8175 93.9375C84.8071 93.9375 85.7602 94.1042 86.6769 94.4375C87.5935 94.7604 88.406 95.2188 89.1144 95.8125C89.8227 96.4062 90.3904 97.125 90.8175 97.9688C91.2446 98.8125 91.4685 99.7552 91.4894 100.797H88.5206C88.4373 100.141 88.2758 99.5469 88.0363 99.0156C87.7967 98.474 87.479 98.0104 87.0831 97.625C86.6873 97.2396 86.2133 96.9427 85.6613 96.7344C85.1196 96.5156 84.505 96.4062 83.8175 96.4062C83.2654 96.4062 82.7238 96.4844 82.1925 96.6406C81.6717 96.7969 81.2081 97.0312 80.8019 97.3438C80.3852 97.6562 80.0519 98.0417 79.8019 98.5C79.5623 98.9583 79.4425 99.4896 79.4425 100.094C79.4529 100.75 79.6196 101.307 79.9425 101.766C80.2654 102.214 80.6769 102.594 81.1769 102.906C81.6665 103.219 82.1977 103.479 82.7706 103.688C83.354 103.896 83.9008 104.078 84.4113 104.234C85.255 104.495 86.0988 104.812 86.9425 105.188C87.7863 105.552 88.5571 106.021 89.255 106.594C89.9425 107.125 90.4946 107.776 90.9113 108.547C91.3383 109.318 91.5519 110.208 91.5519 111.219C91.5519 112.24 91.3227 113.13 90.8644 113.891C90.4165 114.651 89.8331 115.281 89.1144 115.781C88.3956 116.292 87.5831 116.677 86.6769 116.938C85.7706 117.188 84.8644 117.312 83.9581 117.312C82.8748 117.312 81.8071 117.13 80.755 116.766C79.7133 116.401 78.8071 115.875 78.0363 115.188C77.3488 114.594 76.8019 113.901 76.3956 113.109C75.9998 112.307 75.7863 111.417 75.755 110.438H78.7081C78.8019 111.146 78.9946 111.776 79.2863 112.328C79.5779 112.87 79.9529 113.328 80.4113 113.703C80.8696 114.089 81.3956 114.38 81.9894 114.578C82.5935 114.766 83.2498 114.859 83.9581 114.859C84.5206 114.859 85.0727 114.792 85.6144 114.656C86.1665 114.51 86.656 114.286 87.0831 113.984C87.5102 113.693 87.8592 113.323 88.13 112.875C88.4008 112.417 88.5363 111.875 88.5363 111.25ZM97.7563 108.391C97.7563 107.172 97.9333 106.042 98.2875 105C98.6417 103.948 99.1521 103.036 99.8188 102.266C100.475 101.495 101.277 100.891 102.225 100.453C103.173 100.005 104.241 99.7812 105.428 99.7812C106.626 99.7812 107.699 100.005 108.647 100.453C109.605 100.891 110.418 101.495 111.084 102.266C111.741 103.036 112.246 103.948 112.6 105C112.954 106.042 113.131 107.172 113.131 108.391V108.734C113.131 109.953 112.954 111.083 112.6 112.125C112.246 113.167 111.741 114.073 111.084 114.844C110.418 115.615 109.61 116.219 108.663 116.656C107.715 117.094 106.647 117.312 105.459 117.312C104.261 117.312 103.183 117.094 102.225 116.656C101.277 116.219 100.475 115.615 99.8188 114.844C99.1521 114.073 98.6417 113.167 98.2875 112.125C97.9333 111.083 97.7563 109.953 97.7563 108.734V108.391ZM100.647 108.734C100.647 109.568 100.746 110.365 100.944 111.125C101.142 111.875 101.444 112.536 101.85 113.109C102.246 113.682 102.746 114.135 103.35 114.469C103.954 114.802 104.657 114.969 105.459 114.969C106.251 114.969 106.944 114.802 107.538 114.469C108.142 114.135 108.647 113.682 109.053 113.109C109.449 112.536 109.746 111.875 109.944 111.125C110.142 110.365 110.241 109.568 110.241 108.734V108.391C110.241 107.568 110.136 106.781 109.928 106.031C109.73 105.271 109.433 104.604 109.038 104.031C108.631 103.458 108.126 103.005 107.522 102.672C106.928 102.328 106.23 102.156 105.428 102.156C104.626 102.156 103.928 102.328 103.334 102.672C102.741 103.005 102.246 103.458 101.85 104.031C101.444 104.604 101.142 105.271 100.944 106.031C100.746 106.781 100.647 107.568 100.647 108.391V108.734ZM124.82 117V102.328H120.164V100.094H124.82V98.9062C124.82 97.8229 124.976 96.875 125.289 96.0625C125.612 95.2396 126.065 94.5521 126.648 94C127.221 93.4479 127.914 93.0312 128.726 92.75C129.539 92.4688 130.445 92.3281 131.445 92.3281C131.862 92.3281 132.273 92.3542 132.679 92.4062C133.086 92.4479 133.487 92.5052 133.883 92.5781C134.143 92.6302 134.403 92.6875 134.664 92.75C134.924 92.8021 135.19 92.8646 135.461 92.9375L135.117 95.3281C134.69 95.1823 134.19 95.0573 133.617 94.9531C133.054 94.8385 132.45 94.7812 131.804 94.7812C131.148 94.7812 130.565 94.8646 130.054 95.0312C129.554 95.1875 129.138 95.4271 128.804 95.75C128.45 96.0833 128.179 96.5156 127.992 97.0469C127.815 97.5781 127.726 98.1979 127.726 98.9062V100.094H134.242V102.328H127.726V117H124.82ZM149.29 96V100.094H155.728V102.328H149.29V111.516C149.29 112.172 149.373 112.714 149.54 113.141C149.707 113.568 149.936 113.906 150.228 114.156C150.519 114.417 150.853 114.599 151.228 114.703C151.613 114.807 152.019 114.859 152.446 114.859C152.759 114.859 153.082 114.844 153.415 114.812C153.748 114.771 154.076 114.724 154.399 114.672C154.712 114.62 155.004 114.568 155.274 114.516C155.556 114.453 155.785 114.401 155.962 114.359L156.368 116.406C156.129 116.552 155.837 116.682 155.493 116.797C155.149 116.901 154.774 116.99 154.368 117.062C153.962 117.146 153.53 117.208 153.071 117.25C152.623 117.292 152.175 117.312 151.728 117.312C150.978 117.312 150.274 117.208 149.618 117C148.972 116.781 148.41 116.438 147.931 115.969C147.451 115.51 147.071 114.917 146.79 114.188C146.519 113.448 146.384 112.557 146.384 111.516V102.328H141.946V100.094H146.384V96H149.29ZM166.01 117L162.416 100.094H164.979L166.948 110.875L167.291 113.297L167.713 110.875L170.416 100.094H172.276L174.963 110.875L175.416 113.531L175.838 110.875L177.713 100.094H180.276L176.682 117H174.401L171.76 106.641L171.323 104.016L170.901 106.641L168.291 117H166.01ZM197.433 117C197.319 116.781 197.225 116.51 197.152 116.188C197.089 115.854 197.043 115.51 197.011 115.156C196.72 115.448 196.391 115.724 196.027 115.984C195.673 116.245 195.282 116.474 194.855 116.672C194.418 116.87 193.954 117.026 193.464 117.141C192.975 117.255 192.454 117.312 191.902 117.312C191.006 117.312 190.194 117.182 189.464 116.922C188.746 116.661 188.136 116.307 187.636 115.859C187.126 115.422 186.73 114.901 186.449 114.297C186.178 113.682 186.043 113.021 186.043 112.312C186.043 111.385 186.225 110.573 186.589 109.875C186.964 109.177 187.49 108.594 188.168 108.125C188.845 107.667 189.657 107.323 190.605 107.094C191.563 106.865 192.631 106.75 193.808 106.75H196.964V105.422C196.964 104.911 196.871 104.453 196.683 104.047C196.496 103.641 196.23 103.292 195.886 103C195.543 102.719 195.121 102.5 194.621 102.344C194.131 102.188 193.579 102.109 192.964 102.109C192.391 102.109 191.876 102.182 191.418 102.328C190.97 102.474 190.589 102.667 190.277 102.906C189.964 103.146 189.72 103.432 189.543 103.766C189.376 104.089 189.293 104.427 189.293 104.781H186.386C186.397 104.167 186.553 103.562 186.855 102.969C187.168 102.375 187.615 101.839 188.199 101.359C188.772 100.891 189.47 100.51 190.293 100.219C191.126 99.9271 192.069 99.7812 193.121 99.7812C194.079 99.7812 194.97 99.901 195.793 100.141C196.615 100.37 197.329 100.719 197.933 101.188C198.527 101.667 198.996 102.26 199.339 102.969C199.683 103.677 199.855 104.505 199.855 105.453V113.312C199.855 113.875 199.907 114.474 200.011 115.109C200.115 115.734 200.261 116.281 200.449 116.75V117H197.433ZM192.324 114.797C192.886 114.797 193.412 114.724 193.902 114.578C194.391 114.432 194.839 114.24 195.246 114C195.641 113.76 195.985 113.49 196.277 113.188C196.569 112.875 196.798 112.552 196.964 112.219V108.797H194.277C193.277 108.797 192.402 108.885 191.652 109.062C190.912 109.229 190.324 109.49 189.886 109.844C189.574 110.094 189.334 110.391 189.168 110.734C189.011 111.078 188.933 111.469 188.933 111.906C188.933 112.323 189.001 112.708 189.136 113.062C189.282 113.417 189.496 113.719 189.777 113.969C190.058 114.229 190.412 114.432 190.839 114.578C191.266 114.724 191.761 114.797 192.324 114.797ZM219.341 99.7812C219.872 99.7812 220.424 99.8177 220.997 99.8906C221.58 99.9635 222.018 100.062 222.309 100.188L221.919 103.016C221.356 102.891 220.82 102.802 220.309 102.75C219.809 102.688 219.283 102.656 218.731 102.656C218.023 102.656 217.382 102.745 216.809 102.922C216.236 103.089 215.736 103.339 215.309 103.672C214.924 103.964 214.585 104.323 214.294 104.75C214.013 105.167 213.778 105.635 213.591 106.156V117H210.684V100.094H213.434L213.559 102.359L213.575 102.781C214.263 101.854 215.085 101.125 216.044 100.594C217.013 100.052 218.111 99.7812 219.341 99.7812ZM237.67 117.312C236.482 117.312 235.389 117.109 234.389 116.703C233.399 116.297 232.55 115.729 231.842 115C231.134 114.271 230.581 113.406 230.186 112.406C229.79 111.406 229.592 110.318 229.592 109.141V108.484C229.592 107.12 229.811 105.901 230.248 104.828C230.686 103.745 231.269 102.828 231.998 102.078C232.717 101.339 233.535 100.771 234.451 100.375C235.378 99.9792 236.326 99.7812 237.295 99.7812C238.514 99.7812 239.576 99.9948 240.482 100.422C241.399 100.839 242.16 101.417 242.764 102.156C243.368 102.906 243.816 103.786 244.107 104.797C244.41 105.807 244.561 106.901 244.561 108.078V109.375H232.482V109.484C232.555 110.307 232.717 111.031 232.967 111.656C233.227 112.281 233.581 112.833 234.029 113.312C234.488 113.823 235.04 114.224 235.686 114.516C236.331 114.807 237.045 114.953 237.826 114.953C238.857 114.953 239.774 114.745 240.576 114.328C241.378 113.911 242.045 113.359 242.576 112.672L244.342 114.047C243.779 114.901 242.936 115.661 241.811 116.328C240.696 116.984 239.316 117.312 237.67 117.312ZM237.295 102.156C236.712 102.156 236.16 102.266 235.639 102.484C235.118 102.693 234.649 103 234.232 103.406C233.816 103.823 233.462 104.333 233.17 104.938C232.889 105.531 232.691 106.219 232.576 107H241.67V106.859C241.67 106.339 241.571 105.781 241.373 105.188C241.175 104.583 240.899 104.062 240.545 103.625C240.191 103.188 239.743 102.833 239.201 102.562C238.67 102.292 238.035 102.156 237.295 102.156ZM273.782 117V94.25H279.047C279.933 94.2604 280.766 94.3542 281.547 94.5312C282.339 94.6979 283.068 94.9375 283.735 95.25C284.662 95.6771 285.48 96.2396 286.188 96.9375C286.907 97.625 287.48 98.4219 287.907 99.3281C288.292 100.099 288.584 100.943 288.782 101.859C288.99 102.776 289.1 103.755 289.11 104.797V106.469C289.11 107.469 289.011 108.417 288.813 109.312C288.626 110.208 288.35 111.031 287.985 111.781C287.61 112.562 287.136 113.271 286.563 113.906C285.99 114.542 285.35 115.083 284.641 115.531C283.891 116 283.042 116.359 282.094 116.609C281.157 116.859 280.141 116.99 279.047 117H273.782ZM276.719 96.625V114.641H279.047C279.881 114.63 280.636 114.526 281.313 114.328C282.001 114.13 282.61 113.849 283.141 113.484C283.704 113.109 284.188 112.651 284.594 112.109C285.011 111.557 285.339 110.943 285.579 110.266C285.787 109.714 285.943 109.12 286.047 108.484C286.152 107.839 286.209 107.167 286.219 106.469V104.766C286.209 104.057 286.146 103.38 286.032 102.734C285.928 102.078 285.766 101.469 285.547 100.906C285.266 100.177 284.886 99.5208 284.407 98.9375C283.938 98.3438 283.36 97.8646 282.672 97.5C282.183 97.2292 281.636 97.0208 281.032 96.875C280.428 96.7188 279.766 96.6354 279.047 96.625H276.719ZM303.486 117.312C302.299 117.312 301.205 117.109 300.205 116.703C299.215 116.297 298.366 115.729 297.658 115C296.95 114.271 296.398 113.406 296.002 112.406C295.606 111.406 295.408 110.318 295.408 109.141V108.484C295.408 107.12 295.627 105.901 296.064 104.828C296.502 103.745 297.085 102.828 297.814 102.078C298.533 101.339 299.351 100.771 300.268 100.375C301.195 99.9792 302.143 99.7812 303.111 99.7812C304.33 99.7812 305.393 99.9948 306.299 100.422C307.215 100.839 307.976 101.417 308.58 102.156C309.184 102.906 309.632 103.786 309.924 104.797C310.226 105.807 310.377 106.901 310.377 108.078V109.375H298.299V109.484C298.372 110.307 298.533 111.031 298.783 111.656C299.044 112.281 299.398 112.833 299.846 113.312C300.304 113.823 300.856 114.224 301.502 114.516C302.148 114.807 302.861 114.953 303.643 114.953C304.674 114.953 305.59 114.745 306.393 114.328C307.195 113.911 307.861 113.359 308.393 112.672L310.158 114.047C309.596 114.901 308.752 115.661 307.627 116.328C306.512 116.984 305.132 117.312 303.486 117.312ZM303.111 102.156C302.528 102.156 301.976 102.266 301.455 102.484C300.934 102.693 300.465 103 300.049 103.406C299.632 103.823 299.278 104.333 298.986 104.938C298.705 105.531 298.507 106.219 298.393 107H307.486V106.859C307.486 106.339 307.387 105.781 307.189 105.188C306.991 104.583 306.715 104.062 306.361 103.625C306.007 103.188 305.559 102.833 305.018 102.562C304.486 102.292 303.851 102.156 303.111 102.156ZM323.722 117L316.769 100.094H319.737L324.581 112.844L324.847 113.891L325.128 112.844L329.862 100.094H332.816L325.925 117H323.722ZM347.364 117.312C346.176 117.312 345.083 117.109 344.083 116.703C343.093 116.297 342.244 115.729 341.536 115C340.827 114.271 340.275 113.406 339.879 112.406C339.484 111.406 339.286 110.318 339.286 109.141V108.484C339.286 107.12 339.504 105.901 339.942 104.828C340.379 103.745 340.963 102.828 341.692 102.078C342.411 101.339 343.228 100.771 344.145 100.375C345.072 99.9792 346.02 99.7812 346.989 99.7812C348.208 99.7812 349.27 99.9948 350.176 100.422C351.093 100.839 351.853 101.417 352.458 102.156C353.062 102.906 353.51 103.786 353.801 104.797C354.103 105.807 354.254 106.901 354.254 108.078V109.375H342.176V109.484C342.249 110.307 342.411 111.031 342.661 111.656C342.921 112.281 343.275 112.833 343.723 113.312C344.181 113.823 344.734 114.224 345.379 114.516C346.025 114.807 346.739 114.953 347.52 114.953C348.551 114.953 349.468 114.745 350.27 114.328C351.072 113.911 351.739 113.359 352.27 112.672L354.036 114.047C353.473 114.901 352.629 115.661 351.504 116.328C350.39 116.984 349.01 117.312 347.364 117.312ZM346.989 102.156C346.405 102.156 345.853 102.266 345.333 102.484C344.812 102.693 344.343 103 343.926 103.406C343.51 103.823 343.155 104.333 342.864 104.938C342.583 105.531 342.385 106.219 342.27 107H351.364V106.859C351.364 106.339 351.265 105.781 351.067 105.188C350.869 104.583 350.593 104.062 350.239 103.625C349.885 103.188 349.437 102.833 348.895 102.562C348.364 102.292 347.728 102.156 346.989 102.156ZM362.287 93H370.927V114.5H376.443V117H362.287V114.5H368.037V95.5156H362.287V93ZM382.96 108.391C382.96 107.172 383.137 106.042 383.491 105C383.845 103.948 384.356 103.036 385.022 102.266C385.679 101.495 386.481 100.891 387.429 100.453C388.377 100.005 389.444 99.7812 390.632 99.7812C391.83 99.7812 392.903 100.005 393.851 100.453C394.809 100.891 395.621 101.495 396.288 102.266C396.944 103.036 397.45 103.948 397.804 105C398.158 106.042 398.335 107.172 398.335 108.391V108.734C398.335 109.953 398.158 111.083 397.804 112.125C397.45 113.167 396.944 114.073 396.288 114.844C395.621 115.615 394.814 116.219 393.866 116.656C392.918 117.094 391.851 117.312 390.663 117.312C389.465 117.312 388.387 117.094 387.429 116.656C386.481 116.219 385.679 115.615 385.022 114.844C384.356 114.073 383.845 113.167 383.491 112.125C383.137 111.083 382.96 109.953 382.96 108.734V108.391ZM385.851 108.734C385.851 109.568 385.95 110.365 386.147 111.125C386.345 111.875 386.647 112.536 387.054 113.109C387.45 113.682 387.95 114.135 388.554 114.469C389.158 114.802 389.861 114.969 390.663 114.969C391.455 114.969 392.147 114.802 392.741 114.469C393.345 114.135 393.851 113.682 394.257 113.109C394.653 112.536 394.95 111.875 395.147 111.125C395.345 110.365 395.444 109.568 395.444 108.734V108.391C395.444 107.568 395.34 106.781 395.132 106.031C394.934 105.271 394.637 104.604 394.241 104.031C393.835 103.458 393.33 103.005 392.726 102.672C392.132 102.328 391.434 102.156 390.632 102.156C389.83 102.156 389.132 102.328 388.538 102.672C387.944 103.005 387.45 103.458 387.054 104.031C386.647 104.604 386.345 105.271 386.147 106.031C385.95 106.781 385.851 107.568 385.851 108.391V108.734ZM405.696 123.5V100.094H408.336L408.477 101.938C408.706 101.646 408.956 101.385 409.227 101.156C409.498 100.917 409.789 100.714 410.102 100.547C410.539 100.297 411.024 100.109 411.555 99.9844C412.097 99.849 412.675 99.7812 413.289 99.7812C414.373 99.7812 415.331 99.9948 416.164 100.422C416.998 100.849 417.696 101.443 418.258 102.203C418.821 102.964 419.248 103.875 419.539 104.938C419.831 105.99 419.977 107.146 419.977 108.406V108.734C419.977 109.943 419.831 111.073 419.539 112.125C419.248 113.167 418.821 114.073 418.258 114.844C417.696 115.615 416.998 116.219 416.164 116.656C415.341 117.094 414.399 117.312 413.336 117.312C412.69 117.312 412.086 117.245 411.524 117.109C410.972 116.974 410.472 116.781 410.024 116.531C409.753 116.375 409.498 116.203 409.258 116.016C409.019 115.818 408.795 115.604 408.586 115.375V123.5H405.696ZM417.086 108.406C417.086 107.583 416.992 106.802 416.805 106.062C416.628 105.312 416.352 104.651 415.977 104.078C415.591 103.516 415.107 103.068 414.524 102.734C413.94 102.401 413.242 102.234 412.43 102.234C411.982 102.234 411.565 102.286 411.18 102.391C410.805 102.495 410.466 102.646 410.164 102.844C409.831 103.042 409.534 103.286 409.274 103.578C409.013 103.87 408.784 104.193 408.586 104.547V112.688C408.763 113 408.966 113.292 409.196 113.562C409.425 113.833 409.685 114.062 409.977 114.25C410.31 114.469 410.68 114.641 411.086 114.766C411.503 114.891 411.961 114.953 412.461 114.953C413.263 114.953 413.956 114.786 414.539 114.453C415.123 114.109 415.602 113.651 415.977 113.078C416.352 112.505 416.628 111.844 416.805 111.094C416.992 110.344 417.086 109.557 417.086 108.734V108.406ZM435.119 117.312C433.931 117.312 432.837 117.109 431.837 116.703C430.848 116.297 429.999 115.729 429.291 115C428.582 114.271 428.03 113.406 427.634 112.406C427.239 111.406 427.041 110.318 427.041 109.141V108.484C427.041 107.12 427.259 105.901 427.697 104.828C428.134 103.745 428.718 102.828 429.447 102.078C430.166 101.339 430.983 100.771 431.9 100.375C432.827 99.9792 433.775 99.7812 434.744 99.7812C435.962 99.7812 437.025 99.9948 437.931 100.422C438.848 100.839 439.608 101.417 440.212 102.156C440.817 102.906 441.265 103.786 441.556 104.797C441.858 105.807 442.009 106.901 442.009 108.078V109.375H429.931V109.484C430.004 110.307 430.166 111.031 430.416 111.656C430.676 112.281 431.03 112.833 431.478 113.312C431.936 113.823 432.489 114.224 433.134 114.516C433.78 114.807 434.494 114.953 435.275 114.953C436.306 114.953 437.223 114.745 438.025 114.328C438.827 113.911 439.494 113.359 440.025 112.672L441.791 114.047C441.228 114.901 440.384 115.661 439.259 116.328C438.145 116.984 436.765 117.312 435.119 117.312ZM434.744 102.156C434.16 102.156 433.608 102.266 433.087 102.484C432.567 102.693 432.098 103 431.681 103.406C431.265 103.823 430.91 104.333 430.619 104.938C430.337 105.531 430.14 106.219 430.025 107H439.119V106.859C439.119 106.339 439.02 105.781 438.822 105.188C438.624 104.583 438.348 104.062 437.994 103.625C437.64 103.188 437.192 102.833 436.65 102.562C436.119 102.292 435.483 102.156 434.744 102.156ZM460.667 99.7812C461.198 99.7812 461.75 99.8177 462.323 99.8906C462.906 99.9635 463.344 100.062 463.636 100.188L463.245 103.016C462.682 102.891 462.146 102.802 461.636 102.75C461.136 102.688 460.61 102.656 460.057 102.656C459.349 102.656 458.709 102.745 458.136 102.922C457.563 103.089 457.063 103.339 456.636 103.672C456.25 103.964 455.912 104.323 455.62 104.75C455.339 105.167 455.104 105.635 454.917 106.156V117H452.011V100.094H454.761L454.886 102.359L454.901 102.781C455.589 101.854 456.412 101.125 457.37 100.594C458.339 100.052 459.438 99.7812 460.667 99.7812Z" fill="white" fill-opacity="0.7"/>
</g>
<defs>
<clipPath id="clip0_1_2">
<rect width="695.044" height="126" fill="white"/>
</clipPath>
</defs>
</svg>
