<svg width="800" height="800" viewBox="0 0 800 800" fill="none" xmlns="http://www.w3.org/2000/svg">
<rect width="800" height="800" fill="#212529"/>
<g clip-path="url(#clip0_18_4)">
<path d="M91.36 341.32V389.416C91.36 395.368 89.536 400.072 85.888 403.528C82.304 406.984 77.568 408.712 71.68 408.712C65.792 408.712 61.024 406.984 57.376 403.528C53.792 400.072 52 395.368 52 389.416H63.04C63.104 392.36 63.84 394.696 65.248 396.424C66.72 398.152 68.864 399.016 71.68 399.016C74.496 399.016 76.64 398.152 78.112 396.424C79.584 394.632 80.32 392.296 80.32 389.416V341.32H91.36Z" fill="#DC985A"/>
<path d="M102.635 381.352C102.635 376.04 103.723 371.336 105.899 367.24C108.139 363.144 111.148 359.976 114.924 357.736C118.764 355.432 122.987 354.28 127.595 354.28C131.755 354.28 135.372 355.112 138.444 356.776C141.58 358.376 144.076 360.392 145.932 362.824V355.144H156.972V408.04H145.932V400.168C144.076 402.664 141.547 404.744 138.347 406.408C135.147 408.072 131.5 408.904 127.404 408.904C122.86 408.904 118.7 407.752 114.924 405.448C111.148 403.08 108.139 399.816 105.899 395.656C103.723 391.432 102.635 386.664 102.635 381.352ZM145.932 381.544C145.932 377.896 145.164 374.728 143.628 372.04C142.156 369.352 140.203 367.304 137.771 365.896C135.339 364.488 132.715 363.784 129.899 363.784C127.083 363.784 124.459 364.488 122.027 365.896C119.595 367.24 117.612 369.256 116.076 371.944C114.604 374.568 113.868 377.704 113.868 381.352C113.868 385 114.604 388.2 116.076 390.952C117.612 393.704 119.595 395.816 122.027 397.288C124.523 398.696 127.147 399.4 129.899 399.4C132.715 399.4 135.339 398.696 137.771 397.288C140.203 395.88 142.156 393.832 143.628 391.144C145.164 388.392 145.932 385.192 145.932 381.544Z" fill="#DC985A"/>
<path d="M232.498 354.28C236.658 354.28 240.37 355.144 243.634 356.872C246.962 358.6 249.554 361.16 251.41 364.552C253.33 367.944 254.29 372.04 254.29 376.84V408.04H243.442V378.472C243.442 373.736 242.258 370.12 239.89 367.624C237.522 365.064 234.29 363.784 230.194 363.784C226.098 363.784 222.834 365.064 220.402 367.624C218.034 370.12 216.85 373.736 216.85 378.472V408.04H206.002V378.472C206.002 373.736 204.818 370.12 202.45 367.624C200.082 365.064 196.85 363.784 192.754 363.784C188.658 363.784 185.394 365.064 182.962 367.624C180.594 370.12 179.41 373.736 179.41 378.472V408.04H168.466V355.144H179.41V361.192C181.202 359.016 183.474 357.32 186.226 356.104C188.978 354.888 191.922 354.28 195.058 354.28C199.282 354.28 203.058 355.176 206.386 356.968C209.714 358.76 212.274 361.352 214.066 364.744C215.666 361.544 218.162 359.016 221.554 357.16C224.946 355.24 228.594 354.28 232.498 354.28Z" fill="#DC985A"/>
<path d="M313.816 380.296C313.816 382.28 313.688 384.072 313.432 385.672H273.016C273.336 389.896 274.904 393.288 277.72 395.848C280.536 398.408 283.992 399.688 288.088 399.688C293.976 399.688 298.136 397.224 300.568 392.296H312.376C310.776 397.16 307.864 401.16 303.64 404.296C299.48 407.368 294.296 408.904 288.088 408.904C283.032 408.904 278.488 407.784 274.456 405.544C270.488 403.24 267.352 400.04 265.048 395.944C262.808 391.784 261.688 386.984 261.688 381.544C261.688 376.104 262.776 371.336 264.952 367.24C267.192 363.08 270.296 359.88 274.264 357.64C278.296 355.4 282.904 354.28 288.088 354.28C293.08 354.28 297.528 355.368 301.432 357.544C305.336 359.72 308.376 362.792 310.552 366.76C312.728 370.664 313.816 375.176 313.816 380.296ZM302.392 376.84C302.328 372.808 300.888 369.576 298.072 367.144C295.256 364.712 291.768 363.496 287.608 363.496C283.832 363.496 280.6 364.712 277.912 367.144C275.224 369.512 273.624 372.744 273.112 376.84H302.392Z" fill="#DC985A"/>
<path d="M340.906 408.904C336.746 408.904 333.002 408.168 329.674 406.696C326.41 405.16 323.818 403.112 321.898 400.552C319.978 397.928 318.954 395.016 318.826 391.816H330.154C330.346 394.056 331.402 395.944 333.322 397.48C335.306 398.952 337.77 399.688 340.714 399.688C343.786 399.688 346.154 399.112 347.818 397.96C349.546 396.744 350.41 395.208 350.41 393.352C350.41 391.368 349.45 389.896 347.53 388.936C345.674 387.976 342.698 386.92 338.602 385.768C334.634 384.68 331.402 383.624 328.906 382.6C326.41 381.576 324.234 380.008 322.378 377.896C320.586 375.784 319.69 373 319.69 369.544C319.69 366.728 320.522 364.168 322.186 361.864C323.85 359.496 326.218 357.64 329.29 356.296C332.426 354.952 336.01 354.28 340.042 354.28C346.058 354.28 350.89 355.816 354.538 358.888C358.25 361.896 360.234 366.024 360.49 371.272H349.546C349.354 368.904 348.394 367.016 346.666 365.608C344.938 364.2 342.602 363.496 339.658 363.496C336.778 363.496 334.57 364.04 333.034 365.128C331.498 366.216 330.73 367.656 330.73 369.448C330.73 370.856 331.242 372.04 332.266 373C333.29 373.96 334.538 374.728 336.01 375.304C337.482 375.816 339.658 376.488 342.538 377.32C346.378 378.344 349.514 379.4 351.946 380.488C354.442 381.512 356.586 383.048 358.378 385.096C360.17 387.144 361.098 389.864 361.162 393.256C361.162 396.264 360.33 398.952 358.666 401.32C357.002 403.688 354.634 405.544 351.562 406.888C348.554 408.232 345.002 408.904 340.906 408.904Z" fill="#DC985A"/>
<path d="M414.149 408.712C409.669 408.712 405.637 407.944 402.053 406.408C398.469 404.808 395.653 402.568 393.605 399.688C391.557 396.808 390.533 393.448 390.533 389.608H402.245C402.501 392.488 403.621 394.856 405.605 396.712C407.653 398.568 410.501 399.496 414.149 399.496C417.925 399.496 420.869 398.6 422.981 396.808C425.093 394.952 426.149 392.584 426.149 389.704C426.149 387.464 425.477 385.64 424.133 384.232C422.853 382.824 421.221 381.736 419.237 380.968C417.317 380.2 414.629 379.368 411.173 378.472C406.821 377.32 403.269 376.168 400.517 375.016C397.829 373.8 395.525 371.944 393.605 369.448C391.685 366.952 390.725 363.624 390.725 359.464C390.725 355.624 391.685 352.264 393.605 349.384C395.525 346.504 398.213 344.296 401.669 342.76C405.125 341.224 409.125 340.456 413.669 340.456C420.133 340.456 425.413 342.088 429.509 345.352C433.669 348.552 435.973 352.968 436.421 358.6H424.325C424.133 356.168 422.981 354.088 420.869 352.36C418.757 350.632 415.973 349.768 412.517 349.768C409.381 349.768 406.821 350.568 404.837 352.168C402.853 353.768 401.861 356.072 401.861 359.08C401.861 361.128 402.469 362.824 403.685 364.168C404.965 365.448 406.565 366.472 408.485 367.24C410.405 368.008 413.029 368.84 416.357 369.736C420.773 370.952 424.357 372.168 427.109 373.384C429.925 374.6 432.293 376.488 434.213 379.048C436.197 381.544 437.189 384.904 437.189 389.128C437.189 392.52 436.261 395.72 434.405 398.728C432.613 401.736 429.957 404.168 426.437 406.024C422.981 407.816 418.885 408.712 414.149 408.712Z" fill="#DC985A"/>
<path d="M474.582 354.28C478.614 354.28 482.198 355.144 485.334 356.872C488.534 358.6 491.03 361.16 492.822 364.552C494.678 367.944 495.606 372.04 495.606 376.84V408.04H484.758V378.472C484.758 373.736 483.574 370.12 481.206 367.624C478.838 365.064 475.606 363.784 471.51 363.784C467.414 363.784 464.15 365.064 461.718 367.624C459.35 370.12 458.166 373.736 458.166 378.472V408.04H447.222V337H458.166V361.288C460.022 359.048 462.358 357.32 465.174 356.104C468.054 354.888 471.19 354.28 474.582 354.28Z" fill="#DC985A"/>
<path d="M503.038 381.352C503.038 376.04 504.126 371.336 506.302 367.24C508.542 363.144 511.55 359.976 515.326 357.736C519.166 355.432 523.39 354.28 527.998 354.28C532.158 354.28 535.774 355.112 538.846 356.776C541.982 358.376 544.478 360.392 546.334 362.824V355.144H557.374V408.04H546.334V400.168C544.478 402.664 541.95 404.744 538.75 406.408C535.55 408.072 531.902 408.904 527.806 408.904C523.262 408.904 519.102 407.752 515.326 405.448C511.55 403.08 508.542 399.816 506.302 395.656C504.126 391.432 503.038 386.664 503.038 381.352ZM546.334 381.544C546.334 377.896 545.566 374.728 544.03 372.04C542.558 369.352 540.606 367.304 538.174 365.896C535.742 364.488 533.118 363.784 530.302 363.784C527.486 363.784 524.862 364.488 522.43 365.896C519.998 367.24 518.014 369.256 516.478 371.944C515.006 374.568 514.27 377.704 514.27 381.352C514.27 385 515.006 388.2 516.478 390.952C518.014 393.704 519.998 395.816 522.43 397.288C524.926 398.696 527.55 399.4 530.302 399.4C533.118 399.4 535.742 398.696 538.174 397.288C540.606 395.88 542.558 393.832 544.03 391.144C545.566 388.392 546.334 385.192 546.334 381.544Z" fill="#DC985A"/>
<path d="M579.812 362.92C581.668 360.488 584.197 358.44 587.397 356.776C590.597 355.112 594.213 354.28 598.245 354.28C602.853 354.28 607.044 355.432 610.82 357.736C614.66 359.976 617.669 363.144 619.845 367.24C622.021 371.336 623.109 376.04 623.109 381.352C623.109 386.664 622.021 391.432 619.845 395.656C617.669 399.816 614.66 403.08 610.82 405.448C607.044 407.752 602.853 408.904 598.245 408.904C594.213 408.904 590.628 408.104 587.492 406.504C584.356 404.84 581.797 402.792 579.812 400.36V433.192V459L574.5 463L568.869 459V433.192V355.144H579.812V362.92ZM611.973 381.352C611.973 377.704 611.205 374.568 609.669 371.944C608.197 369.256 606.212 367.24 603.716 365.896C601.284 364.488 598.661 363.784 595.845 363.784C593.093 363.784 590.469 364.488 587.973 365.896C585.541 367.304 583.557 369.352 582.021 372.04C580.549 374.728 579.812 377.896 579.812 381.544C579.812 385.192 580.549 388.392 582.021 391.144C583.557 393.832 585.541 395.88 587.973 397.288C590.469 398.696 593.093 399.4 595.845 399.4C598.661 399.4 601.284 398.696 603.716 397.288C606.212 395.816 608.197 393.704 609.669 390.952C611.205 388.2 611.973 385 611.973 381.352Z" fill="#DC985A"/>
<path d="M643.819 364.072V393.352C643.819 395.336 644.267 396.776 645.163 397.672C646.123 398.504 647.723 398.92 649.963 398.92H656.683V408.04H648.043C643.115 408.04 639.339 406.888 636.715 404.584C634.091 402.28 632.779 398.536 632.779 393.352V364.072H626.539V355.144H632.779V341.992H643.819V355.144H656.683V364.072H643.819Z" fill="#DC985A"/>
<path d="M712.37 380.296C712.37 382.28 712.242 384.072 711.986 385.672H671.57C671.89 389.896 673.458 393.288 676.274 395.848C679.09 398.408 682.546 399.688 686.642 399.688C692.53 399.688 696.69 397.224 699.122 392.296H710.93C709.33 397.16 706.418 401.16 702.194 404.296C698.034 407.368 692.85 408.904 686.642 408.904C681.586 408.904 677.042 407.784 673.01 405.544C669.042 403.24 665.906 400.04 663.602 395.944C661.362 391.784 660.242 386.984 660.242 381.544C660.242 376.104 661.33 371.336 663.506 367.24C665.746 363.08 668.85 359.88 672.818 357.64C676.85 355.4 681.458 354.28 686.642 354.28C691.634 354.28 696.082 355.368 699.986 357.544C703.89 359.72 706.93 362.792 709.106 366.76C711.282 370.664 712.37 375.176 712.37 380.296ZM700.946 376.84C700.882 372.808 699.442 369.576 696.626 367.144C693.81 364.712 690.322 363.496 686.162 363.496C682.386 363.496 679.154 364.712 676.466 367.144C673.778 369.512 672.178 372.744 671.666 376.84H700.946Z" fill="#DC985A"/>
<path d="M731.204 362.824C732.804 360.136 734.916 358.056 737.54 356.584C740.228 355.048 743.396 354.28 747.044 354.28V365.608H744.26C739.972 365.608 736.708 366.696 734.468 368.872C732.292 371.048 731.204 374.824 731.204 380.2V408.04H720.26V355.144H731.204V362.824Z" fill="#DC985A"/>
<path d="M140.536 448.25C140.536 447.552 140.375 446.964 140.052 446.484C139.739 446.005 139.333 445.599 138.833 445.266C138.333 444.943 137.781 444.672 137.177 444.453C136.583 444.234 136.01 444.036 135.458 443.859C134.656 443.599 133.838 443.286 133.005 442.922C132.182 442.547 131.432 442.099 130.755 441.578C130.068 441.047 129.505 440.422 129.068 439.703C128.64 438.974 128.427 438.12 128.427 437.141C128.427 436.161 128.64 435.286 129.068 434.516C129.505 433.745 130.073 433.094 130.771 432.562C131.469 432.031 132.26 431.63 133.146 431.359C134.031 431.078 134.922 430.938 135.818 430.938C136.807 430.938 137.76 431.104 138.677 431.438C139.594 431.76 140.406 432.219 141.114 432.812C141.823 433.406 142.39 434.125 142.818 434.969C143.245 435.812 143.469 436.755 143.489 437.797H140.521C140.437 437.141 140.276 436.547 140.036 436.016C139.797 435.474 139.479 435.01 139.083 434.625C138.687 434.24 138.213 433.943 137.661 433.734C137.12 433.516 136.505 433.406 135.818 433.406C135.265 433.406 134.724 433.484 134.193 433.641C133.672 433.797 133.208 434.031 132.802 434.344C132.385 434.656 132.052 435.042 131.802 435.5C131.562 435.958 131.443 436.49 131.443 437.094C131.453 437.75 131.62 438.307 131.943 438.766C132.265 439.214 132.677 439.594 133.177 439.906C133.666 440.219 134.198 440.479 134.771 440.688C135.354 440.896 135.901 441.078 136.411 441.234C137.255 441.495 138.099 441.812 138.943 442.188C139.786 442.552 140.557 443.021 141.255 443.594C141.943 444.125 142.495 444.776 142.911 445.547C143.338 446.318 143.552 447.208 143.552 448.219C143.552 449.24 143.323 450.13 142.864 450.891C142.416 451.651 141.833 452.281 141.114 452.781C140.396 453.292 139.583 453.677 138.677 453.938C137.771 454.188 136.864 454.312 135.958 454.312C134.875 454.312 133.807 454.13 132.755 453.766C131.713 453.401 130.807 452.875 130.036 452.188C129.349 451.594 128.802 450.901 128.396 450.109C128 449.307 127.786 448.417 127.755 447.438H130.708C130.802 448.146 130.995 448.776 131.286 449.328C131.578 449.87 131.953 450.328 132.411 450.703C132.87 451.089 133.396 451.38 133.989 451.578C134.594 451.766 135.25 451.859 135.958 451.859C136.521 451.859 137.073 451.792 137.614 451.656C138.166 451.51 138.656 451.286 139.083 450.984C139.51 450.693 139.859 450.323 140.13 449.875C140.401 449.417 140.536 448.875 140.536 448.25ZM149.756 445.391C149.756 444.172 149.933 443.042 150.288 442C150.642 440.948 151.152 440.036 151.819 439.266C152.475 438.495 153.277 437.891 154.225 437.453C155.173 437.005 156.241 436.781 157.428 436.781C158.626 436.781 159.699 437.005 160.647 437.453C161.605 437.891 162.418 438.495 163.084 439.266C163.741 440.036 164.246 440.948 164.6 442C164.954 443.042 165.131 444.172 165.131 445.391V445.734C165.131 446.953 164.954 448.083 164.6 449.125C164.246 450.167 163.741 451.073 163.084 451.844C162.418 452.615 161.61 453.219 160.663 453.656C159.715 454.094 158.647 454.312 157.459 454.312C156.261 454.312 155.183 454.094 154.225 453.656C153.277 453.219 152.475 452.615 151.819 451.844C151.152 451.073 150.642 450.167 150.288 449.125C149.933 448.083 149.756 446.953 149.756 445.734V445.391ZM152.647 445.734C152.647 446.568 152.746 447.365 152.944 448.125C153.142 448.875 153.444 449.536 153.85 450.109C154.246 450.682 154.746 451.135 155.35 451.469C155.954 451.802 156.657 451.969 157.459 451.969C158.251 451.969 158.944 451.802 159.538 451.469C160.142 451.135 160.647 450.682 161.053 450.109C161.449 449.536 161.746 448.875 161.944 448.125C162.142 447.365 162.241 446.568 162.241 445.734V445.391C162.241 444.568 162.136 443.781 161.928 443.031C161.73 442.271 161.433 441.604 161.038 441.031C160.631 440.458 160.126 440.005 159.522 439.672C158.928 439.328 158.23 439.156 157.428 439.156C156.626 439.156 155.928 439.328 155.334 439.672C154.741 440.005 154.246 440.458 153.85 441.031C153.444 441.604 153.142 442.271 152.944 443.031C152.746 443.781 152.647 444.568 152.647 445.391V445.734ZM176.82 454V439.328H172.164V437.094H176.82V435.906C176.82 434.823 176.976 433.875 177.289 433.062C177.612 432.24 178.065 431.552 178.648 431C179.221 430.448 179.914 430.031 180.726 429.75C181.539 429.469 182.445 429.328 183.445 429.328C183.862 429.328 184.273 429.354 184.679 429.406C185.086 429.448 185.487 429.505 185.883 429.578C186.143 429.63 186.403 429.688 186.664 429.75C186.924 429.802 187.19 429.865 187.461 429.938L187.117 432.328C186.69 432.182 186.19 432.057 185.617 431.953C185.054 431.839 184.45 431.781 183.804 431.781C183.148 431.781 182.565 431.865 182.054 432.031C181.554 432.188 181.138 432.427 180.804 432.75C180.45 433.083 180.179 433.516 179.992 434.047C179.815 434.578 179.726 435.198 179.726 435.906V437.094H186.242V439.328H179.726V454H176.82ZM201.29 433V437.094H207.728V439.328H201.29V448.516C201.29 449.172 201.373 449.714 201.54 450.141C201.707 450.568 201.936 450.906 202.228 451.156C202.519 451.417 202.853 451.599 203.228 451.703C203.613 451.807 204.019 451.859 204.446 451.859C204.759 451.859 205.082 451.844 205.415 451.812C205.748 451.771 206.076 451.724 206.399 451.672C206.712 451.62 207.004 451.568 207.274 451.516C207.556 451.453 207.785 451.401 207.962 451.359L208.368 453.406C208.129 453.552 207.837 453.682 207.493 453.797C207.149 453.901 206.774 453.99 206.368 454.062C205.962 454.146 205.53 454.208 205.071 454.25C204.623 454.292 204.175 454.312 203.728 454.312C202.978 454.312 202.274 454.208 201.618 454C200.972 453.781 200.41 453.438 199.931 452.969C199.451 452.51 199.071 451.917 198.79 451.188C198.519 450.448 198.384 449.557 198.384 448.516V439.328H193.946V437.094H198.384V433H201.29ZM218.01 454L214.416 437.094H216.979L218.948 447.875L219.291 450.297L219.713 447.875L222.416 437.094H224.276L226.963 447.875L227.416 450.531L227.838 447.875L229.713 437.094H232.276L228.682 454H226.401L223.76 443.641L223.323 441.016L222.901 443.641L220.291 454H218.01ZM249.433 454C249.319 453.781 249.225 453.51 249.152 453.188C249.089 452.854 249.043 452.51 249.011 452.156C248.72 452.448 248.391 452.724 248.027 452.984C247.673 453.245 247.282 453.474 246.855 453.672C246.418 453.87 245.954 454.026 245.464 454.141C244.975 454.255 244.454 454.312 243.902 454.312C243.006 454.312 242.194 454.182 241.464 453.922C240.746 453.661 240.136 453.307 239.636 452.859C239.126 452.422 238.73 451.901 238.449 451.297C238.178 450.682 238.043 450.021 238.043 449.312C238.043 448.385 238.225 447.573 238.589 446.875C238.964 446.177 239.49 445.594 240.168 445.125C240.845 444.667 241.657 444.323 242.605 444.094C243.563 443.865 244.631 443.75 245.808 443.75H248.964V442.422C248.964 441.911 248.871 441.453 248.683 441.047C248.496 440.641 248.23 440.292 247.886 440C247.543 439.719 247.121 439.5 246.621 439.344C246.131 439.188 245.579 439.109 244.964 439.109C244.391 439.109 243.876 439.182 243.418 439.328C242.97 439.474 242.589 439.667 242.277 439.906C241.964 440.146 241.72 440.432 241.543 440.766C241.376 441.089 241.293 441.427 241.293 441.781H238.386C238.397 441.167 238.553 440.562 238.855 439.969C239.168 439.375 239.615 438.839 240.199 438.359C240.772 437.891 241.47 437.51 242.293 437.219C243.126 436.927 244.069 436.781 245.121 436.781C246.079 436.781 246.97 436.901 247.793 437.141C248.615 437.37 249.329 437.719 249.933 438.188C250.527 438.667 250.996 439.26 251.339 439.969C251.683 440.677 251.855 441.505 251.855 442.453V450.312C251.855 450.875 251.907 451.474 252.011 452.109C252.115 452.734 252.261 453.281 252.449 453.75V454H249.433ZM244.324 451.797C244.886 451.797 245.412 451.724 245.902 451.578C246.391 451.432 246.839 451.24 247.246 451C247.641 450.76 247.985 450.49 248.277 450.188C248.569 449.875 248.798 449.552 248.964 449.219V445.797H246.277C245.277 445.797 244.402 445.885 243.652 446.062C242.912 446.229 242.324 446.49 241.886 446.844C241.574 447.094 241.334 447.391 241.168 447.734C241.011 448.078 240.933 448.469 240.933 448.906C240.933 449.323 241.001 449.708 241.136 450.062C241.282 450.417 241.496 450.719 241.777 450.969C242.058 451.229 242.412 451.432 242.839 451.578C243.266 451.724 243.761 451.797 244.324 451.797ZM271.341 436.781C271.872 436.781 272.424 436.818 272.997 436.891C273.58 436.964 274.018 437.062 274.309 437.188L273.919 440.016C273.356 439.891 272.82 439.802 272.309 439.75C271.809 439.688 271.283 439.656 270.731 439.656C270.023 439.656 269.382 439.745 268.809 439.922C268.236 440.089 267.736 440.339 267.309 440.672C266.924 440.964 266.585 441.323 266.294 441.75C266.013 442.167 265.778 442.635 265.591 443.156V454H262.684V437.094H265.434L265.559 439.359L265.575 439.781C266.263 438.854 267.085 438.125 268.044 437.594C269.013 437.052 270.111 436.781 271.341 436.781ZM289.67 454.312C288.482 454.312 287.389 454.109 286.389 453.703C285.399 453.297 284.55 452.729 283.842 452C283.134 451.271 282.581 450.406 282.186 449.406C281.79 448.406 281.592 447.318 281.592 446.141V445.484C281.592 444.12 281.811 442.901 282.248 441.828C282.686 440.745 283.269 439.828 283.998 439.078C284.717 438.339 285.535 437.771 286.451 437.375C287.378 436.979 288.326 436.781 289.295 436.781C290.514 436.781 291.576 436.995 292.482 437.422C293.399 437.839 294.16 438.417 294.764 439.156C295.368 439.906 295.816 440.786 296.107 441.797C296.41 442.807 296.561 443.901 296.561 445.078V446.375H284.482V446.484C284.555 447.307 284.717 448.031 284.967 448.656C285.227 449.281 285.581 449.833 286.029 450.312C286.488 450.823 287.04 451.224 287.686 451.516C288.331 451.807 289.045 451.953 289.826 451.953C290.857 451.953 291.774 451.745 292.576 451.328C293.378 450.911 294.045 450.359 294.576 449.672L296.342 451.047C295.779 451.901 294.936 452.661 293.811 453.328C292.696 453.984 291.316 454.312 289.67 454.312ZM289.295 439.156C288.712 439.156 288.16 439.266 287.639 439.484C287.118 439.693 286.649 440 286.232 440.406C285.816 440.823 285.462 441.333 285.17 441.938C284.889 442.531 284.691 443.219 284.576 444H293.67V443.859C293.67 443.339 293.571 442.781 293.373 442.188C293.175 441.583 292.899 441.062 292.545 440.625C292.191 440.188 291.743 439.833 291.201 439.562C290.67 439.292 290.035 439.156 289.295 439.156ZM325.782 454V431.25H331.047C331.933 431.26 332.766 431.354 333.547 431.531C334.339 431.698 335.068 431.938 335.735 432.25C336.662 432.677 337.48 433.24 338.188 433.938C338.907 434.625 339.48 435.422 339.907 436.328C340.292 437.099 340.584 437.943 340.782 438.859C340.99 439.776 341.1 440.755 341.11 441.797V443.469C341.11 444.469 341.011 445.417 340.813 446.312C340.626 447.208 340.35 448.031 339.985 448.781C339.61 449.562 339.136 450.271 338.563 450.906C337.99 451.542 337.35 452.083 336.641 452.531C335.891 453 335.042 453.359 334.094 453.609C333.157 453.859 332.141 453.99 331.047 454H325.782ZM328.719 433.625V451.641H331.047C331.881 451.63 332.636 451.526 333.313 451.328C334.001 451.13 334.61 450.849 335.141 450.484C335.704 450.109 336.188 449.651 336.594 449.109C337.011 448.557 337.339 447.943 337.579 447.266C337.787 446.714 337.943 446.12 338.047 445.484C338.152 444.839 338.209 444.167 338.219 443.469V441.766C338.209 441.057 338.146 440.38 338.032 439.734C337.928 439.078 337.766 438.469 337.547 437.906C337.266 437.177 336.886 436.521 336.407 435.938C335.938 435.344 335.36 434.865 334.672 434.5C334.183 434.229 333.636 434.021 333.032 433.875C332.428 433.719 331.766 433.635 331.047 433.625H328.719ZM355.486 454.312C354.299 454.312 353.205 454.109 352.205 453.703C351.215 453.297 350.366 452.729 349.658 452C348.95 451.271 348.398 450.406 348.002 449.406C347.606 448.406 347.408 447.318 347.408 446.141V445.484C347.408 444.12 347.627 442.901 348.064 441.828C348.502 440.745 349.085 439.828 349.814 439.078C350.533 438.339 351.351 437.771 352.268 437.375C353.195 436.979 354.143 436.781 355.111 436.781C356.33 436.781 357.393 436.995 358.299 437.422C359.215 437.839 359.976 438.417 360.58 439.156C361.184 439.906 361.632 440.786 361.924 441.797C362.226 442.807 362.377 443.901 362.377 445.078V446.375H350.299V446.484C350.372 447.307 350.533 448.031 350.783 448.656C351.044 449.281 351.398 449.833 351.846 450.312C352.304 450.823 352.856 451.224 353.502 451.516C354.148 451.807 354.861 451.953 355.643 451.953C356.674 451.953 357.59 451.745 358.393 451.328C359.195 450.911 359.861 450.359 360.393 449.672L362.158 451.047C361.596 451.901 360.752 452.661 359.627 453.328C358.512 453.984 357.132 454.312 355.486 454.312ZM355.111 439.156C354.528 439.156 353.976 439.266 353.455 439.484C352.934 439.693 352.465 440 352.049 440.406C351.632 440.823 351.278 441.333 350.986 441.938C350.705 442.531 350.507 443.219 350.393 444H359.486V443.859C359.486 443.339 359.387 442.781 359.189 442.188C358.991 441.583 358.715 441.062 358.361 440.625C358.007 440.188 357.559 439.833 357.018 439.562C356.486 439.292 355.851 439.156 355.111 439.156ZM375.722 454L368.769 437.094H371.737L376.581 449.844L376.847 450.891L377.128 449.844L381.862 437.094H384.816L377.925 454H375.722ZM399.364 454.312C398.176 454.312 397.083 454.109 396.083 453.703C395.093 453.297 394.244 452.729 393.536 452C392.827 451.271 392.275 450.406 391.879 449.406C391.484 448.406 391.286 447.318 391.286 446.141V445.484C391.286 444.12 391.504 442.901 391.942 441.828C392.379 440.745 392.963 439.828 393.692 439.078C394.411 438.339 395.228 437.771 396.145 437.375C397.072 436.979 398.02 436.781 398.989 436.781C400.208 436.781 401.27 436.995 402.176 437.422C403.093 437.839 403.853 438.417 404.458 439.156C405.062 439.906 405.51 440.786 405.801 441.797C406.103 442.807 406.254 443.901 406.254 445.078V446.375H394.176V446.484C394.249 447.307 394.411 448.031 394.661 448.656C394.921 449.281 395.275 449.833 395.723 450.312C396.181 450.823 396.734 451.224 397.379 451.516C398.025 451.807 398.739 451.953 399.52 451.953C400.551 451.953 401.468 451.745 402.27 451.328C403.072 450.911 403.739 450.359 404.27 449.672L406.036 451.047C405.473 451.901 404.629 452.661 403.504 453.328C402.39 453.984 401.01 454.312 399.364 454.312ZM398.989 439.156C398.405 439.156 397.853 439.266 397.333 439.484C396.812 439.693 396.343 440 395.926 440.406C395.51 440.823 395.155 441.333 394.864 441.938C394.583 442.531 394.385 443.219 394.27 444H403.364V443.859C403.364 443.339 403.265 442.781 403.067 442.188C402.869 441.583 402.593 441.062 402.239 440.625C401.885 440.188 401.437 439.833 400.895 439.562C400.364 439.292 399.728 439.156 398.989 439.156ZM414.287 430H422.927V451.5H428.443V454H414.287V451.5H420.037V432.516H414.287V430ZM434.96 445.391C434.96 444.172 435.137 443.042 435.491 442C435.845 440.948 436.356 440.036 437.022 439.266C437.679 438.495 438.481 437.891 439.429 437.453C440.377 437.005 441.444 436.781 442.632 436.781C443.83 436.781 444.903 437.005 445.851 437.453C446.809 437.891 447.621 438.495 448.288 439.266C448.944 440.036 449.45 440.948 449.804 442C450.158 443.042 450.335 444.172 450.335 445.391V445.734C450.335 446.953 450.158 448.083 449.804 449.125C449.45 450.167 448.944 451.073 448.288 451.844C447.621 452.615 446.814 453.219 445.866 453.656C444.918 454.094 443.851 454.312 442.663 454.312C441.465 454.312 440.387 454.094 439.429 453.656C438.481 453.219 437.679 452.615 437.022 451.844C436.356 451.073 435.845 450.167 435.491 449.125C435.137 448.083 434.96 446.953 434.96 445.734V445.391ZM437.851 445.734C437.851 446.568 437.95 447.365 438.147 448.125C438.345 448.875 438.647 449.536 439.054 450.109C439.45 450.682 439.95 451.135 440.554 451.469C441.158 451.802 441.861 451.969 442.663 451.969C443.455 451.969 444.147 451.802 444.741 451.469C445.345 451.135 445.851 450.682 446.257 450.109C446.653 449.536 446.95 448.875 447.147 448.125C447.345 447.365 447.444 446.568 447.444 445.734V445.391C447.444 444.568 447.34 443.781 447.132 443.031C446.934 442.271 446.637 441.604 446.241 441.031C445.835 440.458 445.33 440.005 444.726 439.672C444.132 439.328 443.434 439.156 442.632 439.156C441.83 439.156 441.132 439.328 440.538 439.672C439.944 440.005 439.45 440.458 439.054 441.031C438.647 441.604 438.345 442.271 438.147 443.031C437.95 443.781 437.851 444.568 437.851 445.391V445.734ZM457.696 460.5V437.094H460.336L460.477 438.938C460.706 438.646 460.956 438.385 461.227 438.156C461.498 437.917 461.789 437.714 462.102 437.547C462.539 437.297 463.024 437.109 463.555 436.984C464.097 436.849 464.675 436.781 465.289 436.781C466.373 436.781 467.331 436.995 468.164 437.422C468.998 437.849 469.696 438.443 470.258 439.203C470.821 439.964 471.248 440.875 471.539 441.938C471.831 442.99 471.977 444.146 471.977 445.406V445.734C471.977 446.943 471.831 448.073 471.539 449.125C471.248 450.167 470.821 451.073 470.258 451.844C469.696 452.615 468.998 453.219 468.164 453.656C467.341 454.094 466.399 454.312 465.336 454.312C464.69 454.312 464.086 454.245 463.524 454.109C462.972 453.974 462.472 453.781 462.024 453.531C461.753 453.375 461.498 453.203 461.258 453.016C461.019 452.818 460.795 452.604 460.586 452.375V460.5H457.696ZM469.086 445.406C469.086 444.583 468.992 443.802 468.805 443.062C468.628 442.312 468.352 441.651 467.977 441.078C467.591 440.516 467.107 440.068 466.524 439.734C465.94 439.401 465.242 439.234 464.43 439.234C463.982 439.234 463.565 439.286 463.18 439.391C462.805 439.495 462.466 439.646 462.164 439.844C461.831 440.042 461.534 440.286 461.274 440.578C461.013 440.87 460.784 441.193 460.586 441.547V449.688C460.763 450 460.966 450.292 461.196 450.562C461.425 450.833 461.685 451.062 461.977 451.25C462.31 451.469 462.68 451.641 463.086 451.766C463.503 451.891 463.961 451.953 464.461 451.953C465.263 451.953 465.956 451.786 466.539 451.453C467.123 451.109 467.602 450.651 467.977 450.078C468.352 449.505 468.628 448.844 468.805 448.094C468.992 447.344 469.086 446.557 469.086 445.734V445.406ZM487.119 454.312C485.931 454.312 484.837 454.109 483.837 453.703C482.848 453.297 481.999 452.729 481.291 452C480.582 451.271 480.03 450.406 479.634 449.406C479.239 448.406 479.041 447.318 479.041 446.141V445.484C479.041 444.12 479.259 442.901 479.697 441.828C480.134 440.745 480.718 439.828 481.447 439.078C482.166 438.339 482.983 437.771 483.9 437.375C484.827 436.979 485.775 436.781 486.744 436.781C487.962 436.781 489.025 436.995 489.931 437.422C490.848 437.839 491.608 438.417 492.212 439.156C492.817 439.906 493.265 440.786 493.556 441.797C493.858 442.807 494.009 443.901 494.009 445.078V446.375H481.931V446.484C482.004 447.307 482.166 448.031 482.416 448.656C482.676 449.281 483.03 449.833 483.478 450.312C483.936 450.823 484.489 451.224 485.134 451.516C485.78 451.807 486.494 451.953 487.275 451.953C488.306 451.953 489.223 451.745 490.025 451.328C490.827 450.911 491.494 450.359 492.025 449.672L493.791 451.047C493.228 451.901 492.384 452.661 491.259 453.328C490.145 453.984 488.765 454.312 487.119 454.312ZM486.744 439.156C486.16 439.156 485.608 439.266 485.087 439.484C484.567 439.693 484.098 440 483.681 440.406C483.265 440.823 482.91 441.333 482.619 441.938C482.337 442.531 482.14 443.219 482.025 444H491.119V443.859C491.119 443.339 491.02 442.781 490.822 442.188C490.624 441.583 490.348 441.062 489.994 440.625C489.64 440.188 489.192 439.833 488.65 439.562C488.119 439.292 487.483 439.156 486.744 439.156ZM512.667 436.781C513.198 436.781 513.75 436.818 514.323 436.891C514.906 436.964 515.344 437.062 515.636 437.188L515.245 440.016C514.682 439.891 514.146 439.802 513.636 439.75C513.136 439.688 512.61 439.656 512.057 439.656C511.349 439.656 510.709 439.745 510.136 439.922C509.563 440.089 509.063 440.339 508.636 440.672C508.25 440.964 507.912 441.323 507.62 441.75C507.339 442.167 507.104 442.635 506.917 443.156V454H504.011V437.094H506.761L506.886 439.359L506.901 439.781C507.589 438.854 508.412 438.125 509.37 437.594C510.339 437.052 511.438 436.781 512.667 436.781Z" fill="white" fill-opacity="0.7"/>
</g>
<defs>
<clipPath id="clip0_18_4">
<rect width="695.044" height="126" fill="white" transform="translate(52 337)"/>
</clipPath>
</defs>
</svg>
