<svg width="512" height="512" viewBox="0 0 512 512" fill="none" xmlns="http://www.w3.org/2000/svg">
<rect width="512" height="512" fill="#D99D65"/>
<path d="M126.208 176.64C114.603 180.736 105.728 187.221 99.584 196.096C93.6107 204.8 90.624 215.381 90.624 227.84C90.624 233.301 91.2213 238.336 92.416 242.944C93.6107 247.381 95.3173 251.051 97.536 253.952C86.6133 253.952 78.5067 251.733 73.216 247.296C68.096 242.688 65.536 235.691 65.536 226.304C65.536 214.357 69.0347 203.264 76.032 193.024C83.0293 182.613 92.5013 174.336 104.448 168.192C116.395 162.048 129.365 158.976 143.36 158.976C147.285 158.976 150.699 159.232 153.6 159.744C156.501 160.256 159.829 161.195 163.584 162.56L194.304 299.52L222.976 160.512H247.808L206.08 352H170.752L141.056 225.024L111.872 352H87.552L126.208 176.64ZM297.72 356.608C286.968 356.608 277.496 354.731 269.304 350.976C261.112 347.221 254.797 342.016 250.36 335.36C245.923 328.533 243.704 320.683 243.704 311.808C243.704 304.299 245.24 297.472 248.312 291.328C251.555 285.184 255.821 280.32 261.112 276.736C266.573 273.152 272.547 271.36 279.032 271.36C285.005 271.36 290.04 272.896 294.136 275.968C298.232 278.869 300.792 282.965 301.816 288.256C292.941 288.256 285.859 290.645 280.568 295.424C275.277 300.032 272.632 306.347 272.632 314.368C272.632 321.707 274.851 327.595 279.288 332.032C283.725 336.469 289.613 338.688 296.952 338.688C305.997 338.688 313.421 335.701 319.224 329.728C325.197 323.584 328.184 315.904 328.184 306.688C328.184 298.667 325.965 291.072 321.528 283.904C317.091 276.736 310.435 268.032 301.56 257.792C292.344 247.211 285.347 238.165 280.568 230.656C275.96 222.976 273.656 214.613 273.656 205.568C273.656 196.693 276.131 188.757 281.08 181.76C286.029 174.592 292.856 168.96 301.56 164.864C310.264 160.768 320.077 158.72 331 158.72C344.824 158.72 355.832 161.963 364.024 168.448C372.387 174.933 376.568 183.637 376.568 194.56C376.568 201.728 374.776 207.531 371.192 211.968C367.608 216.405 362.915 218.624 357.112 218.624C350.627 218.624 345.421 215.979 341.496 210.688C344.739 208.299 347.299 205.141 349.176 201.216C351.053 197.291 351.992 193.195 351.992 188.928C351.992 183.467 350.371 179.115 347.128 175.872C343.885 172.629 339.448 171.008 333.816 171.008C326.989 171.008 321.357 173.483 316.92 178.432C312.653 183.211 310.52 189.355 310.52 196.864C310.52 203.691 312.483 210.091 316.408 216.064C320.333 221.867 326.477 229.376 334.84 238.592C341.667 245.931 347.128 252.245 351.224 257.536C355.491 262.827 359.075 268.971 361.976 275.968C365.048 282.795 366.584 290.219 366.584 298.24C366.584 309.163 363.512 319.061 357.368 327.936C351.395 336.811 343.117 343.808 332.536 348.928C322.125 354.048 310.52 356.608 297.72 356.608ZM425.544 164.864L464.968 159.488L427.848 292.864H406.088L425.544 164.864ZM409.672 353.536C404.04 353.536 399.176 351.573 395.08 347.648C391.155 343.552 389.192 338.688 389.192 333.056C389.192 327.424 391.155 322.645 395.08 318.72C399.176 314.795 404.04 312.832 409.672 312.832C415.304 312.832 420.083 314.795 424.008 318.72C427.933 322.645 429.896 327.424 429.896 333.056C429.896 338.688 427.933 343.552 424.008 347.648C420.083 351.573 415.304 353.536 409.672 353.536Z" fill="white"/>
</svg>
