<svg width="512" height="512" viewBox="0 0 512 512" fill="none" xmlns="http://www.w3.org/2000/svg">
<rect width="512" height="512" fill="#435E91"/>
<rect x="108.923" y="420.91" width="310.91" height="310.91" rx="37" transform="rotate(-90 108.923 420.91)" fill="#292C31"/>
<path d="M109.317 363.057V332.36H149.853C158.33 332.36 165.202 339.232 165.202 347.708C165.202 356.185 158.33 363.057 149.853 363.057H109.317Z" fill="#1E1E1E"/>
<path d="M109.317 363.057V332.36H149.853C158.33 332.36 165.202 339.232 165.202 347.708C165.202 356.185 158.33 363.057 149.853 363.057H109.317Z" fill="#1E1E1E"/>
<path d="M109.317 281.197V250.5H149.853C158.33 250.5 165.202 257.372 165.202 265.849C165.202 274.325 158.33 281.197 149.853 281.197H109.317Z" fill="#1E1E1E"/>
<path d="M109.317 281.197V250.5H149.853C158.33 250.5 165.202 257.372 165.202 265.849C165.202 274.325 158.33 281.197 149.853 281.197H109.317Z" fill="#1E1E1E"/>
<path d="M109.317 199.337V168.64H149.853C158.33 168.64 165.202 175.512 165.202 183.989C165.202 192.466 158.33 199.337 149.853 199.337H109.317Z" fill="#1E1E1E"/>
<path d="M109.317 199.337V168.64H149.853C158.33 168.64 165.202 175.512 165.202 183.989C165.202 192.466 158.33 199.337 149.853 199.337H109.317Z" fill="#1E1E1E"/>
<rect x="92" y="357.547" width="20.5064" height="68.3546" rx="10.2532" transform="rotate(-90 92 357.547)" fill="#1E1E1E"/>
<rect x="92" y="357.547" width="20.5064" height="68.3546" rx="10.2532" transform="rotate(-90 92 357.547)" fill="#88B2B5"/>
<rect x="92" y="275.687" width="20.5064" height="68.3546" rx="10.2532" transform="rotate(-90 92 275.687)" fill="#1E1E1E"/>
<rect x="92" y="275.687" width="20.5064" height="68.3546" rx="10.2532" transform="rotate(-90 92 275.687)" fill="#88B2B5"/>
<rect x="92" y="193.828" width="20.5064" height="68.3546" rx="10.2532" transform="rotate(-90 92 193.828)" fill="#1E1E1E"/>
<rect x="92" y="193.828" width="20.5064" height="68.3546" rx="10.2532" transform="rotate(-90 92 193.828)" fill="#88B2B5"/>
<path d="M231.544 337.96C226.808 337.96 223.416 336.936 221.368 334.888C219.32 332.712 218.296 328.68 218.296 322.792C218.296 318.824 218.68 314.024 219.448 308.392C220.216 302.76 221.56 294.248 223.48 282.856C223.736 281.32 224.76 275.112 226.552 264.232C228.344 253.224 229.944 241.704 231.352 229.672C232.632 219.432 233.272 211.752 233.272 206.632C233.272 200.872 231.16 197.992 226.936 197.992C223.736 197.992 219.704 199.72 214.84 203.176C210.104 206.504 204.984 211.88 199.48 219.304C197.688 221.736 195.704 222.952 193.528 222.952C191.736 222.952 190.136 222.12 188.728 220.456C187.448 218.664 186.808 216.68 186.808 214.504C186.808 212.328 187.192 210.28 187.96 208.36C188.728 206.312 190.136 203.88 192.184 201.064C198.456 192.488 205.432 185.896 213.112 181.288C220.792 176.552 228.856 174.184 237.304 174.184C244.344 174.184 249.592 176.36 253.048 180.712C256.632 185.064 258.424 191.4 258.424 199.72C258.424 207.144 257.4 217.896 255.352 231.976C261.752 213.032 269.88 198.696 279.736 188.968C289.592 179.112 301.176 174.184 314.488 174.184C324.984 174.184 332.856 177.192 338.104 183.208C343.48 189.096 346.168 197.032 346.168 207.016C346.168 212.648 345.336 219.496 343.672 227.56L331.96 282.472C330.68 288.872 330.04 294.376 330.04 298.984C330.04 304.36 331.256 308.392 333.688 311.08C336.248 313.768 339.768 315.112 344.248 315.112C348.472 315.112 352.568 313.704 356.536 310.888C360.632 308.072 365.432 303.4 370.936 296.872C372.472 295.08 374.2 294.184 376.12 294.184C377.784 294.184 379.064 294.952 379.96 296.488C380.984 298.024 381.496 300.136 381.496 302.824C381.496 307.816 380.28 311.784 377.848 314.728C371.192 322.792 364.6 328.68 358.072 332.392C351.544 336.104 344.696 337.96 337.528 337.96C326.648 337.96 318.136 334.76 311.992 328.36C305.848 321.832 302.776 313.128 302.776 302.248C302.776 298.024 303.096 293.416 303.736 288.424C304.504 283.432 305.72 277.096 307.384 269.416L315.064 234.28C315.32 233.128 315.768 231.08 316.408 228.136C317.048 225.192 317.56 222.44 317.944 219.88C318.328 217.192 318.52 214.568 318.52 212.008C318.52 207.912 317.368 204.648 315.064 202.216C312.76 199.784 309.496 198.568 305.272 198.568C297.592 198.568 289.912 202.664 282.232 210.856C274.552 219.048 267.448 232.296 260.92 250.6C254.392 268.776 249.272 292.072 245.56 320.488C244.664 327.016 243.32 331.56 241.528 334.12C239.864 336.68 236.536 337.96 231.544 337.96Z" fill="white"/>
</svg>
