<svg width="1400" height="980" viewBox="0 0 1400 980" fill="none" xmlns="http://www.w3.org/2000/svg">
<path d="M856.718 287.793L808.29 285.588C805.023 285.425 802.247 283.22 801.43 280.117C796.775 262.64 789.833 246.062 781.013 230.79C779.38 228.013 779.788 224.42 781.912 222.052L814.578 186.282C817.273 183.342 817.192 178.85 814.333 176.073L762.883 124.623C760.107 121.847 755.533 121.683 752.675 124.378L716.905 157.045C714.537 159.25 710.943 159.577 708.167 157.943C692.895 149.042 676.317 142.1 658.84 137.527C655.737 136.71 653.45 133.933 653.368 130.667L651.163 82.2383C651 78.2366 647.733 75.1333 643.732 75.1333H570.967C566.965 75.1333 563.698 78.2366 563.535 82.2383L561.33 130.667C561.167 133.933 558.962 136.71 555.858 137.527C538.382 142.182 521.803 149.123 506.532 157.943C503.755 159.577 500.162 159.168 497.793 157.045L462.023 124.378C459.083 121.683 454.592 121.765 451.815 124.623L400.365 176.073C397.588 178.85 397.425 183.423 400.12 186.282L432.787 222.052C434.992 224.42 435.318 228.013 433.685 230.79C424.783 246.062 417.842 262.64 413.268 280.117C412.452 283.22 409.675 285.507 406.408 285.588L357.98 287.793C353.978 287.957 350.875 291.223 350.875 295.225V367.99C350.875 371.992 353.978 375.258 357.98 375.422L406.408 377.627C409.675 377.79 412.452 379.995 413.268 383.098C417.923 400.575 424.865 417.153 433.685 432.425C435.318 435.202 434.91 438.795 432.787 441.163L400.12 476.933C397.425 479.873 397.507 484.365 400.365 487.142L451.815 538.592C454.592 541.368 459.165 541.532 462.023 538.837L497.793 506.17C500.162 503.965 503.755 503.638 506.532 505.272C521.803 514.173 538.382 521.115 555.858 525.688C558.962 526.505 561.248 529.282 561.33 532.548L563.535 580.977C563.698 584.978 566.965 588.082 570.967 588.082H643.732C647.733 588.082 651 584.978 651.163 580.977L653.368 532.548C653.532 529.282 655.737 526.505 658.84 525.688C676.317 521.033 692.895 514.092 708.167 505.272C710.943 503.638 714.537 504.047 716.905 506.17L752.675 538.837C755.615 541.532 760.107 541.45 762.883 538.592L814.333 487.142C817.11 484.365 817.273 479.792 814.578 476.933L781.912 441.163C779.707 438.795 779.38 435.202 781.013 432.425C789.915 417.153 796.857 400.575 801.43 383.098C802.247 379.995 805.023 377.708 808.29 377.627L856.718 375.422C860.72 375.258 863.823 371.992 863.823 367.99V295.225C863.823 291.305 860.72 288.038 856.718 287.793ZM607.472 453.413C540.178 453.413 485.625 398.86 485.625 331.567C485.625 264.273 540.178 209.72 607.472 209.72C674.765 209.72 729.318 264.273 729.318 331.567C729.237 398.942 674.683 453.413 607.472 453.413Z" fill="#DC985A"/>
<path d="M1045.86 489.347L1024.87 488.367C1023.48 488.285 1022.26 487.305 1021.93 485.998C1019.89 478.403 1016.95 471.217 1013.03 464.602C1012.29 463.377 1012.46 461.825 1013.44 460.845L1027.65 445.328C1028.79 444.022 1028.79 442.062 1027.57 440.918L1005.27 418.623C1004.05 417.398 1002.09 417.398 1000.86 418.542L985.343 432.752C984.282 433.732 982.812 433.895 981.587 433.16C974.972 429.322 967.785 426.3 960.19 424.258C958.802 423.932 957.903 422.707 957.822 421.318L956.842 400.33C956.76 398.615 955.372 397.227 953.657 397.227H922.133C920.418 397.227 919.03 398.615 918.948 400.33L917.968 421.318C917.887 422.707 916.907 423.932 915.6 424.258C908.005 426.3 900.818 429.24 894.203 433.16C892.978 433.895 891.427 433.732 890.447 432.752L874.93 418.542C873.623 417.398 871.663 417.398 870.52 418.623L848.225 440.918C847 442.143 847 444.103 848.143 445.328L862.353 460.845C863.333 461.907 863.497 463.377 862.762 464.602C858.923 471.217 855.902 478.403 853.86 485.998C853.533 487.387 852.308 488.285 850.92 488.367L829.932 489.347C828.217 489.428 826.828 490.817 826.828 492.532V524.055C826.828 525.77 828.217 527.158 829.932 527.24L850.92 528.22C852.308 528.302 853.533 529.282 853.86 530.588C855.902 538.183 858.842 545.37 862.762 551.985C863.497 553.21 863.333 554.762 862.353 555.742L848.143 571.258C847 572.565 847 574.525 848.225 575.668L870.52 597.963C871.745 599.188 873.705 599.188 874.93 598.045L890.447 583.835C891.508 582.855 892.978 582.692 894.203 583.427C900.818 587.265 908.005 590.287 915.6 592.328C916.988 592.655 917.887 593.88 917.968 595.268L918.948 616.257C919.03 617.972 920.418 619.36 922.133 619.36H953.657C955.372 619.36 956.76 617.972 956.842 616.257L957.822 595.268C957.903 593.88 958.883 592.655 960.19 592.328C967.785 590.287 974.972 587.347 981.587 583.427C982.812 582.692 984.363 582.855 985.343 583.835L1000.86 598.045C1002.17 599.188 1004.13 599.188 1005.27 597.963L1027.57 575.668C1028.79 574.443 1028.79 572.483 1027.65 571.258L1013.44 555.742C1012.46 554.68 1012.29 553.21 1013.03 551.985C1016.87 545.37 1019.89 538.183 1021.93 530.588C1022.26 529.2 1023.48 528.302 1024.87 528.22L1045.86 527.24C1047.57 527.158 1048.96 525.77 1048.96 524.055V492.532C1048.96 490.898 1047.66 489.428 1045.86 489.347ZM937.813 561.132C908.658 561.132 884.975 537.448 884.975 508.293C884.975 479.138 908.658 455.455 937.813 455.455C966.968 455.455 990.652 479.138 990.652 508.293C990.652 537.53 966.968 561.132 937.813 561.132Z" fill="#DC985A"/>
<path d="M1069.87 904.785H330.132C326.293 904.785 323.108 901.682 323.108 897.762C323.108 893.923 326.212 890.738 330.132 890.738H1069.79C1073.63 890.738 1076.81 893.842 1076.81 897.762C1076.81 901.682 1073.71 904.785 1069.87 904.785Z" fill="#50718C"/>
<path d="M527.03 441.735H330.703C324.497 441.735 319.352 436.672 319.352 430.383V280.525C319.352 274.318 324.415 269.173 330.703 269.173H527.03C533.237 269.173 538.382 274.237 538.382 280.525V430.465C538.3 436.672 533.237 441.735 527.03 441.735Z" fill="#50718C"/>
<path d="M327.845 305.433V430.465C327.845 432.017 329.152 433.323 330.703 433.323H527.03C528.582 433.323 529.888 432.017 529.888 430.465V305.433C529.888 303.882 528.582 302.575 527.03 302.575H330.703C329.152 302.575 327.845 303.882 327.845 305.433Z" fill="#E8EEF7"/>
<path d="M338.788 283.71C338.788 285.161 338.212 286.553 337.186 287.579C336.16 288.605 334.768 289.182 333.317 289.182C331.866 289.182 330.474 288.605 329.448 287.579C328.422 286.553 327.845 285.161 327.845 283.71C327.845 282.259 328.422 280.867 329.448 279.841C330.474 278.815 331.866 278.238 333.317 278.238C334.768 278.238 336.16 278.815 337.186 279.841C338.212 280.867 338.788 282.259 338.788 283.71Z" fill="#EA7373"/>
<path d="M355.938 283.71C355.938 285.161 355.362 286.553 354.336 287.579C353.31 288.605 351.918 289.182 350.467 289.182C349.016 289.182 347.624 288.605 346.598 287.579C345.572 286.553 344.995 285.161 344.995 283.71C344.995 282.259 345.572 280.867 346.598 279.841C347.624 278.815 349.016 278.238 350.467 278.238C351.918 278.238 353.31 278.815 354.336 279.841C355.362 280.867 355.938 282.259 355.938 283.71Z" fill="#FFCD40"/>
<path d="M373.088 283.71C373.088 285.161 372.512 286.553 371.486 287.579C370.46 288.605 369.068 289.182 367.617 289.182C366.166 289.182 364.774 288.605 363.748 287.579C362.722 286.553 362.145 285.161 362.145 283.71C362.145 282.259 362.722 280.867 363.748 279.841C364.774 278.815 366.166 278.238 367.617 278.238C369.068 278.238 370.46 278.815 371.486 279.841C372.512 280.867 373.088 282.259 373.088 283.71Z" fill="#82CC7D"/>
<path d="M335.848 325.687H423.722V337.773H335.848V325.687Z" fill="#82CC7D"/>
<path d="M335.848 345.858H374.395V410.212H335.848V345.858Z" fill="#7AD4FC"/>
<path d="M385.093 345.858H423.64V410.212H385.093V345.858Z" fill="#4A8BBA"/>
<path d="M434.012 325.687H501.795V337.773H434.012V325.687Z" fill="#82CC7D"/>
<path d="M434.012 349.86H521.885V361.947H434.012V349.86Z" fill="#EA7373"/>
<path d="M434.012 398.125H521.885V410.212H434.012V398.125Z" fill="#82CC7D"/>
<path d="M434.012 373.952H458.512V386.038H434.012V373.952Z" fill="#FFCD40"/>
<path d="M471.333 373.952H521.885V386.038H471.333V373.952Z" fill="#FFCD40"/>
<path d="M702.532 288.283H762.802V333.935H702.532V288.283Z" fill="#E8EEF7"/>
<path d="M613.515 89.9966H851.818C859.413 89.9966 865.538 96.1216 865.538 103.717V285.752C865.538 293.347 859.413 299.472 851.818 299.472H613.515C605.92 299.472 599.795 293.347 599.795 285.752V103.717C599.795 96.1216 605.92 89.9966 613.515 89.9966Z" fill="#50718C"/>
<path d="M855.248 255.453V103.717C855.248 101.838 853.697 100.287 851.818 100.287H613.515C611.637 100.287 610.085 101.838 610.085 103.717V255.453C610.085 257.332 611.637 258.883 613.515 258.883H851.818C853.697 258.883 855.248 257.413 855.248 255.453Z" fill="#E8EEF7"/>
<path d="M771.785 341.53H693.548C689.383 341.53 685.953 338.182 685.953 333.935C685.953 329.77 689.302 326.34 693.548 326.34H771.785C775.95 326.34 779.38 329.688 779.38 333.935C779.38 338.182 775.95 341.53 771.785 341.53Z" fill="#50718C"/>
<path d="M623.152 113.19H842.263V123.97H623.152V113.19Z" fill="#7AD4FC"/>
<path d="M623.152 137.037H691.67V205.555H623.152V137.037Z" fill="#82CC7D"/>
<path d="M623.152 218.703H842.263V246.062H623.152V218.703Z" fill="#7AD4FC"/>
<path d="M704.737 137.037H779.053V180.728H704.737V137.037Z" fill="#4A8BBA"/>
<path d="M701.715 193.795H842.263V205.555H701.715V193.795Z" fill="#FFCD40"/>
<path d="M792.12 137.037H842.263V180.728H792.12V137.037Z" fill="#EA7373"/>
<path d="M961.823 435.773H907.76C902.86 435.773 898.858 431.772 898.858 426.872V308.782C898.858 303.882 902.86 299.88 907.76 299.88H961.823C966.723 299.88 970.725 303.882 970.725 308.782V426.953C970.643 431.772 966.723 435.773 961.823 435.773Z" fill="#50718C"/>
<path d="M966.233 413.233V308.782C966.233 306.332 964.273 304.372 961.823 304.372H907.76C905.31 304.372 903.35 306.332 903.35 308.782V413.233C903.35 415.683 905.31 417.643 907.76 417.643H961.823C964.273 417.643 966.233 415.683 966.233 413.233Z" fill="#E8EEF7"/>
<path d="M939.773 426.708C939.773 428.03 939.249 429.297 938.314 430.231C937.38 431.165 936.113 431.69 934.792 431.69C933.471 431.69 932.203 431.165 931.269 430.231C930.335 429.297 929.81 428.03 929.81 426.708C929.81 425.387 930.335 424.12 931.269 423.186C932.203 422.252 933.471 421.727 934.792 421.727C936.113 421.727 937.38 422.252 938.314 423.186C939.249 424.12 939.773 425.387 939.773 426.708Z" fill="#E8EEF7"/>
<path d="M908.577 317.275H960.925V322.502H908.577V317.275Z" fill="#82CC7D"/>
<path d="M908.577 326.993H932.505V350.922H908.577V326.993Z" fill="#4A8BBA"/>
<path d="M936.997 326.993H960.925V350.922H936.997V326.993Z" fill="#EA7373"/>
<path d="M908.577 355.332H932.505V379.26H908.577V355.332Z" fill="#FFCD40"/>
<path d="M936.997 355.332H960.925V379.26H936.997V355.332Z" fill="#7AD4FC"/>
<path d="M908.577 383.752H960.925V404.658H908.577V383.752Z" fill="#82CC7D"/>
<path d="M1071.75 368.072H1017.68C1012.78 368.072 1008.78 364.07 1008.78 359.17V241.08C1008.78 236.18 1012.78 232.178 1017.68 232.178H1071.75C1076.65 232.178 1080.65 236.18 1080.65 241.08V359.252C1080.65 364.152 1076.65 368.072 1071.75 368.072Z" fill="#50718C"/>
<path d="M1076.16 345.532V241.08C1076.16 238.63 1074.2 236.67 1071.75 236.67H1017.68C1015.23 236.67 1013.27 238.63 1013.27 241.08V345.532C1013.27 347.982 1015.23 349.942 1017.68 349.942H1071.75C1074.2 350.023 1076.16 347.982 1076.16 345.532Z" fill="#E8EEF7"/>
<path d="M1049.7 359.007C1049.7 360.328 1049.17 361.595 1048.24 362.529C1047.3 363.463 1046.04 363.988 1044.72 363.988C1043.39 363.988 1042.13 363.463 1041.19 362.529C1040.26 361.595 1039.73 360.328 1039.73 359.007C1039.73 357.685 1040.26 356.418 1041.19 355.484C1042.13 354.55 1043.39 354.025 1044.72 354.025C1046.04 354.025 1047.3 354.55 1048.24 355.484C1049.17 356.418 1049.7 357.685 1049.7 359.007Z" fill="#E8EEF7"/>
<path d="M1070.83 336.982H1018.48V331.755H1070.83V336.982Z" fill="#EA7373"/>
<path d="M1070.88 327.362H1046.95V303.434H1070.88V327.362Z" fill="#4A8BBA"/>
<path d="M1042.44 327.31H1018.51V274.961H1042.44V327.31Z" fill="#7AD4FC"/>
<path d="M1070.88 298.919H1046.95V274.991H1070.88V298.919Z" fill="#FFCD40"/>
<path d="M1070.83 270.554H1018.48V249.647H1070.83V270.554Z" fill="#82CC7D"/>
<path d="M907.27 855.785C907.27 884.695 894.775 890.657 873.215 890.657C851.737 890.657 692.405 890.657 692.405 890.657C692.405 890.657 533.155 890.657 511.595 890.657C490.117 890.657 477.54 884.695 477.54 855.785C477.54 826.875 501.387 723.567 564.842 679.222C610.493 647.372 640.955 639.532 692.323 639.532C743.692 639.532 774.153 647.29 819.805 679.222C883.505 723.485 907.27 826.875 907.27 855.785Z" fill="#4A8BBA"/>
<path d="M563.127 769.953C563.535 768.973 565.005 769.545 564.678 770.525C558.227 790.533 551.285 810.705 550.795 824.017C550.55 831.285 552.102 837.328 559.207 838.88C577.01 843.372 611.147 843.698 636.708 843.78C637.77 843.78 637.852 845.332 636.79 845.413C612.045 848.272 578.398 849.578 557.818 844.433C548.1 842.31 544.752 833.817 545.487 823.772C546.385 809.235 555.45 786.695 563.127 769.953Z" fill="#2F7DAD"/>
<path d="M821.847 769.953C821.438 768.973 819.968 769.545 820.295 770.525C826.747 790.533 833.688 810.705 834.178 824.017C834.423 831.285 832.872 837.328 825.767 838.88C807.963 843.372 773.827 843.698 748.265 843.78C747.203 843.78 747.122 845.332 748.183 845.413C772.928 848.272 806.575 849.578 827.155 844.433C836.873 842.31 840.222 833.817 839.487 823.772C838.588 809.235 829.523 786.695 821.847 769.953Z" fill="#2F7DAD"/>
<path d="M814.007 884.94H570.967C567.863 884.94 565.25 882.49 565.168 879.387L557.083 715.482C556.92 712.133 559.615 709.357 562.882 709.357H821.928C825.277 709.357 827.89 712.133 827.727 715.482L819.723 879.387C819.723 882.49 817.11 884.94 814.007 884.94Z" fill="#D5DFEF"/>
<path d="M822.337 890.82H562.637C559.37 890.82 556.757 888.207 556.757 884.94C556.757 881.673 559.37 879.06 562.637 879.06H822.337C825.603 879.06 828.217 881.673 828.217 884.94C828.135 888.207 825.522 890.82 822.337 890.82Z" fill="#E8EEF7"/>
<path d="M715.19 797.148C715.19 803.17 712.798 808.944 708.54 813.202C704.283 817.46 698.508 819.852 692.487 819.852C686.465 819.852 680.691 817.46 676.433 813.202C672.175 808.944 669.783 803.17 669.783 797.148C669.783 794.167 670.371 791.215 671.512 788.46C672.653 785.706 674.325 783.203 676.433 781.095C678.541 778.986 681.044 777.314 683.799 776.173C686.553 775.032 689.505 774.445 692.487 774.445C695.468 774.445 698.42 775.032 701.175 776.173C703.929 777.314 706.432 778.986 708.54 781.095C710.649 783.203 712.321 785.706 713.462 788.46C714.603 791.215 715.19 794.167 715.19 797.148Z" fill="#E8EEF7"/>
<path d="M620.293 527.077L614.087 525.198C611.228 524.3 608.043 525.198 606.083 527.485C604.368 529.445 603.797 532.222 604.613 534.672L612.862 561.458C613.76 564.317 616.128 566.358 619.068 566.767H619.232C624.05 567.42 628.297 563.418 627.888 558.518L625.683 533.61C625.357 530.588 623.233 527.975 620.293 527.077Z" fill="#FFCCB6"/>
<path d="M764.68 527.077L770.887 525.198C773.745 524.3 776.93 525.198 778.89 527.485C780.605 529.445 781.177 532.222 780.36 534.672L772.112 561.458C771.213 564.317 768.845 566.358 765.905 566.767H765.742C760.923 567.42 756.677 563.418 757.085 558.518L759.29 533.61C759.617 530.588 761.74 527.975 764.68 527.077Z" fill="#FFCCB6"/>
<path d="M692.487 685.755C676.725 685.755 664.23 672.525 665.128 656.763L667.007 623.607H717.967L719.845 656.763C720.743 672.443 708.248 685.755 692.487 685.755Z" fill="#FFCCB6"/>
<path d="M719.355 456.272H665.618C646.427 456.272 629.522 469.012 624.295 487.468C623.233 491.143 622.743 494.9 622.743 498.657V564.235C622.743 575.342 625.847 586.203 631.808 595.595L650.673 625.567C655.41 633.08 663.658 637.653 672.56 637.653H712.495C721.397 637.653 729.645 633.08 734.382 625.567L753.247 595.595C759.127 586.203 762.312 575.342 762.312 564.235V498.657C762.312 494.9 761.822 491.143 760.76 487.468C755.452 469.012 738.547 456.272 719.355 456.272Z" fill="#FFE1D2"/>
<path d="M772.847 471.135C770.642 472.115 769.907 474.892 771.295 476.933L780.033 489.51C781.258 491.307 780.768 493.838 778.89 494.982L770.397 500.372C769.253 501.107 768.6 502.332 768.6 503.638V536.795C768.6 537.285 768.518 537.775 768.273 538.265L768.11 538.673C766.558 542.43 761.005 541.613 760.678 537.612L757.003 500.372C756.922 499.31 756.35 498.33 755.452 497.677L737.322 483.875C734.055 481.425 729.645 485.018 731.523 488.693L733.973 493.593C735.443 496.452 732.912 499.8 729.727 499.147L642.915 481.588C641.363 481.262 639.812 481.915 638.913 483.14L628.705 497.758C628.297 498.33 628.133 498.902 628.052 499.555L624.295 537.448C623.887 541.45 618.333 542.267 616.863 538.51L616.7 538.102C616.537 537.612 616.373 537.122 616.373 536.632V452.352C616.373 449.82 618.742 447.942 621.192 448.595L643.813 454.067C645.12 454.393 646.59 453.985 647.488 453.005L665.618 434.222C666.598 433.16 668.15 432.752 669.538 433.16L772.438 463.867C775.868 464.928 776.195 469.665 772.847 471.135Z" fill="#3E4D59"/>
<path d="M734.055 508.375C720.907 508.375 709.555 516.215 704.41 527.403C701.225 524.545 696.978 522.748 692.405 522.748C687.75 522.748 683.503 524.545 680.318 527.403C675.173 516.133 663.822 508.293 650.592 508.293C632.543 508.293 617.925 522.912 617.925 540.96C617.925 559.008 632.543 573.627 650.592 573.627C668.64 573.627 683.258 559.008 683.258 540.96C683.258 540.878 683.258 540.797 683.258 540.715H683.34C683.34 535.733 687.423 531.65 692.405 531.65C697.387 531.65 701.47 535.733 701.47 540.715C701.47 540.797 701.47 540.878 701.47 540.96C701.47 559.008 716.088 573.627 734.137 573.627C752.185 573.627 766.803 559.008 766.803 540.96C766.803 522.912 752.103 508.375 734.055 508.375ZM650.592 564.725C637.525 564.725 626.908 554.108 626.908 541.042C626.908 527.975 637.525 517.358 650.592 517.358C663.658 517.358 674.275 527.975 674.275 541.042C674.275 554.108 663.658 564.725 650.592 564.725ZM734.055 564.725C720.988 564.725 710.372 554.108 710.372 541.042C710.372 527.975 720.988 517.358 734.055 517.358C747.122 517.358 757.738 527.975 757.738 541.042C757.738 554.108 747.122 564.725 734.055 564.725Z" fill="#50718C"/>
<path d="M978.402 890.82H944.265C941.325 890.82 938.957 888.452 938.957 885.512C938.957 882.572 941.325 880.203 944.265 880.203H978.402C983.628 880.203 988.61 877.917 992.04 873.997C995.47 870.077 997.022 864.85 996.368 859.705L971.95 677.997C971.215 672.688 967.458 668.115 962.313 666.4L945.572 660.847C942.795 659.948 941.325 656.927 942.223 654.15C943.122 651.373 946.143 649.903 948.92 650.802L965.662 656.355C974.563 659.295 981.178 667.298 982.403 676.608L1006.74 858.317C1007.8 866.483 1005.35 874.813 999.88 881.02C994.49 887.227 986.65 890.82 978.402 890.82Z" fill="#D5DFEF"/>
<path d="M883.015 820.587C878.687 818.872 876.563 814.053 878.278 809.725L1000.78 495.717C1002.49 491.388 1007.31 489.265 1011.64 490.98C1015.97 492.695 1018.09 497.513 1016.38 501.842L893.795 815.85C892.162 820.178 887.262 822.302 883.015 820.587Z" fill="#E8EEF7"/>
<path d="M400.773 743.657C387.135 787.185 407.878 795.025 395.302 828.1C411.717 794.29 396.445 776.65 400.773 743.657Z" fill="#A4E7FF"/>
<path d="M428.295 752.068C418.903 782.203 433.195 787.675 424.538 810.623C435.89 787.185 425.355 774.935 428.295 752.068Z" fill="#A4E7FF"/>
<path d="M413.84 767.013C423.232 797.148 408.94 802.62 417.597 825.568C406.327 802.13 416.862 789.88 413.84 767.013Z" fill="#A4E7FF"/>
<path d="M432.868 890.82H392.362C387.217 890.82 383.133 886.655 383.133 881.592V833.327C383.133 828.182 387.298 824.098 392.362 824.098H432.868C438.013 824.098 442.097 828.263 442.097 833.327V881.592C442.178 886.655 438.013 890.82 432.868 890.82Z" fill="#F47B5B"/>
<path d="M448.303 832.918H421.598V839.452H448.303C452.387 839.452 455.653 842.8 455.653 846.802V867.953C455.653 872.037 452.305 875.303 448.303 875.303H421.598V881.837H448.303C455.98 881.837 462.187 875.63 462.187 867.953V846.802C462.187 839.125 455.98 832.918 448.303 832.918Z" fill="#F47B5B"/>
</svg>
