<svg width="2011" height="1408" viewBox="0 0 2011 1408" fill="none" xmlns="http://www.w3.org/2000/svg">
<path d="M1601.06 320.909H420.699V1228.46H1601.06V320.909Z" stroke="white" stroke-width="2" stroke-miterlimit="50" stroke-linejoin="round"/>
<path d="M467.115 1182.03H374.282V1274.88H467.115V1182.03Z" stroke="white" stroke-width="2" stroke-miterlimit="50" stroke-linejoin="round"/>
<path d="M883.2 1182.03H790.367V1274.88H883.2V1182.03Z" stroke="white" stroke-width="2" stroke-miterlimit="50" stroke-linejoin="round"/>
<path d="M467.115 274.483H374.282V367.336H467.115V274.483Z" stroke="white" stroke-width="2" stroke-miterlimit="50" stroke-linejoin="round"/>
<path d="M1647.48 274.483H1554.65V367.336H1647.48V274.483Z" stroke="white" stroke-width="2" stroke-miterlimit="50" stroke-linejoin="round"/>
<path d="M1647.48 1182.03H1554.65V1274.88H1647.48V1182.03Z" stroke="white" stroke-width="2" stroke-miterlimit="50" stroke-linejoin="round"/>
<path d="M1647.48 518.008H1554.65V610.861H1647.48V518.008Z" stroke="white" stroke-width="2" stroke-miterlimit="50" stroke-linejoin="round"/>
<path d="M1809.24 671.739V443.671H1601.06" stroke="white" stroke-width="2" stroke-miterlimit="50" stroke-linejoin="round"/>
<path d="M199.833 642.823V883.798H416.311" stroke="white" stroke-width="2" stroke-miterlimit="50" stroke-linejoin="round"/>
<path d="M1933.53 957.494C1933.53 966.743 1926.02 974.238 1916.79 974.238H1701.69C1692.45 974.238 1684.95 966.743 1684.95 957.494V687.873C1684.95 678.623 1692.45 671.128 1701.69 671.128H1916.79C1926.02 671.128 1933.53 678.623 1933.53 687.873V957.494Z" fill="white"/>
<path d="M327.566 616.901C327.566 626.15 320.073 633.646 310.831 633.646H95.7411C86.4997 633.646 79 626.15 79 616.901V347.28C79 338.031 86.4937 330.536 95.7411 330.536H310.831C320.073 330.536 327.566 338.031 327.566 347.28V616.901Z" fill="white"/>
<path d="M1263.98 506.04H743.543V1020.56H1263.98V506.04Z" fill="white"/>
<g opacity="0.2">
<path d="M1222.43 532.519H785.088V892.012H1222.43V532.519Z" fill="#B1B1B1"/>
</g>
<path d="M1263.98 931.679H743.543V1020.57H1263.98V931.679Z" fill="#4E4E4E"/>
<path d="M1114.03 727.876C1114.03 792.172 1061.91 844.322 997.563 844.322C933.298 844.322 881.111 792.172 881.111 727.876C881.111 663.519 933.298 611.387 997.563 611.387C1061.91 611.381 1114.03 663.519 1114.03 727.876Z" fill="#DC985A"/>
<path d="M952.175 776.361C952.175 786.03 958.915 789.795 967.127 784.743L1045.31 737.011C1053.56 731.97 1053.56 723.763 1045.31 718.71L967.127 670.954C958.915 665.902 952.175 669.739 952.175 679.384V776.361Z" fill="white"/>
<path d="M1222.43 967.934H792.827V988.385H1222.43V967.934Z" fill="white"/>
<path d="M1092.39 967.934H792.827V988.385H1092.39V967.934Z" fill="#DC985A"/>
<path opacity="0.1" d="M342.141 472.802V560.387V1139.31H750.145V560.387V472.802H342.141Z" fill="#1D1D1B"/>
<path d="M785.722 523.713H377.227V1103.34H785.722V523.713Z" fill="white"/>
<path d="M725.384 826.943H429.252V882.379H725.384V826.943Z" fill="#DCDBDD"/>
<path d="M725.384 906.751H429.252V962.175H725.384V906.751Z" fill="#DCDBDD"/>
<path d="M673.545 988.81H481.091V1033.31H673.545V988.81Z" fill="#4E4E4E"/>
<path d="M785.722 436.026H377.227V523.707H785.722V436.026Z" fill="#4E4E4E"/>
<path d="M433.513 493.061C441.258 493.061 447.537 486.816 447.537 479.112C447.537 471.409 441.258 465.163 433.513 465.163C425.768 465.163 419.49 471.409 419.49 479.112C419.49 486.816 425.768 493.061 433.513 493.061Z" fill="white"/>
<path d="M494.181 493.061C501.923 493.061 508.199 486.816 508.199 479.112C508.199 471.409 501.923 465.163 494.181 465.163C486.439 465.163 480.163 471.409 480.163 479.112C480.163 486.816 486.439 493.061 494.181 493.061Z" fill="white"/>
<path d="M554.861 493.061C562.606 493.061 568.884 486.816 568.884 479.112C568.884 471.409 562.606 465.163 554.861 465.163C547.116 465.163 540.837 471.409 540.837 479.112C540.837 486.816 547.116 493.061 554.861 493.061Z" fill="white"/>
<path d="M1092.39 999.807C1104.34 999.807 1114.03 990.118 1114.03 978.165C1114.03 966.213 1104.34 956.524 1092.39 956.524C1080.44 956.524 1070.75 966.213 1070.75 978.165C1070.75 990.118 1080.44 999.807 1092.39 999.807Z" fill="#DC985A"/>
<path opacity="0.1" d="M1468.95 401.651H1082.94V619.978H1468.95V401.651Z" fill="#1D1D1B"/>
<path d="M1503.75 367.336H1117.74V585.663H1503.75V367.336Z" fill="white"/>
<path d="M1193.47 510.818C1214.22 510.818 1231.03 493.996 1231.03 473.245C1231.03 452.495 1214.22 435.673 1193.47 435.673C1172.72 435.673 1155.91 452.495 1155.91 473.245C1155.91 493.996 1172.72 510.818 1193.47 510.818Z" fill="#4E4E4E"/>
<path d="M1439.2 510.818C1459.95 510.818 1476.77 493.996 1476.77 473.245C1476.77 452.495 1459.95 435.673 1439.2 435.673C1418.46 435.673 1401.64 452.495 1401.64 473.245C1401.64 493.996 1418.46 510.818 1439.2 510.818Z" fill="#4E4E4E"/>
<path d="M1318.69 526.742C1348.23 526.742 1372.17 502.791 1372.17 473.245C1372.17 443.7 1348.23 419.749 1318.69 419.749C1289.15 419.749 1265.2 443.7 1265.2 473.245C1265.2 502.791 1289.15 526.742 1318.69 526.742Z" fill="#DC985A"/>
<path d="M1298.86 496.569C1298.86 501.209 1302.11 503.035 1306.07 500.604L1343.67 477.64C1347.63 475.233 1347.63 471.264 1343.67 468.839L1306.07 445.863C1302.11 443.444 1298.86 445.258 1298.86 449.915V496.569Z" fill="white"/>
<path d="M1462.36 470.414L1445.85 456.483C1443.61 454.585 1441.76 455.429 1441.76 458.381V469.995L1425.74 456.477C1423.5 454.579 1421.66 455.423 1421.66 458.375V489.355C1421.66 492.307 1423.5 493.163 1425.74 491.259L1441.76 477.729V489.349C1441.76 492.301 1443.61 493.157 1445.85 491.253L1462.36 477.31C1464.61 475.419 1464.61 472.323 1462.36 470.414Z" fill="white"/>
<path d="M1169.79 477.328L1186.3 491.271C1188.56 493.169 1190.38 492.319 1190.38 489.368V477.747L1206.41 491.277C1208.64 493.175 1210.49 492.325 1210.49 489.373V458.393C1210.49 455.441 1208.64 454.591 1206.41 456.495L1190.38 470.013V458.399C1190.38 455.447 1188.56 454.597 1186.3 456.501L1169.79 470.432C1167.54 472.323 1167.54 475.419 1169.79 477.328Z" fill="white"/>
<path d="M1105.77 462.176V484.309C1106.4 480.705 1106.8 477.017 1106.8 473.239C1106.8 469.456 1106.41 465.78 1105.77 462.176Z" fill="#587991"/>
<path d="M646.581 618.589C629.917 601.928 606.898 591.613 581.478 591.613V683.706L646.581 618.589Z" fill="#DC985A"/>
<path d="M581.472 591.613C530.614 591.613 489.405 632.844 489.405 683.706C489.405 734.557 530.62 775.787 581.472 775.787C602.552 775.787 621.903 768.633 637.429 756.713L581.472 683.706V591.613Z" fill="#4E4E4E"/>
<path d="M673.545 683.712C673.545 658.281 663.238 635.25 646.581 618.595L581.478 683.712L637.435 756.719C659.341 739.885 673.545 713.478 673.545 683.712Z" fill="#DCDBDD"/>
<path d="M195.565 556.915C195.451 556.915 195.338 556.915 195.23 556.909C193.111 556.771 191.291 555.364 190.621 553.353L174.287 504.334L122.974 487.967C120.957 487.32 119.533 485.524 119.371 483.411C119.204 481.297 120.335 479.298 122.232 478.358L259.614 409.643C261.608 408.643 264.008 409.027 265.6 410.595C267.186 412.152 267.599 414.552 266.629 416.564L200.246 553.969C199.372 555.777 197.546 556.915 195.565 556.915Z" fill="#DC985A"/>
<path d="M1812.03 902.901C1811.86 902.901 1811.67 902.901 1811.49 902.901C1810.92 902.901 1810.35 902.817 1809.79 902.644C1756.53 885.923 1732.33 826.164 1731.33 823.626C1731.06 822.962 1730.92 822.255 1730.92 821.519V784.545C1730.92 781.402 1733.45 778.864 1736.58 778.852C1736.92 778.852 1771.79 777.984 1807.48 742.549C1808.56 741.483 1809.99 740.903 1811.5 740.903H1812.04C1813.55 740.903 1814.98 741.489 1816.06 742.549C1851.74 777.99 1886.62 778.852 1886.98 778.852C1890.09 778.888 1892.61 781.438 1892.61 784.545V821.519C1892.61 822.255 1892.48 822.956 1892.21 823.626C1891.21 826.164 1867 885.923 1813.75 902.644C1813.18 902.817 1812.61 902.901 1812.03 902.901Z" fill="#4E4E4E"/>
<path d="M1864.9 1149.37C1873.76 1149.37 1880.95 1142.19 1880.95 1133.32C1880.95 1124.46 1873.76 1117.27 1864.9 1117.27C1856.04 1117.27 1848.86 1124.46 1848.86 1133.32C1848.86 1142.19 1856.04 1149.37 1864.9 1149.37Z" stroke="#4E4E4E" stroke-width="2" stroke-miterlimit="10" stroke-linecap="round"/>
<path d="M1090.95 1109.96C1099.81 1109.96 1106.99 1102.77 1106.99 1093.91C1106.99 1085.04 1099.81 1077.86 1090.95 1077.86C1082.08 1077.86 1074.9 1085.04 1074.9 1093.91C1074.9 1102.77 1082.08 1109.96 1090.95 1109.96Z" stroke="#4E4E4E" stroke-width="2" stroke-miterlimit="10" stroke-linecap="round"/>
<path d="M1854.57 290.533C1863.43 290.533 1870.62 283.347 1870.62 274.483C1870.62 265.618 1863.43 258.432 1854.57 258.432C1845.71 258.432 1838.52 265.618 1838.52 274.483C1838.52 283.347 1845.71 290.533 1854.57 290.533Z" stroke="#4E4E4E" stroke-width="2" stroke-miterlimit="10" stroke-linecap="round"/>
<path d="M1697.62 166.1C1706.48 166.1 1713.66 158.914 1713.66 150.05C1713.66 141.186 1706.48 134 1697.62 134C1688.75 134 1681.57 141.186 1681.57 150.05C1681.57 158.914 1688.75 166.1 1697.62 166.1Z" stroke="#4E4E4E" stroke-width="2" stroke-miterlimit="10" stroke-linecap="round"/>
<path d="M865.286 426.717C874.148 426.717 881.333 419.531 881.333 410.667C881.333 401.803 874.148 394.617 865.286 394.617C856.423 394.617 849.239 401.803 849.239 410.667C849.239 419.531 856.423 426.717 865.286 426.717Z" stroke="#4E4E4E" stroke-width="2" stroke-miterlimit="10" stroke-linecap="round"/>
<path d="M286.692 1188.6C295.555 1188.6 302.739 1181.42 302.739 1172.55C302.739 1163.69 295.555 1156.5 286.692 1156.5C277.83 1156.5 270.646 1163.69 270.646 1172.55C270.646 1181.42 277.83 1188.6 286.692 1188.6Z" stroke="#4E4E4E" stroke-width="2" stroke-miterlimit="10" stroke-linecap="round"/>
<path d="M117.588 1270.18C126.45 1270.18 133.634 1263 133.634 1254.13C133.634 1245.27 126.45 1238.08 117.588 1238.08C108.725 1238.08 101.541 1245.27 101.541 1254.13C101.541 1263 108.725 1270.18 117.588 1270.18Z" stroke="#4E4E4E" stroke-width="2" stroke-miterlimit="10" stroke-linecap="round"/>
<path d="M150.1 232.953C158.963 232.953 166.147 225.767 166.147 216.903C166.147 208.039 158.963 200.853 150.1 200.853C141.238 200.853 134.053 208.039 134.053 216.903C134.053 225.767 141.238 232.953 150.1 232.953Z" stroke="#4E4E4E" stroke-width="2" stroke-miterlimit="10" stroke-linecap="round"/>
<path d="M1752.81 1103.98C1768.14 1103.98 1780.56 1091.56 1780.56 1076.23C1780.56 1060.91 1768.14 1048.48 1752.81 1048.48C1737.49 1048.48 1725.07 1060.91 1725.07 1076.23C1725.07 1091.56 1737.49 1103.98 1752.81 1103.98Z" stroke="#4E4E4E" stroke-width="2" stroke-miterlimit="10" stroke-linecap="round"/>
<path d="M987.13 1149.41C1002.45 1149.41 1014.87 1136.98 1014.87 1121.66C1014.87 1106.33 1002.45 1093.91 987.13 1093.91C971.808 1093.91 959.388 1106.33 959.388 1121.66C959.388 1136.98 971.808 1149.41 987.13 1149.41Z" stroke="#4E4E4E" stroke-width="2" stroke-miterlimit="10" stroke-linecap="round"/>
<path d="M280.695 205.54C296.017 205.54 308.437 193.117 308.437 177.792C308.437 162.467 296.017 150.044 280.695 150.044C265.373 150.044 252.953 162.467 252.953 177.792C252.953 193.117 265.373 205.54 280.695 205.54Z" stroke="#4E4E4E" stroke-width="2" stroke-miterlimit="10" stroke-linecap="round"/>
<path d="M203.286 1103.98C218.608 1103.98 231.028 1091.56 231.028 1076.23C231.028 1060.91 218.608 1048.48 203.286 1048.48C187.965 1048.48 175.544 1060.91 175.544 1076.23C175.544 1091.56 187.965 1103.98 203.286 1103.98Z" stroke="#4E4E4E" stroke-width="2" stroke-miterlimit="10" stroke-linecap="round"/>
<path d="M1758.48 358.284C1773.8 358.284 1786.22 345.861 1786.22 330.536C1786.22 315.211 1773.8 302.788 1758.48 302.788C1743.16 302.788 1730.74 315.211 1730.74 330.536C1730.74 345.861 1743.16 358.284 1758.48 358.284Z" stroke="#4E4E4E" stroke-width="2" stroke-miterlimit="10" stroke-linecap="round"/>
<path d="M1465.58 688.693H1282.97C1261.24 689.86 1248.56 704.013 1246.76 722.476V1147.55C1248.98 1168.89 1266.49 1182.29 1285.85 1182.29H1462.85C1484.94 1182.29 1501.33 1164.45 1501.33 1142.94V727.097C1501.33 706.419 1487.93 689.944 1465.58 688.693Z" fill="#4E4E4E"/>
<path d="M1481.99 741.322H1265.02V1108.24H1481.99V741.322Z" fill="white"/>
<path d="M1344.66 718.004C1347.2 718.004 1349.25 715.948 1349.25 713.412C1349.25 710.876 1347.2 708.82 1344.66 708.82C1342.12 708.82 1340.07 710.876 1340.07 713.412C1340.07 715.948 1342.12 718.004 1344.66 718.004Z" fill="white"/>
<path d="M1406.94 712.705C1406.94 710.389 1405.06 708.497 1402.73 708.497H1366.55C1364.23 708.497 1362.35 710.389 1362.35 712.705V713.55C1362.35 715.878 1364.23 717.758 1366.55 717.758H1402.73C1405.06 717.758 1406.94 715.878 1406.94 713.55V712.705Z" fill="white"/>
<path d="M1373.5 1166.56C1385.9 1166.56 1395.95 1156.51 1395.95 1144.11C1395.95 1131.71 1385.9 1121.66 1373.5 1121.66C1361.11 1121.66 1351.06 1131.71 1351.06 1144.11C1351.06 1156.51 1361.11 1166.56 1373.5 1166.56Z" fill="white"/>
<path d="M1336.74 814.32H1320.24V811.644H1336.74V814.32ZM1331.48 804.638H1320.14V801.865H1331.48V804.638ZM1325.45 796.951L1325.84 807.509C1325.89 808.53 1325.79 809.475 1325.56 810.343C1325.33 811.202 1324.89 811.863 1324.23 812.325L1321.21 811.644C1321.7 811.644 1322.07 811.401 1322.33 810.914C1322.59 810.428 1322.77 809.86 1322.86 809.212C1322.95 808.563 1322.98 807.995 1322.97 807.509L1322.63 796.951C1322.56 795.183 1322.88 793.715 1323.59 792.548C1324.3 791.38 1325.23 790.508 1326.38 789.933C1327.54 789.357 1328.76 789.069 1330.02 789.069C1331.18 789.069 1332.23 789.28 1333.18 789.702C1334.13 790.115 1334.93 790.675 1335.58 791.38C1336.23 792.086 1336.68 792.88 1336.94 793.764C1337.2 794.64 1337.21 795.54 1336.98 796.464L1334.16 795.686C1334.27 794.843 1334.14 794.129 1333.77 793.545C1333.4 792.953 1332.89 792.507 1332.23 792.207C1331.59 791.899 1330.9 791.745 1330.17 791.745C1329.39 791.745 1328.64 791.932 1327.92 792.305C1327.2 792.669 1326.6 793.237 1326.14 794.007C1325.68 794.77 1325.45 795.751 1325.45 796.951ZM1358.34 814.32H1341.85V811.644H1358.34V814.32ZM1353.09 804.638H1341.75V801.865H1353.09V804.638ZM1347.06 796.951L1347.45 807.509C1347.49 808.53 1347.4 809.475 1347.17 810.343C1346.94 811.202 1346.5 811.863 1345.84 812.325L1342.82 811.644C1343.31 811.644 1343.68 811.401 1343.94 810.914C1344.2 810.428 1344.38 809.86 1344.47 809.212C1344.55 808.563 1344.59 807.995 1344.57 807.509L1344.23 796.951C1344.17 795.183 1344.49 793.715 1345.19 792.548C1345.91 791.38 1346.84 790.508 1347.99 789.933C1349.15 789.357 1350.36 789.069 1351.63 789.069C1352.79 789.069 1353.84 789.28 1354.79 789.702C1355.74 790.115 1356.54 790.675 1357.19 791.38C1357.84 792.086 1358.29 792.88 1358.55 793.764C1358.81 794.64 1358.82 795.54 1358.59 796.464L1355.76 795.686C1355.88 794.843 1355.75 794.129 1355.38 793.545C1355.01 792.953 1354.5 792.507 1353.84 792.207C1353.19 791.899 1352.51 791.745 1351.78 791.745C1351 791.745 1350.25 791.932 1349.52 792.305C1348.8 792.669 1348.21 793.237 1347.75 794.007C1347.29 794.77 1347.06 795.751 1347.06 796.951ZM1379.95 814.32H1363.46V811.644H1379.95V814.32ZM1374.7 804.638H1363.36V801.865H1374.7V804.638ZM1368.66 796.951L1369.05 807.509C1369.1 808.53 1369.01 809.475 1368.77 810.343C1368.55 811.202 1368.1 811.863 1367.45 812.325L1364.43 811.644C1364.92 811.644 1365.29 811.401 1365.55 810.914C1365.81 810.428 1365.98 809.86 1366.07 809.212C1366.16 808.563 1366.2 807.995 1366.18 807.509L1365.84 796.951C1365.78 795.183 1366.1 793.715 1366.8 792.548C1367.52 791.38 1368.45 790.508 1369.6 789.933C1370.76 789.357 1371.97 789.069 1373.24 789.069C1374.4 789.069 1375.45 789.28 1376.4 789.702C1377.35 790.115 1378.15 790.675 1378.8 791.38C1379.44 792.086 1379.9 792.88 1380.16 793.764C1380.42 794.64 1380.43 795.54 1380.19 796.464L1377.37 795.686C1377.49 794.843 1377.36 794.129 1376.98 793.545C1376.62 792.953 1376.11 792.507 1375.45 792.207C1374.8 791.899 1374.11 791.745 1373.38 791.745C1372.6 791.745 1371.85 791.932 1371.13 792.305C1370.41 792.669 1369.82 793.237 1369.36 794.007C1368.9 794.77 1368.66 795.751 1368.66 796.951ZM1401.56 814.32H1385.07V811.644H1401.56V814.32ZM1396.31 804.638H1384.97V801.865H1396.31V804.638ZM1390.27 796.951L1390.66 807.509C1390.71 808.53 1390.62 809.475 1390.38 810.343C1390.15 811.202 1389.71 811.863 1389.06 812.325L1386.04 811.644C1386.53 811.644 1386.9 811.401 1387.16 810.914C1387.42 810.428 1387.59 809.86 1387.68 809.212C1387.77 808.563 1387.81 807.995 1387.79 807.509L1387.45 796.951C1387.39 795.183 1387.71 793.715 1388.41 792.548C1389.12 791.38 1390.06 790.508 1391.21 789.933C1392.37 789.357 1393.58 789.069 1394.85 789.069C1396.01 789.069 1397.06 789.28 1398.01 789.702C1398.96 790.115 1399.76 790.675 1400.4 791.38C1401.05 792.086 1401.51 792.88 1401.77 793.764C1402.03 794.64 1402.04 795.54 1401.8 796.464L1398.98 795.686C1399.09 794.843 1398.96 794.129 1398.59 793.545C1398.23 792.953 1397.72 792.507 1397.06 792.207C1396.41 791.899 1395.72 791.745 1394.99 791.745C1394.21 791.745 1393.46 791.932 1392.74 792.305C1392.02 792.669 1391.43 793.237 1390.97 794.007C1390.5 794.77 1390.27 795.751 1390.27 796.951ZM1423.17 814.32H1406.67V811.644H1423.17V814.32ZM1417.91 804.638H1406.58V801.865H1417.91V804.638ZM1411.88 796.951L1412.27 807.509C1412.32 808.53 1412.23 809.475 1411.99 810.343C1411.76 811.202 1411.32 811.863 1410.66 812.325L1407.65 811.644C1408.13 811.644 1408.51 811.401 1408.77 810.914C1409.03 810.428 1409.2 809.86 1409.29 809.212C1409.38 808.563 1409.42 807.995 1409.4 807.509L1409.06 796.951C1408.99 795.183 1409.31 793.715 1410.02 792.548C1410.73 791.38 1411.67 790.508 1412.82 789.933C1413.98 789.357 1415.19 789.069 1416.45 789.069C1417.61 789.069 1418.67 789.28 1419.62 789.702C1420.57 790.115 1421.36 790.675 1422.01 791.38C1422.66 792.086 1423.12 792.88 1423.37 793.764C1423.63 794.64 1423.65 795.54 1423.41 796.464L1420.59 795.686C1420.7 794.843 1420.57 794.129 1420.2 793.545C1419.84 792.953 1419.32 792.507 1418.67 792.207C1418.02 791.899 1417.33 791.745 1416.6 791.745C1415.82 791.745 1415.07 791.932 1414.35 792.305C1413.63 792.669 1413.04 793.237 1412.57 794.007C1412.11 794.77 1411.88 795.751 1411.88 796.951Z" fill="#4E4E4E"/>
</svg>
